<?xml version="1.0" standalone="no"?><!DOCTYPE svg PUBLIC "-//W3C//DTD SVG 1.1//EN" "http://www.w3.org/Graphics/SVG/1.1/DTD/svg11.dtd"><svg t="1654321931004" class="icon" viewBox="0 0 1024 1024" version="1.1" xmlns="http://www.w3.org/2000/svg" p-id="7473" xmlns:xlink="http://www.w3.org/1999/xlink" width="200" height="200"><defs><style type="text/css">@font-face { font-family: feedback-iconfont; src: url("//at.alicdn.com/t/font_1031158_u69w8yhxdu.woff2?t=1630033759944") format("woff2"), url("//at.alicdn.com/t/font_1031158_u69w8yhxdu.woff?t=1630033759944") format("woff"), url("//at.alicdn.com/t/font_1031158_u69w8yhxdu.ttf?t=1630033759944") format("truetype"); }
</style></defs><path d="M791.04 748.032h-18.944V563.2a260.096 260.096 0 1 0-520.192 0v183.296h-18.944a114.688 114.688 0 0 0 0 229.376h558.08a114.688 114.688 0 0 0 0-227.84zM512 380.928A183.808 183.808 0 0 1 695.296 563.2v208.896H328.704V563.2A183.808 183.808 0 0 1 512 380.928z m279.04 519.68H232.96a37.888 37.888 0 0 1 0-75.776h558.08a37.888 37.888 0 0 1 0 75.776zM512 245.248a25.6 25.6 0 0 0 25.6-25.6V84.992a25.6 25.6 0 0 0-51.2 0v134.656a25.6 25.6 0 0 0 25.6 25.6zM330.24 268.288a25.6 25.6 0 1 0 44.544-25.6L307.2 125.952a25.6 25.6 0 1 0-44.544 25.6zM243.712 393.216A25.6 25.6 0 0 0 256 345.088L140.288 278.016a25.6 25.6 0 0 0-25.6 44.544l116.224 67.072a25.6 25.6 0 0 0 12.8 3.584zM658.944 277.504a25.6 25.6 0 0 0 34.816-9.216L760.832 153.6a25.6 25.6 0 1 0-44.032-27.648l-67.072 116.736a25.6 25.6 0 0 0 9.216 34.816zM918.528 287.232a25.6 25.6 0 0 0-34.816-9.216L768 345.088a25.6 25.6 0 0 0 25.6 44.544l115.712-67.072a25.6 25.6 0 0 0 9.216-35.328z" fill="#1890ff" p-id="7474"></path></svg>
