<svg  width="200" height="200" viewBox="0 0 200 200" xmlns="http://www.w3.org/2000/svg">
  <path fill="currentColor" d="M42.5,-66.2C57.1,-56.7,72.5,-48.4,81.1,-35.3C89.8,-22.2,91.8,-4.4,89.6,13C87.3,30.4,80.7,47.4,69.5,60.1C58.3,72.9,42.4,81.5,25.9,84.6C9.5,87.8,-7.4,85.4,-22.7,79.8C-37.9,74.1,-51.5,65.2,-60.9,53.3C-70.4,41.4,-75.8,26.6,-79,10.8C-82.1,-5,-83.1,-21.7,-77.7,-36.4C-72.4,-51,-60.7,-63.7,-46.7,-73.5C-32.7,-83.3,-16.4,-90.1,-1.2,-88.2C13.9,-86.3,27.8,-75.7,42.5,-66.2Z" transform="translate(100 100)" />
</svg>
