<?xml version="1.0" standalone="no"?><!DOCTYPE svg PUBLIC "-//W3C//DTD SVG 1.1//EN" "http://www.w3.org/Graphics/SVG/1.1/DTD/svg11.dtd"><svg t="1620569733680" class="icon" viewBox="0 0 1024 1024" version="1.1" xmlns="http://www.w3.org/2000/svg" p-id="2383" xmlns:xlink="http://www.w3.org/1999/xlink" width="200" height="200"><defs><style type="text/css"></style></defs><path d="M662.588235 120.470588H240.941176c-49.814588 0-90.352941 40.538353-90.352941 90.352941v542.117647c0 49.814588 40.538353 90.352941 90.352941 90.352942h421.647059c49.814588 0 90.352941-40.538353 90.352941-90.352942V210.823529c0-49.814588-40.538353-90.352941-90.352941-90.352941zM240.941176 783.058824c-16.594824 0-30.117647-13.522824-30.117647-30.117648V210.823529c0-16.624941 13.522824-30.117647 30.117647-30.117647h421.647059c16.624941 0 30.117647 13.492706 30.117647 30.117647v542.117647c0 16.594824-13.492706 30.117647-30.117647 30.117648H240.941176zM783.058824 0H331.294118c-16.624941 0-30.117647 13.462588-30.117647 30.117647s13.492706 30.117647 30.117647 30.117647h451.764706c16.624941 0 30.117647 13.492706 30.117647 30.117647v572.235294c0 16.624941 13.462588 30.117647 30.117647 30.117647s30.117647-13.492706 30.117647-30.117647V90.352941c0-49.814588-40.538353-90.352941-90.352941-90.352941zM542.117647 602.352941H301.176471c-16.624941 0-30.117647 13.492706-30.117647 30.117647s13.492706 30.117647 30.117647 30.117647h240.941176c16.655059 0 30.117647-13.492706 30.117647-30.117647s-13.462588-30.117647-30.117647-30.117647z m60.235294-150.588235H301.206588c-16.624941 0-30.117647 13.492706-30.117647 30.117647s13.492706 30.117647 30.117647 30.117647H602.352941c16.655059 0 30.117647-13.492706 30.117647-30.117647s-13.462588-30.117647-30.117647-30.117647z m0-150.588235H301.176471c-16.624941 0-30.117647 13.462588-30.117647 30.117647s13.492706 30.117647 30.117647 30.117647h301.17647c16.655059 0 30.117647-13.462588 30.117647-30.117647s-13.462588-30.117647-30.117647-30.117647z" fill="#1890ff" p-id="2384"></path></svg>