<?xml version="1.0" standalone="no"?><!DOCTYPE svg PUBLIC "-//W3C//DTD SVG 1.1//EN" "http://www.w3.org/Graphics/SVG/1.1/DTD/svg11.dtd"><svg t="1615702497671" class="icon" viewBox="0 0 1024 1024" version="1.1" xmlns="http://www.w3.org/2000/svg" p-id="6382" xmlns:xlink="http://www.w3.org/1999/xlink" width="200" height="200"><defs><style type="text/css"></style></defs><path d="M938.24 129.707c0-18.774-15.36-34.134-34.133-34.134-6.4 0-11.947 1.707-17.067 4.694L124.16 503.04c-11.093 5.547-18.347 17.92-18.347 30.72s7.254 24.32 18.774 30.293L322.56 672.427c5.12 2.133 10.667 3.413 15.36 3.413 13.227 0 24.747-7.253 30.72-18.773 8.107-16.64 1.28-37.547-15.36-46.08l-138.24-78.08L768.853 239.36l-348.16 423.253c-5.12 6.827-8.106 14.507-8.106 22.187v209.493c0 18.347 15.786 34.134 34.133 34.134s34.133-15.787 34.133-34.134V697.6l370.774-451.413-71.68 574.293-208.214-99.413c-4.266-2.56-9.386-3.414-14.933-3.414-13.227 0-24.747 7.254-30.72 19.2-3.84 8.107-4.693 17.494-1.707 26.027 2.987 8.96 8.96 15.787 17.067 19.627L792.747 901.12c4.266 2.56 9.386 3.413 14.933 3.413 5.12 0 10.667-1.28 15.787-3.84 9.813-5.12 16.64-14.506 17.92-25.173l96.853-741.547v-4.266z" fill="#1890FF" p-id="6383"></path></svg>