<?xml version="1.0" standalone="no"?><!DOCTYPE svg PUBLIC "-//W3C//DTD SVG 1.1//EN" "http://www.w3.org/Graphics/SVG/1.1/DTD/svg11.dtd"><svg t="1656162307035" class="icon" viewBox="0 0 1024 1024" version="1.1" xmlns="http://www.w3.org/2000/svg" p-id="3728" xmlns:xlink="http://www.w3.org/1999/xlink" width="200" height="200"><defs><style type="text/css">@font-face { font-family: feedback-iconfont; src: url("//at.alicdn.com/t/font_1031158_u69w8yhxdu.woff2?t=1630033759944") format("woff2"), url("//at.alicdn.com/t/font_1031158_u69w8yhxdu.woff?t=1630033759944") format("woff"), url("//at.alicdn.com/t/font_1031158_u69w8yhxdu.ttf?t=1630033759944") format("truetype"); }
</style></defs><path d="M912.896 382.976c-2.048 7.68-6.144 18.432-12.288 31.744l-1.024 1.536c-35.84 76.8-129.024 226.816-129.024 226.816s0-0.512-0.512-1.024l-27.136 47.616h131.584l-250.88 334.336 56.832-227.84h-103.424l35.84-150.528c-29.184 7.168-63.488 16.896-104.448 29.696 0 0-55.296 32.256-158.72-61.952 0 0-69.632-61.44-29.184-77.312 17.408-6.656 83.456-14.848 135.68-22.016 70.656-9.728 114.176-14.848 114.176-14.848s-217.6 3.072-269.312-5.12C249.344 485.888 183.808 399.36 169.984 323.584c0 0-21.504-41.472 46.592-22.016s349.696 76.8 349.696 76.8S199.68 266.752 175.616 239.616s-71.68-150.016-65.536-224.768c0 0 2.56-18.944 22.016-13.824 0 0 270.848 123.904 455.68 191.488 184.832 68.096 345.6 102.4 325.12 190.464z" p-id="3729" fill="#1890ff"></path></svg>
