<?xml version="1.0" standalone="no"?><!DOCTYPE svg PUBLIC "-//W3C//DTD SVG 1.1//EN" "http://www.w3.org/Graphics/SVG/1.1/DTD/svg11.dtd"><svg t="1628435409583" class="icon" viewBox="0 0 1332 1024" version="1.1" xmlns="http://www.w3.org/2000/svg" p-id="3917" xmlns:xlink="http://www.w3.org/1999/xlink" width="260.15625" height="200"><defs><style type="text/css"></style></defs><path d="M1329.535236 494.402464c-46.737542-40.240961-116.402341-57.365445-186.571728-39.830983a224.794333 224.794333 0 0 0-72.061595 32.104466 7.064244 7.064244 0 0 1-11.037882-6.622729 225.488143 225.488143 0 0 0-5.582014-78.842008C1036.747555 331.136434 988.874687 277.839236 931.414632 255.448106a8.735694 8.735694 0 0 0-9.744872 2.428334c-40.209424 46.769079-57.333908 116.402341-39.799446 186.540191a227.88494 227.88494 0 0 0 17.723684 47.557499 27.846997 27.846997 0 0 1-24.661781 40.587866H12.621407A12.614721 12.614721 0 0 0 0.006686 545.586695c6.086603 268.63049 203.254697 478.413305 490.113459 478.413305 232.962365 0 468.226917-136.081306 537.954789-333.596304a86.536988 86.536988 0 0 1 87.79846-57.050077 224.542039 224.542039 0 0 0 70.200924-6.307361c70.13785-17.534463 123.561195-65.40733 145.889251-122.993532a8.609547 8.609547 0 0 0-2.428333-9.650262zM278.06668 844.934031a74.616076 74.616076 0 1 1 74.616076-74.616076 74.616076 74.616076 0 0 1-74.616076 74.616076z" fill="#1890ff" p-id="3918"></path><path d="M108.524826 355.577456m18.228272 0l123.403511 0q18.228272 0 18.228272 18.228272l0 123.403511q0 18.228272-18.228272 18.228273l-123.403511 0q-18.228272 0-18.228272-18.228273l0-123.403511q0-18.228272 18.228272-18.228272Z" fill="#1890ff" p-id="3919"></path><path d="M641.433727 355.577456m18.228272 0l123.403511 0q18.228272 0 18.228272 18.228272l0 123.403511q0 18.228272-18.228272 18.228273l-123.403511 0q-18.228272 0-18.228272-18.228273l0-123.403511q0-18.228272 18.228272-18.228272Z" fill="#1890ff" p-id="3920"></path><path d="M285.85627 355.577456m18.228273 0l123.403511 0q18.228272 0 18.228272 18.228272l0 123.403511q0 18.228272-18.228272 18.228273l-123.403511 0q-18.228272 0-18.228273-18.228273l0-123.403511q0-18.228272 18.228273-18.228272Z" fill="#1890ff" p-id="3921"></path><path d="M285.85627 177.77296m18.228273 0l123.403511 0q18.228272 0 18.228272 18.228272l0 123.403511q0 18.228272-18.228272 18.228272l-123.403511 0q-18.228272 0-18.228273-18.228272l0-123.403511q0-18.228272 18.228273-18.228272Z" fill="#1890ff" p-id="3922"></path><path d="M463.660767 177.77296m11.54247 0l136.775115 0q11.54247 0 11.54247 11.54247l0 136.775115q0 11.54247-11.54247 11.54247l-136.775115 0q-11.54247 0-11.54247-11.54247l0-136.775115q0-11.54247 11.54247-11.54247Z" fill="#1890ff" p-id="3923"></path><path d="M463.660767 355.545919m18.228272 0l123.403511 0q18.228272 0 18.228272 18.228273l0 123.40351q0 18.228272-18.228272 18.228273l-123.403511 0q-18.228272 0-18.228272-18.228273l0-123.40351q0-18.228272 18.228272-18.228273Z" fill="#1890ff" p-id="3924"></path><path d="M463.660767 0m18.228272 0l123.403511 0q18.228272 0 18.228272 18.228272l0 123.403511q0 18.228272-18.228272 18.228272l-123.403511 0q-18.228272 0-18.228272-18.228272l0-123.403511q0-18.228272 18.228272-18.228272Z" fill="#1890ff" p-id="3925"></path></svg>
