<svg t="1620578438157" class="icon" viewBox="0 0 1024 1024" version="1.1" xmlns="http://www.w3.org/2000/svg" p-id="2776" width="200" height="200"><path d="M595.344218 147.059903L124.550908 617.923026a130.060986 130.060986 0 0 0-33.486806 57.19984l-74.629734 265.288109-15.638036 55.850128a21.967717 21.967717 0 0 0 5.585013 21.339403 22.223697 22.223697 0 0 0 21.479028 5.585013l55.850129-15.638036c164.315731-46.309065 234.058579-65.85661 265.451005-74.629734a128.804358 128.804358 0 0 0 56.897318-33.34718l470.79331-470.863123zM359.726489 885.375328l-200.455418 56.199191a22.246968 22.246968 0 0 1-21.874634-5.701367l-49.264467-49.241197a22.363322 22.363322 0 0 1-5.701367-21.921175l56.338817-200.339064 7.539767-7.539767a57.362736 57.362736 0 0 1 56.780964 69.184346 73.605815 73.605815 0 0 1 93.874757 94.177279 57.316194 57.316194 0 0 1 69.323971 58.596093z m-38.908922-252.907998a34.90633 34.90633 0 0 1-49.380822-49.380821l275.085152-274.992069a34.90633 34.90633 0 1 1 49.241197 49.380822z m644.743188-574.092776a198.989353 198.989353 0 0 0-281.57773 0l-40.886948 41.026573 281.57773 281.57773 40.886948-40.747323a199.245332 199.245332 0 0 0 0-281.763896z" p-id="2777" fill="#1890ff"></path></svg>
