<?xml version="1.0" standalone="no"?><!DOCTYPE svg PUBLIC "-//W3C//DTD SVG 1.1//EN" "http://www.w3.org/Graphics/SVG/1.1/DTD/svg11.dtd"><svg t="1620566967859" class="icon" viewBox="0 0 1024 1024" version="1.1" xmlns="http://www.w3.org/2000/svg" p-id="2232" xmlns:xlink="http://www.w3.org/1999/xlink" width="200" height="200"><defs><style type="text/css"></style></defs><path d="M149.650286 683.849143c0 178.285714 136.283429 297.014857 340.699428 297.014857 230.144 0 384-155.154286 384-388.717714 0-387.858286-330.843429-549.010286-555.849143-549.010286-45.001143 0-74.148571 15.872-74.148571 47.158857 0 11.995429 5.156571 24.850286 14.573714 35.565714 50.139429 60.416 101.138286 130.285714 102.436572 212.132572 0 7.716571 0 14.994286-0.859429 22.729143-24.009143-45.001143-64.292571-77.165714-105.435428-77.165715-20.571429 0-35.145143 15.012571-35.145143 37.723429 0 10.715429 3.437714 37.302857 3.437714 55.716571 0 89.581714-73.709714 149.997714-73.709714 306.852572z m71.131428 0c0-132.845714 73.289143-188.141714 76.726857-311.131429 24.411429 30.848 41.984 68.132571 48 121.709715 0.841143 8.576 5.997714 11.995429 13.714286 11.995428 40.704 0 64.274286-103.277714 64.274286-168.411428 0-83.584-35.565714-171.008-90.861714-227.145143C625.792 134.418286 800.64 333.714286 800.64 589.129143c0 192.859429-122.148571 320.987429-304.713143 320.987428-165.430857 0-275.145143-90.422857-275.145143-226.285714z m281.142857 176.585143c104.996571 0 156.434286-77.165714 156.434286-164.571429 0-86.582857-49.718857-183.003429-147.437714-228.022857-3.84-1.700571-6.418286 0.438857-5.997714 4.736 5.577143 74.130286 1.28 133.284571-20.992 172.288-2.56 3.84-5.577143 3.419429-7.296-0.859429-10.276571-25.728-23.131429-47.579429-43.282286-65.572571-3.419429-2.998857-5.997714-1.718857-6.418286 2.56-7.296 49.737143-62.573714 77.586286-62.573714 155.574857 0 74.148571 54.857143 123.867429 137.563428 123.867429z" fill="#1890ff" p-id="2233"></path></svg>