<?xml version="1.0" standalone="no"?><!DOCTYPE svg PUBLIC "-//W3C//DTD SVG 1.1//EN" "http://www.w3.org/Graphics/SVG/1.1/DTD/svg11.dtd"><svg t="1615711467905" class="icon" viewBox="0 0 1024 1024" version="1.1" xmlns="http://www.w3.org/2000/svg" p-id="3358" xmlns:xlink="http://www.w3.org/1999/xlink" width="200" height="200"><defs><style type="text/css"></style></defs><path d="M906.752 211.456c-24.576-43.008-65.536-78.336-132.608-78.336 1.536-29.696-1.536-44.032-20.992-52.736-18.944 7.168-24.576 15.872-37.888 27.648-7.168-15.872-13.824-31.744-20.992-48.64h-18.944c-18.944 20.992-10.752 31.744-23.04 62.976-8.192 20.992-33.28 44.032-44.032 67.584-14.336 31.232-11.776 69.632-27.648 103.936-22.528 47.104-65.536 83.456-94.208 124.928-52.224 74.752-110.08 218.624-61.44 335.872 15.36 35.328 34.304 82.944 54.272 111.616-196.608-50.176-78.336-299.52-111.616-487.936-25.6-145.92-116.736-217.088-286.72-203.264 15.872 55.808 56.832 90.624 46.592 175.616-8.704 81.408-55.808 147.968-76.8 227.328-38.4 144.384 24.064 309.76 114.176 350.72 88.064 40.448 260.608-5.632 351.744-19.456 28.16-4.608 53.76 18.944 76.288 25.6 45.056 13.824 86.528 9.216 126.464 25.6 12.288-5.12 10.752-4.608 14.336-14.336 7.168 1.536 13.824 3.072 20.992 4.608 6.656-5.12 9.216-3.584 6.656-12.288-5.12-8.704-13.312-10.752-27.648-10.24v-2.048c17.92-20.48 50.688-8.192 81.92-6.656 5.12-11.776 13.312-9.216 25.6-19.456-10.24-13.824-41.984-23.04-58.88-29.696 8.704-34.304 40.448-52.736 48.64-92.672 8.192-39.424-11.776-79.872-20.992-105.984-26.624-71.68-36.864-180.224 8.192-241.152 12.288-17.408 55.296-28.16 76.288-35.328 4.608-8.192 10.24-26.624 8.192-35.328l-2.048-6.656c-28.16-7.168-70.144-4.608-96.768 2.048-5.632-17.408-11.776-35.328-16.896-52.736 69.632 1.536 109.568-31.744 119.808-91.136z m-110.592-18.944c-8.704 0-15.872-7.168-15.872-15.872 0-8.704 7.168-15.872 15.872-15.872s15.872 7.168 15.872 15.872c1.024 8.704-6.144 15.872-15.872 15.872z m204.8 141.312c-3.584-11.776-10.24-15.872-17.408-17.408-16.896-5.632-11.776 6.656-23.04-13.824-4.608 0.512-10.24-2.048-12.288 3.072-7.168 15.872-11.776 3.072-28.16 10.24-7.168 3.584-10.24 6.656-9.216 6.656-0.512 4.608-1.536 8.192-2.048 12.288h92.672v-1.024z m-86.528 10.24c-14.336 48.64 11.776 72.704 41.984 83.968 30.72-19.456 39.424-28.16 37.888-81.92-26.112-0.512-52.736-1.536-79.872-2.048z" p-id="3359" fill="#1890ff"></path></svg>
