<?xml version="1.0" standalone="no"?><!DOCTYPE svg PUBLIC "-//W3C//DTD SVG 1.1//EN" "http://www.w3.org/Graphics/SVG/1.1/DTD/svg11.dtd"><svg t="1615712071858" class="icon" viewBox="0 0 1059 1024" version="1.1" xmlns="http://www.w3.org/2000/svg" p-id="4963" xmlns:xlink="http://www.w3.org/1999/xlink" width="206.8359375" height="200"><defs><style type="text/css"></style></defs><path d="M1024 436.082759h-146.537931V54.731034A54.731034 54.731034 0 0 0 823.908046 0H310.731034a153.6 153.6 0 0 0-93.572413 38.841379l-176.551724 176.551724A153.6 153.6 0 0 0 0 310.731034v658.537932a54.731034 54.731034 0 0 0 54.731034 54.731034H823.908046a54.731034 54.731034 0 0 0 54.731034-54.731034v-91.806897h145.36092a35.310345 35.310345 0 0 0 35.310345-35.310345V470.804598a35.310345 35.310345 0 0 0-35.310345-34.721839zM90.041379 268.947126l176.551724-176.551724A94.749425 94.749425 0 0 1 294.252874 77.682759V294.252874H77.682759a94.749425 94.749425 0 0 1 12.35862-25.305748z m714.445977 682.078161H72.974713V365.462069h235.402298a54.142529 54.142529 0 0 0 54.731035-54.731035v-235.402298h439.025287v360.754023H282.482759a35.310345 35.310345 0 0 0-35.310345 35.310344v370.758621a35.310345 35.310345 0 0 0 35.310345 35.310345h522.004597z m195.972414-135.356321H308.965517v-317.793104H1000.45977z" p-id="4964" fill="#1890ff"></path><path d="M404.891954 672.662069h96.514943v-38.841379H404.891954v-54.731035h111.816092v-39.429885h-158.896552v231.871264h47.08046v-98.868965zM659.714943 775.062069a129.471264 129.471264 0 0 0 50.611494-9.416092 316.027586 316.027586 0 0 0 31.190804 20.009195 70.032184 70.032184 0 0 0 20.597702 8.827587l17.066666-32.956322a152.422989 152.422989 0 0 1-37.664368-19.42069A117.701149 117.701149 0 0 0 765.057471 706.206897a161.250575 161.250575 0 0 0 8.239081-52.965518 123.586207 123.586207 0 0 0-30.013793-88.275862 107.696552 107.696552 0 0 0-81.802299-31.77931 108.285057 108.285057 0 0 0-82.390805 31.77931 123.586207 123.586207 0 0 0-30.602299 88.275862 123.586207 123.586207 0 0 0 30.602299 88.275862 109.462069 109.462069 0 0 0 80.625288 33.544828z m-47.668966-179.494253a58.850575 58.850575 0 0 1 45.903448-20.009195 58.850575 58.850575 0 0 1 46.491954 20.009195 87.098851 87.098851 0 0 1 17.655173 58.850575 101.811494 101.811494 0 0 1-4.708046 34.133333 64.147126 64.147126 0 0 1-13.535632 25.894253 149.48046 149.48046 0 0 0-43.549426-23.54023l-13.535632 26.482759a121.232184 121.232184 0 0 1 28.836782 14.712643 66.501149 66.501149 0 0 1-18.832184 0 58.850575 58.850575 0 0 1-44.726437-20.009195 87.098851 87.098851 0 0 1-18.243678-58.850575 86.510345 86.510345 0 0 1 18.243678-57.673563zM971.622989 732.101149h-116.524138V541.425287h-47.08046v230.105747h163.604598v-39.429885z" p-id="4965" fill="#1890ff"></path></svg>