<?xml version="1.0" standalone="no"?><!DOCTYPE svg PUBLIC "-//W3C//DTD SVG 1.1//EN" "http://www.w3.org/Graphics/SVG/1.1/DTD/svg11.dtd"><svg t="1618914051851" class="icon" viewBox="0 0 1024 1024" version="1.1" xmlns="http://www.w3.org/2000/svg" p-id="1224" xmlns:xlink="http://www.w3.org/1999/xlink" width="200" height="200"><defs><style type="text/css"></style></defs><path d="M40.96 81.92v40.96h942.08V81.92z m0 204.8v40.96h593.92v-40.96z m919.04 0a20.64384 20.64384 0 0 0-12.16512 5.75488l-204.8 204.8a20.45952 20.45952 0 0 0 0 29.45024l204.8 204.8A20.52096 20.52096 0 0 0 983.04 716.8V307.2a20.56192 20.56192 0 0 0-23.04-20.48zM942.08 357.13024v309.76L787.18976 512zM40.96 491.52v40.96h593.92v-40.96z m0 204.8v40.96h593.92v-40.96z m0 204.8v40.96h942.08v-40.96z" fill="#1890ff" p-id="1225"></path></svg>