<?xml version="1.0" standalone="no"?><!DOCTYPE svg PUBLIC "-//W3C//DTD SVG 1.1//EN" "http://www.w3.org/Graphics/SVG/1.1/DTD/svg11.dtd"><svg t="1615699816468" class="icon" viewBox="0 0 1024 1024" version="1.1" xmlns="http://www.w3.org/2000/svg" p-id="2736" xmlns:xlink="http://www.w3.org/1999/xlink" width="200" height="200"><defs><style type="text/css"></style></defs><path d="M134.144 95.914667L184.32 30.378667h488.106667l229.376 212.992v671.744l-108.885334 90.794666-650.24-25.941333-13.994666-64.853333z" fill="#FFFFFF" p-id="2737"></path><path d="M523.264 521.898667c-38.229333 0-61.44 33.109333-61.44 89.088 0 60.416 23.210667 95.232 61.44 95.232s61.781333-34.474667 61.781333-95.232c0-55.978667-23.552-89.088-61.781333-89.088z m0 0" fill="#1890ff" p-id="2738"></path><path d="M970.069333 431.445333h-53.930666v-215.04L700.757333 1.365333H215.722667c-59.392 0-107.861333 48.128-107.861334 107.52v322.218667H53.930667c-29.696 0.341333-53.930667 24.576-53.930667 53.930667v322.218666c0 29.696 24.234667 53.589333 53.930667 53.589334h53.930666v53.589333c0 59.392 48.128 107.52 107.861334 107.52h592.896c59.392 0 107.861333-48.128 107.861333-107.52v-53.589333h53.930667c29.696 0 53.930667-23.893333 53.930666-53.589334v-322.218666c-0.341333-29.354667-24.576-53.589333-54.272-53.589334zM161.792 109.226667c0-29.696 24.234667-53.589333 53.930667-53.589334h431.104v107.52c0 59.392 48.128 107.52 107.861333 107.52h107.861333v161.109334H161.792V109.226667z m465.92 675.157333c12.288 0 23.893333-2.389333 32.768-5.461333l11.946667 50.517333c-10.922667 5.802667-29.696 9.557333-52.565334 9.557333-63.146667 0-107.178667-33.109333-128-79.530666-61.44-13.653333-101.376-66.901333-101.376-148.821334 0-95.232 53.589333-148.821333 132.778667-148.821333 79.189333 0 132.778667 54.272 132.778667 148.821333 0 77.141333-35.498667 129.365333-91.136 146.090667 13.312 20.48 39.253333 27.648 62.805333 27.648z m-286.037333-195.242667v58.026667h-98.986667v110.592H173.056v-289.792h185.002667v57.685333H242.688v63.488h98.986667z m520.533333 325.973334c0 29.696-24.234667 53.589333-53.930667 53.589333H215.722667c-29.696 0-53.930667-24.234667-53.930667-53.589333v-53.589334h700.757333v53.589334z m29.696-157.696h-182.272V467.626667h69.632v231.424h112.64v58.368z m0 0" fill="#1890ff" p-id="2739"></path></svg>
