<svg t="1620878303270" class="icon" viewBox="0 0 1024 1024" version="1.1" xmlns="http://www.w3.org/2000/svg" p-id="3170" width="200" height="200"><path d="M0 0h1024v1024H0z" fill="#1890ff" fill-opacity=".01" p-id="3171"></path><path d="M512 85.333333C276.352 85.333333 85.333333 276.352 85.333333 512s191.018667 426.666667 426.666667 426.666667 426.666667-191.018667 426.666667-426.666667S747.648 85.333333 512 85.333333zM0 512C0 229.226667 229.226667 0 512 0s512 229.226667 512 512-229.226667 512-512 512S0 794.773333 0 512z" fill="#1890ff" p-id="3172"></path><path d="M409.237333 970.048c-4.117333-5.333333-4.117333-52.778667 0-142.357333-44.202667 1.536-72.106667-1.536-83.776-9.194667-17.493333-11.52-34.986667-46.933333-50.496-71.914667-15.530667-24.981333-49.984-28.928-63.893333-34.517333-13.909333-5.589333-17.408-28.330667 38.336-11.136 55.744 17.216 58.453333 64.106667 76.053333 75.050667 17.578667 10.965333 59.626667 6.186667 78.698667-2.602667 19.050667-8.789333 17.642667-41.472 21.034667-54.421333 4.309333-12.096-10.837333-14.784-11.178667-14.869334-18.602667 0-116.330667-21.269333-143.189333-115.904-26.837333-94.656 7.744-156.522667 26.197333-183.125333 12.288-17.706667 11.2-55.509333-3.264-113.344 52.544-6.72 93.098667 9.813333 121.664 49.621333 0.042667 0.213333 37.44-22.250667 96.576-22.250666 59.136 0 80.106667 18.304 96.298667 22.250666 16.192 3.946667 29.141333-69.674667 129.130666-49.621333-20.885333 41.024-38.357333 92.288-25.024 113.344 13.354667 21.077333 65.706667 88.064 33.536 183.125333-21.44 63.36-63.573333 101.994667-126.464 115.904-7.210667 2.282667-10.816 5.994667-10.816 11.114667 0 7.68 9.749333 8.533333 23.786667 44.522667 9.365333 23.978667 10.026667 92.501333 2.026667 205.546666-20.266667 5.162667-36.053333 8.618667-47.36 10.410667-19.989333 3.136-41.685333 4.906667-63.018667 5.568-21.333333 0.682667-28.757333 0.618667-58.24-2.133333a422.357333 422.357333 0 0 1-56.618667-9.066667z" fill="#1890ff" p-id="3173"></path></svg>
