<?xml version="1.0" standalone="no"?><!DOCTYPE svg PUBLIC "-//W3C//DTD SVG 1.1//EN" "http://www.w3.org/Graphics/SVG/1.1/DTD/svg11.dtd"><svg t="1620483171283" class="icon" viewBox="0 0 1024 1024" version="1.1" xmlns="http://www.w3.org/2000/svg" p-id="2986" xmlns:xlink="http://www.w3.org/1999/xlink" width="200" height="200"><defs><style type="text/css"></style></defs><path d="M384.147 702.87s13.481-191.162 191.675-191.674h127.785V86.446C703.54 38.718 665.653 0 618.884 0H85.454C38.684 0 0.797 38.655 0.797 86.445v935.884h191.676V894.547c-4.218-214.485 191.674-191.676 191.674-191.676zM128.582 127.848h447.24V255.63h-447.24V127.847z m0 319.458V319.522h447.24v127.783h-447.24z m702.806 319.458s-24.47-198.383-191.675-191.676c0 0-189.438 4.346-191.674 191.676 0 0-187.906-12.205-191.675 127.784-0.127 153.85 127.783 127.782 127.783 127.782H895.28s126.759-3.896 127.783-127.782c6.134-158.198-191.675-127.784-191.675-127.784z" fill="#1890ff" p-id="2987"></path></svg>
