<?xml version="1.0" standalone="no"?><!DOCTYPE svg PUBLIC "-//W3C//DTD SVG 1.1//EN" "http://www.w3.org/Graphics/SVG/1.1/DTD/svg11.dtd"><svg t="1615703629730" class="icon" viewBox="0 0 1024 1024" version="1.1" xmlns="http://www.w3.org/2000/svg" p-id="5964" xmlns:xlink="http://www.w3.org/1999/xlink" width="200" height="200"><defs><style type="text/css"></style></defs><path d="M684.672 591.189333c3.157333-26.154667 5.546667-52.266667 5.546667-79.189333s-2.389333-53.077333-5.546667-79.189333h133.845333c6.314667 25.344 10.282667 51.84 10.282667 79.189333a326.4 326.4 0 0 1-10.282667 79.189333m-203.946666 220.16c23.765333-43.946667 41.984-91.477333 54.656-140.970666h116.821333a317.952 317.952 0 0 1-171.477333 140.970666m-9.898667-220.16H419.413333c-3.968-26.154667-6.357333-52.266667-6.357333-79.189333s2.389333-53.461333 6.357333-79.189333h185.301334c3.584 25.728 6.357333 52.266667 6.357333 79.189333s-2.773333 53.034667-6.357333 79.189333m-92.629334 235.989334c-32.853333-47.488-59.434667-100.181333-75.648-156.8h151.253334c-16.213333 56.618667-42.752 109.312-75.648 156.8m-158.378667-473.6h-115.626667a313.728 313.728 0 0 1 171.093334-140.970667c-23.765333 43.946667-41.6 91.477333-55.466667 140.970667m-115.626667 316.8h115.626667c13.866667 49.493333 31.701333 97.024 55.466667 140.970666a317.141333 317.141333 0 0 1-171.093334-140.970666m-32.469333-79.189334A326.4 326.4 0 0 1 195.242667 512c0-27.306667 3.968-53.888 10.282666-79.232h133.845334c-3.157333 26.154667-5.546667 52.309333-5.546667 79.232s2.389333 53.034667 5.546667 79.189333M512 196.394667c32.853333 47.488 59.434667 100.565333 75.648 157.184h-151.253333c16.213333-56.618667 42.752-109.653333 75.648-157.184m274.005333 157.184h-116.821333a619.648 619.648 0 0 0-54.613334-140.970667 316.245333 316.245333 0 0 1 171.434667 140.970667M512 116.053333c-218.965333 0-395.946667 178.176-395.946667 395.946667A395.946667 395.946667 0 0 0 512 908.032 395.946667 395.946667 0 0 0 907.989333 512a395.946667 395.946667 0 0 0-395.946666-395.989333z" fill="#1890ff" p-id="5965"></path></svg>