<?xml version="1.0" standalone="no"?><!DOCTYPE svg PUBLIC "-//W3C//DTD SVG 1.1//EN" "http://www.w3.org/Graphics/SVG/1.1/DTD/svg11.dtd"><svg t="1619083508780" class="icon" viewBox="0 0 1024 1024" version="1.1" xmlns="http://www.w3.org/2000/svg" p-id="1530" xmlns:xlink="http://www.w3.org/1999/xlink" width="200" height="200"><defs><style type="text/css"></style></defs><path d="M881.472 196.096A249.6 249.6 0 0 0 480.256 480l-309.568 309.376 5.76 111.744 111.744 5.76 44.8-44.8s-58.752-58.752-39.168-78.336 78.208 39.04 78.336 39.168l39.168-39.168s-58.752-58.816-39.168-78.336 78.272 39.04 78.272 39.04l-3.264 3.264 42.432-42.432c-0.192-0.32-58.368-58.88-39.168-78.08s78.336 39.168 78.336 39.168l-14.336 14.016 83.2-83.2a249.6 249.6 0 0 0 283.776-401.216z m-117.44 235.008a83.2 83.2 0 1 1 0-117.504 83.2 83.2 0 0 1 0 117.504z" fill="#1890ff" p-id="1531"></path></svg>
