<?xml version="1.0" standalone="no"?><!DOCTYPE svg PUBLIC "-//W3C//DTD SVG 1.1//EN" "http://www.w3.org/Graphics/SVG/1.1/DTD/svg11.dtd"><svg t="1620565615707" class="icon" viewBox="0 0 1024 1024" version="1.1" xmlns="http://www.w3.org/2000/svg" p-id="2201" xmlns:xlink="http://www.w3.org/1999/xlink" width="200" height="200"><defs><style type="text/css"></style></defs><path d="M781.952 627.936c-48.832 0-92.16 30.4-108.736 76.48h-242.304a150.336 150.336 0 0 0-16.608-39.616l250.624-250.624a152.16 152.16 0 0 0 199.04-38.72c46.976-61.696 41.44-148.32-12.896-202.688a154.464 154.464 0 0 0-202.72-12.896 154.176 154.176 0 0 0-38.72 199.04l-250.592 250.592a156.096 156.096 0 0 0-78.336-21.184v-235.872a116 116 0 0 0 75.552-128.064 114.784 114.784 0 0 0-113.312-95.84A114.784 114.784 0 0 0 129.6 224.384c-9.216 55.264 22.112 109.632 75.552 128.064v257.056a153.792 153.792 0 0 0-70.944 173.248 154.016 154.016 0 0 0 149.28 113.312c70.016 0 129.92-47.904 147.424-115.168h241.408c19.328 55.296 77.376 86.624 134.496 73.728 57.152-12.928 94.912-67.264 88.48-125.312-5.536-57.152-55.296-101.376-113.344-101.376z" fill="#1890ff" p-id="2202"></path></svg>