<?xml version="1.0" standalone="no"?><!DOCTYPE svg PUBLIC "-//W3C//DTD SVG 1.1//EN" "http://www.w3.org/Graphics/SVG/1.1/DTD/svg11.dtd"><svg t="1615703567163" class="icon" viewBox="0 0 1024 1024" version="1.1" xmlns="http://www.w3.org/2000/svg" p-id="5337" xmlns:xlink="http://www.w3.org/1999/xlink" width="200" height="200"><defs><style type="text/css"></style></defs><path d="M105.344 681.92l134.144-288.128 84.48-189.824c49.024 0.512 87.68 0.768 115.84 0.768 23.232 0 58.88-0.256 107.136-0.768-5.568 23.552-9.408 41.408-11.584 53.568-2.304 12.16-5.44 36.096-9.472 71.552a2143.744 2143.744 0 0 1-12.288 92.032 4208 4208 0 0 1-24.768 132.992A3617.536 3617.536 0 0 1 639.36 337.536c29.376-39.488 48.384-65.28 56.896-77.44 8.512-12.224 20.928-30.912 37.12-56.128 75.52 1.024 151.04 1.024 226.624 0a10112.192 10112.192 0 0 0-100.48 237.952 14836.16 14836.16 0 0 0-107.136 267.968c-3.84 10.112-10.496 28.48-20.096 55.04a6322.752 6322.752 0 0 0-73.728-0.832c-20.544 0-45.824 0.256-75.968 0.832 11.52-24.64 36.544-83.392 75.136-176.128 38.4-92.736 62.656-151.936 72.384-177.728 4.288-11.264 9.92-26.816 17.024-46.848L631.04 531.456 466.88 764.8a5899.136 5899.136 0 0 0-71.232-0.832c-16.576 0-41.984 0.256-76.416 0.832L355.84 538.88l16.896-120.512a608.64 608.64 0 0 1 2.944-17.216c1.28-6.784 3.712-18.816 7.296-36.096l-53.248 113.92-102.016 233.408-21.248 52.608c-23.36-0.384-46.72-0.64-70.08-0.832-14.016 0-38.016 0.256-72.384 0.832l41.344-83.008z" fill="#FF9000" p-id="5338"></path></svg>
