<?xml version="1.0" standalone="no"?><!DOCTYPE svg PUBLIC "-//W3C//DTD SVG 1.1//EN" "http://www.w3.org/Graphics/SVG/1.1/DTD/svg11.dtd"><svg t="1656160087714" class="icon" viewBox="0 0 1024 1024" version="1.1" xmlns="http://www.w3.org/2000/svg" p-id="2389" xmlns:xlink="http://www.w3.org/1999/xlink" width="200" height="200"><defs><style type="text/css">@font-face { font-family: feedback-iconfont; src: url("//at.alicdn.com/t/font_1031158_u69w8yhxdu.woff2?t=1630033759944") format("woff2"), url("//at.alicdn.com/t/font_1031158_u69w8yhxdu.woff?t=1630033759944") format("woff"), url("//at.alicdn.com/t/font_1031158_u69w8yhxdu.ttf?t=1630033759944") format("truetype"); }
</style></defs><path d="M512 67.168c-247.04 0-448 172.256-448 384 0 116.512 63.04 226.048 174.048 301.408l84.16 52.032c-3.68 23.552-18.752 74.496-33.44 115.936-4.256 12.064-0.928 25.504 8.448 34.176 6.016 5.568 13.824 8.512 21.728 8.512 4.416 0 8.832-0.896 13.024-2.752 36.416-16.224 147.456-68.96 187.584-125.376C763.136 831.616 960 660.704 960 451.168 960 239.424 759.04 67.168 512 67.168zM580.224 543.968 384.96 543.968c-17.664 0-32-14.336-32-32s14.336-32 32-32l195.264 0c17.696 0 32 14.336 32 32S597.92 543.968 580.224 543.968zM640.928 415.968 384.96 415.968c-17.664 0-32-14.336-32-32s14.336-32 32-32l255.968 0c17.696 0 32 14.336 32 32S658.624 415.968 640.928 415.968z" p-id="2390" fill="#1890ff"></path></svg>
