<?xml version="1.0" standalone="no"?><!DOCTYPE svg PUBLIC "-//W3C//DTD SVG 1.1//EN" "http://www.w3.org/Graphics/SVG/1.1/DTD/svg11.dtd"><svg t="1646659719581" class="icon" viewBox="0 0 1137 1024" version="1.1" xmlns="http://www.w3.org/2000/svg" p-id="2810" xmlns:xlink="http://www.w3.org/1999/xlink" width="222.0703125" height="200"><defs><style type="text/css"></style></defs><path d="M1084.302222 585.386667h-17.635555V512a213.333333 213.333333 0 1 0-426.666667 0v73.386667h-17.635556a56.888889 56.888889 0 0 0-53.475555 56.888889V967.111111a56.888889 56.888889 0 0 0 53.475555 56.888889h461.937778a56.888889 56.888889 0 0 0 53.475556-56.888889v-327.111111a56.888889 56.888889 0 0 0-53.475556-56.888889z m-106.382222 0h-249.173333V512a124.586667 124.586667 0 1 1 249.173333 0zM53.475556 292.408889h585.955555a295.822222 295.822222 0 0 1 356.124445-56.888889V56.888889a56.888889 56.888889 0 0 0-53.475556-56.888889H53.475556A56.888889 56.888889 0 0 0 0 56.888889v180.906667a56.888889 56.888889 0 0 0 53.475556 56.888888zM142.222222 109.795556h71.111111a36.408889 36.408889 0 0 1 0 72.817777H142.222222a35.271111 35.271111 0 0 1-35.271111-36.408889 35.84 35.84 0 0 1 35.271111-36.408888zM53.475556 365.795556a56.888889 56.888889 0 0 0-53.475556 56.888888v183.182223a56.888889 56.888889 0 0 0 53.475556 56.888889h426.666666v-18.204445A146.773333 146.773333 0 0 1 551.253333 512a316.871111 316.871111 0 0 1 35.271111-146.204444z m159.857777 182.613333H142.222222a36.408889 36.408889 0 0 1 0-72.817778h71.111111a36.408889 36.408889 0 0 1 0 72.817778z m266.808889 183.182222H53.475556a56.888889 56.888889 0 0 0-53.475556 56.888889V967.111111a56.888889 56.888889 0 0 0 53.475556 56.888889h436.906666a150.186667 150.186667 0 0 1-10.24-56.888889z m-266.808889 182.613333H142.222222a36.408889 36.408889 0 0 1 0-72.817777h71.111111a36.408889 36.408889 0 0 1 0 72.817777z" fill="#1890ff" p-id="2811"></path></svg>