<?xml version="1.0" standalone="no"?><!DOCTYPE svg PUBLIC "-//W3C//DTD SVG 1.1//EN" "http://www.w3.org/Graphics/SVG/1.1/DTD/svg11.dtd"><svg t="1655712664592" class="icon" viewBox="0 0 1024 1024" version="1.1" xmlns="http://www.w3.org/2000/svg" p-id="6609" xmlns:xlink="http://www.w3.org/1999/xlink" width="200" height="200"><defs><style type="text/css">@font-face { font-family: feedback-iconfont; src: url("//at.alicdn.com/t/font_1031158_u69w8yhxdu.woff2?t=1630033759944") format("woff2"), url("//at.alicdn.com/t/font_1031158_u69w8yhxdu.woff?t=1630033759944") format("woff"), url("//at.alicdn.com/t/font_1031158_u69w8yhxdu.ttf?t=1630033759944") format("truetype"); }
</style></defs><path d="M136.96 53.376v913.152h97.834667v-65.194667h554.410666v65.194667h97.834667V53.376H136.96z m652.245333 782.72H234.794667v-326.144h554.410666v326.144z m0-391.338667H234.794667V118.613333h554.410666v326.144z" fill="#1890ff" p-id="6610"></path><path d="M658.773333 183.850667h97.834667v228.266666H658.773333V183.893333z m-130.474666 0h97.834666v228.266666h-97.834666V183.893333zM267.392 314.282667h228.266667V412.16h-228.266667V314.282667z m391.381333 260.906666h97.834667v228.266667H658.773333v-228.266667z m-130.474666 0h97.834666v228.266667h-97.834666v-228.266667z m-130.432 0h97.834666v228.266667H397.866667v-228.266667z m-130.474667 0H365.226667v228.266667H267.392v-228.266667z" fill="#1890ff" p-id="6611"></path></svg>