<?xml version="1.0" standalone="no"?><!DOCTYPE svg PUBLIC "-//W3C//DTD SVG 1.1//EN" "http://www.w3.org/Graphics/SVG/1.1/DTD/svg11.dtd"><svg t="1628435416116" class="icon" viewBox="0 0 1024 1024" version="1.1" xmlns="http://www.w3.org/2000/svg" p-id="4060" xmlns:xlink="http://www.w3.org/1999/xlink" width="200" height="200"><defs><style type="text/css"></style></defs><path d="M763.3408 389.4272h-29.952c0-2.7136 2.7136-5.4272 2.7136-8.192V237.0048A237.1072 237.1072 0 0 0 499.1488 0C368.4352 0 259.584 106.1888 259.584 236.9536v141.6192c0 2.7136 0 5.4272 2.7136 8.192h-5.4784c-98.048 0-179.712 81.664-179.712 179.712v38.144A419.584 419.584 0 0 0 496.4352 1024c231.4752 0 419.4304-187.904 422.144-419.3792v-59.904c0-84.48-70.8096-155.2896-155.2384-155.2896z m-435.712-10.8544V236.9536A169.6768 169.6768 0 0 1 496.384 68.096a169.6768 169.6768 0 0 1 168.8576 168.8576v141.6192c0 2.7136 0 5.4272 2.7136 8.192H327.5776v-8.192z m514.6624 226.048a347.5456 347.5456 0 0 1-348.5696 348.5696 347.5456 347.5456 0 0 1-348.6208-348.5696v-38.144c0-59.904 49.0496-108.9536 108.9536-108.9536v2.7136h503.808c46.336 0 87.1936 38.144 87.1936 87.1424v57.2416h-2.7648z" fill="#1890ff" p-id="4061"></path><path d="M496.4352 560.9984a36.0448 36.0448 0 0 0-35.3792 35.4304v152.5248c0 19.0464 16.3328 35.3792 35.3792 35.3792 19.0464 0 35.4304-16.3328 35.4304-35.3792v-152.576a36.0448 36.0448 0 0 0-35.4304-35.328z" fill="#1890ff" p-id="4062"></path></svg>
