<?xml version="1.0" standalone="no"?><!DOCTYPE svg PUBLIC "-//W3C//DTD SVG 1.1//EN" "http://www.w3.org/Graphics/SVG/1.1/DTD/svg11.dtd"><svg t="1620565583575" class="icon" viewBox="0 0 1024 1024" version="1.1" xmlns="http://www.w3.org/2000/svg" p-id="3623" data-spm-anchor-id="a313x.7781069.0.i2" xmlns:xlink="http://www.w3.org/1999/xlink" width="200" height="200"><defs><style type="text/css"></style></defs><path d="M902.17931 329.268966c-21.186207-50.317241-52.082759-96.22069-90.924138-135.062069s-84.744828-69.737931-135.062069-90.924138c-52.082759-22.068966-108.57931-33.544828-165.075862-33.544828-57.37931 0-112.993103 11.475862-165.075862 33.544828-50.317241 21.186207-96.22069 52.082759-135.062069 90.924138s-69.737931 84.744828-90.924138 135.062069c-22.068966 52.082759-33.544828 108.57931-33.544827 165.075862 0 57.37931 11.475862 112.993103 33.544827 165.075862 21.186207 50.317241 52.082759 96.22069 90.924138 135.062069s84.744828 69.737931 135.062069 90.924138c52.082759 22.068966 108.57931 33.544828 165.075862 33.544827 57.37931 0 112.993103-11.475862 165.075862-33.544827 50.317241-21.186207 96.22069-52.082759 135.062069-90.924138s69.737931-84.744828 90.924138-135.062069c22.068966-52.082759 33.544828-108.57931 33.544828-165.075862 0-57.37931-11.475862-112.993103-33.544828-165.075862z m-132.413793 422.841379c-68.855172 68.855172-160.662069 106.813793-257.765517 106.813793s-188.910345-37.958621-257.765517-106.813793-106.813793-160.662069-106.813793-257.765517 37.958621-188.910345 106.813793-257.765518c68.855172-68.855172 160.662069-106.813793 257.765517-106.813793s188.910345 37.958621 257.765517 106.813793c68.855172 68.855172 106.813793 160.662069 106.813793 257.765518s-37.958621 188.910345-106.813793 257.765517z m-67.089655-282.482759l-259.531034-164.193103c-19.42069-12.358621-45.02069 1.765517-45.02069 24.717241v327.503448c0 22.951724 25.6 37.075862 45.02069 24.717242l259.531034-164.193104c18.537931-10.593103 18.537931-37.075862 0-48.551724z" p-id="3624" fill="#1890ff"></path><path d="M902.17931 329.268966c-21.186207-50.317241-52.082759-96.22069-90.924138-135.062069s-84.744828-69.737931-135.062069-90.924138c-52.082759-22.068966-108.57931-33.544828-165.075862-33.544828-57.37931 0-112.993103 11.475862-165.075862 33.544828-50.317241 21.186207-96.22069 52.082759-135.062069 90.924138s-69.737931 84.744828-90.924138 135.062069c-22.068966 52.082759-33.544828 108.57931-33.544827 165.075862 0 57.37931 11.475862 112.993103 33.544827 165.075862 21.186207 50.317241 52.082759 96.22069 90.924138 135.062069s84.744828 69.737931 135.062069 90.924138c52.082759 22.068966 108.57931 33.544828 165.075862 33.544827 57.37931 0 112.993103-11.475862 165.075862-33.544827 50.317241-21.186207 96.22069-52.082759 135.062069-90.924138s69.737931-84.744828 90.924138-135.062069c22.068966-52.082759 33.544828-108.57931 33.544828-165.075862 0-57.37931-11.475862-112.993103-33.544828-165.075862z m-132.413793 422.841379c-68.855172 68.855172-160.662069 106.813793-257.765517 106.813793s-188.910345-37.958621-257.765517-106.813793-106.813793-160.662069-106.813793-257.765517 37.958621-188.910345 106.813793-257.765518c68.855172-68.855172 160.662069-106.813793 257.765517-106.813793s188.910345 37.958621 257.765517 106.813793c68.855172 68.855172 106.813793 160.662069 106.813793 257.765518s-37.958621 188.910345-106.813793 257.765517z m-67.089655-282.482759l-259.531034-164.193103c-19.42069-12.358621-45.02069 1.765517-45.02069 24.717241v327.503448c0 22.951724 25.6 37.075862 45.02069 24.717242l259.531034-164.193104c18.537931-10.593103 18.537931-37.075862 0-48.551724z" p-id="3625" fill="#1890ff"></path></svg>
