<?xml version="1.0" standalone="no"?><!DOCTYPE svg PUBLIC "-//W3C//DTD SVG 1.1//EN" "http://www.w3.org/Graphics/SVG/1.1/DTD/svg11.dtd"><svg t="1620403640270" class="icon" viewBox="0 0 1024 1024" version="1.1" xmlns="http://www.w3.org/2000/svg" p-id="3122" xmlns:xlink="http://www.w3.org/1999/xlink" width="200" height="200"><defs><style type="text/css"></style></defs><path d="M511.069091 936.96c-235.217455 0-425.890909-190.673455-425.890909-425.890909 0-235.217455 190.673455-425.890909 425.890909-425.890909 235.217455 0 425.890909 190.673455 425.890909 425.890909 0 235.217455-190.673455 425.890909-425.890909 425.890909z m0-85.178182c188.16 0 340.712727-152.552727 340.712727-340.712727S699.229091 170.356364 511.069091 170.356364 170.356364 322.909091 170.356364 511.069091 322.909091 851.781818 511.069091 851.781818z m-42.589091-212.945454h85.178182v85.178181h-85.178182v-85.178181z m85.178182-70.050909v27.461818h-85.178182v-63.883637c0-23.505455 19.083636-42.589091 42.589091-42.589091a63.883636 63.883636 0 1 0-62.650182-76.404363l-83.549091-16.756364a149.108364 149.108364 0 1 1 188.788364 172.171637z" fill="#1890ff" p-id="3123"></path></svg>
