<svg t="1620578570856" class="icon" viewBox="0 0 1024 1024" version="1.1" xmlns="http://www.w3.org/2000/svg" p-id="2836" width="200" height="200"><path d="M382.320274 405.357714v384a20.626286 20.626286 0 0 1-21.577143 21.284572H317.44256a20.626286 20.626286 0 0 1-21.577143-21.357715v-384a20.626286 20.626286 0 0 1 21.577143-21.284571h43.154286a20.626286 20.626286 0 0 1 21.577143 21.357714h0.073142z m172.909715 0v384a20.626286 20.626286 0 0 1-21.650286 21.284572h-43.154286a20.626286 20.626286 0 0 1-21.577143-21.357715v-384a20.626286 20.626286 0 0 1 21.577143-21.284571h43.154286a20.626286 20.626286 0 0 1 21.577143 21.357714z m172.909714 0v384a20.626286 20.626286 0 0 1-21.650286 21.284572h-43.154286a20.626286 20.626286 0 0 1-21.577142-21.357715l-0.073143-384a20.626286 20.626286 0 0 1 21.577143-21.284571h43.227428a20.626286 20.626286 0 0 1 21.577143 21.357714z m86.381714 482.669715V256H209.483703v631.954286a74.825143 74.825143 0 0 0 14.482286 45.056c3.364571 3.803429 5.778286 5.632 7.094857 5.632h561.883428c1.316571 0 3.657143-1.828571 7.094857-5.632a74.825143 74.825143 0 0 0 14.555429-44.982857zM360.743131 170.642286h302.518858l-32.402286-77.970286a19.017143 19.017143 0 0 0-11.483429-7.314286H405.287131a19.017143 19.017143 0 0 0-11.483428 7.314286l-33.060572 77.970286zM987.431131 192v42.642286a20.626286 20.626286 0 0 1-21.577142 21.357714h-64.877715v631.954286c0 36.937143-10.532571 68.754286-31.744 95.744-21.211429 26.843429-46.592 40.301714-76.288 40.301714H231.060846c-29.696 0-55.149714-13.019429-76.288-38.985143-21.211429-26.038857-31.744-57.490286-31.744-94.354286V256H58.151131A20.626286 20.626286 0 0 1 36.573989 234.642286v-42.642286a20.626286 20.626286 0 0 1 21.577142-21.357714h208.676572L314.151131 59.318857c6.729143-16.457143 18.870857-30.427429 36.425143-41.984 17.554286-11.556571 35.401143-17.334857 53.394286-17.334857h216.064c17.993143 0 35.84 5.778286 53.394286 17.334857 17.554286 11.556571 29.696 25.6 36.425143 41.984l47.323428 111.323429h208.676572a20.626286 20.626286 0 0 1 21.577142 21.357714z" fill="#1890ff" p-id="2837"></path></svg>
