<svg t="1620572496896" class="icon" viewBox="0 0 1024 1024" version="1.1" xmlns="http://www.w3.org/2000/svg" p-id="2686" width="200" height="200"><path d="M940.674221 722.822475a33.686012 33.686012 0 0 0-51.194548 12.645054 429.061505 429.061505 0 0 1-370.955693 210.921537 433.873792 433.873792 0 0 1-422.099047-326.365243l57.440283 58.515369a36.194545 36.194545 0 0 0 51.194548-51.194548l-140.682617-141.296952a41.723556 41.723556 0 0 0-38.4983-12.645053 40.597276 40.597276 0 0 0-25.597274 38.4983 513.327731 513.327731 0 0 0 511.945478 511.945477 523.0035 523.0035 0 0 0 441.041029-249.368642 37.627993 37.627993 0 0 0-12.081914-51.655299zM512.227051 0.006655a508.566638 508.566638 0 0 0-460.75093 287.866942 38.549494 38.549494 0 1 0 70.085335 32.150176 435.153656 435.153656 0 0 1 812.047917 83.29353l-70.085336-70.648476a36.194545 36.194545 0 0 0-51.194547 51.194548l147.030741 147.13313a47.866902 47.866902 0 0 0 25.597274 12.645053h13.361777a43.361782 43.361782 0 0 0 25.597274-38.4983A511.945478 511.945478 0 0 0 511.971078 0.05785z m0 230.375465a171.040984 171.040984 0 0 0-172.832794 166.587059v44.795229a61.433457 61.433457 0 0 0-51.194548 57.491477v210.870343A62.969294 62.969294 0 0 0 352.039311 767.924872h319.863534a57.286699 57.286699 0 0 0 57.440283-57.491477V499.563053a61.433457 61.433457 0 0 0-51.194548-57.491478V397.276346a164.744055 164.744055 0 0 0-165.972724-166.587058z m-108.532442 166.587059a102.389096 102.389096 0 0 1 108.532442-102.389096 106.484659 106.484659 0 0 1 108.532441 102.389096v44.795229h-217.064883v-44.795229zM665.554721 703.829298l-313.51541 6.348124V499.30708H665.554721v204.778191z m0 0" fill="#1890ff" p-id="2687"></path></svg>
