<?xml version="1.0" standalone="no"?><!DOCTYPE svg PUBLIC "-//W3C//DTD SVG 1.1//EN" "http://www.w3.org/Graphics/SVG/1.1/DTD/svg11.dtd"><svg t="1620567180128" class="icon" viewBox="0 0 1024 1024" version="1.1" xmlns="http://www.w3.org/2000/svg" p-id="2434" xmlns:xlink="http://www.w3.org/1999/xlink" width="200" height="200"><defs><style type="text/css"></style></defs><path d="M235.52 139.946667c10.24-20.48 37.546667-23.893333 51.2-6.826667l23.893333 30.72c47.786667-20.48 102.4-34.133333 157.013334-34.133333 211.626667 0 385.706667 170.666667 385.706666 385.706666s-170.666667 385.706667-385.706666 385.706667c-51.2 0-98.986667-10.24-146.773334-27.306667-20.48-10.24-30.72-34.133333-23.893333-54.613333s34.133333-30.72 54.613333-23.893333c34.133333 13.653333 75.093333 20.48 112.64 20.48 163.84 0 300.373333-133.12 300.373334-300.373334s-133.12-300.373333-300.373334-300.373333c-34.133333 0-68.266667 6.826667-102.4 17.066667l27.306667 34.133333c13.653333 17.066667 3.413333 44.373333-17.066667 47.786667L204.8 341.333333c-23.893333 3.413333-40.96-17.066667-30.72-40.96l61.44-160.426666z" fill="#1890ff" p-id="2435"></path></svg>