<svg t="1620578490626" class="icon" viewBox="0 0 1152 1024" version="1.1" xmlns="http://www.w3.org/2000/svg" p-id="2806" width="200" height="200"><path d="M576 288a221.88 221.88 0 0 0-62.48 10A110.8 110.8 0 0 1 528 352a112 112 0 0 1-112 112 110.8 110.8 0 0 1-54-14.48A223.42 223.42 0 1 0 576 288z m569.04 194.8C1036.58 271.18 821.86 128 576 128S115.36 271.28 6.96 482.82a64.7 64.7 0 0 0 0 58.38C115.42 752.82 330.14 896 576 896s460.64-143.28 569.04-354.82a64.7 64.7 0 0 0 0-58.38zM576 800c-197.3 0-378.18-110-475.86-288C197.82 334 378.68 224 576 224s378.18 110 475.86 288C954.2 690 773.32 800 576 800z" fill="#1890ff" p-id="2807"></path></svg>
