<?xml version="1.0" standalone="no"?><!DOCTYPE svg PUBLIC "-//W3C//DTD SVG 1.1//EN" "http://www.w3.org/Graphics/SVG/1.1/DTD/svg11.dtd"><svg t="1663824447364" class="icon" viewBox="0 0 1024 1024" version="1.1" xmlns="http://www.w3.org/2000/svg" p-id="2563" xmlns:xlink="http://www.w3.org/1999/xlink" width="200" height="200"><path d="M361.088 149.482667c0-59.093333 48.384-106.816 107.626667-106.816h86.570666c59.349333 0 107.626667 47.637333 107.626667 106.816v29.162666a368.213333 368.213333 0 0 1 67.050667 37.098667l25.429333-14.464c51.328-29.226667 117.013333-11.882667 146.752 38.869333l43.306667 73.898667c29.994667 51.2 12.16 116.693333-39.616 146.133333l-22.528 12.821334a361.6 361.6 0 0 1 0 77.994666l22.528 12.8c51.754667 29.44 69.610667 94.933333 39.594666 146.154667l-43.306666 73.898667c-29.717333 50.773333-95.402667 68.074667-146.730667 38.869333l-25.429333-14.464a368.213333 368.213333 0 0 1-67.050667 37.098667v29.162666c0 59.093333-48.384 106.816-107.626667 106.816h-86.570666c-59.349333 0-107.626667-47.637333-107.626667-106.816v-34.496a368.298667 368.298667 0 0 1-60.373333-35.562666l-32.106667 18.261333c-51.328 29.226667-117.013333 11.882667-146.752-38.869333l-43.306667-73.898667c-29.994667-51.2-12.16-116.693333 39.616-146.133333l33.898667-19.285334a362.090667 362.090667 0 0 1 0-65.066666l-33.898667-19.264c-51.754667-29.44-69.610667-94.933333-39.594666-146.154667l43.306666-73.898667c29.717333-50.773333 95.402667-68.074667 146.730667-38.869333l32.106667 18.261333a368.298667 368.298667 0 0 1 60.373333-35.562666V149.482667z m85.333333 62.890666a42.666667 42.666667 0 0 1-27.84 40 282.922667 282.922667 0 0 0-86.186666 50.773334 42.666667 42.666667 0 0 1-48.917334 4.757333l-57.066666-32.469333c-10.858667-6.186667-24.874667-2.474667-30.933334 7.850666l-43.285333 73.898667c-5.888 10.048-2.410667 22.826667 8.170667 28.842667l58.858666 33.493333a42.666667 42.666667 0 0 1 20.906667 44.522667 274.773333 274.773333 0 0 0 0 95.914666 42.666667 42.666667 0 0 1-20.906667 44.544l-58.858666 33.472c-10.581333 6.016-14.058667 18.794667-8.170667 28.842667l43.306667 73.898667c6.037333 10.325333 20.053333 14.016 30.933333 7.850666l57.045333-32.469333a42.666667 42.666667 0 0 1 48.917334 4.736 282.922667 282.922667 0 0 0 86.186666 50.773333 42.666667 42.666667 0 0 1 27.84 40.021334v62.890666c0 11.797333 9.813333 21.482667 22.293334 21.482667h86.570666c12.373333 0 22.293333-9.792 22.293334-21.482667v-58.709333a42.666667 42.666667 0 0 1 29.44-40.533333 282.88 282.88 0 0 0 92.373333-50.901334 42.666667 42.666667 0 0 1 48.298667-4.202666l49.898666 28.373333c10.858667 6.186667 24.874667 2.496 30.933334-7.829333l43.285333-73.898667c5.888-10.048 2.410667-22.826667-8.170667-28.842667l-48-27.306666a42.666667 42.666667 0 0 1-20.757333-45.376c3.434667-17.408 5.184-35.221333 5.184-53.290667 0-18.069333-1.749333-35.882667-5.184-53.290667a42.666667 42.666667 0 0 1 20.757333-45.376l48-27.306666c10.581333-6.016 14.058667-18.794667 8.170667-28.842667l-43.306667-73.898667c-6.037333-10.325333-20.053333-14.016-30.933333-7.850666l-49.877333 28.373333a42.666667 42.666667 0 0 1-48.277334-4.181333 282.88 282.88 0 0 0-92.416-50.88 42.666667 42.666667 0 0 1-29.418666-40.554667V149.482667c0-11.797333-9.813333-21.482667-22.293334-21.482667h-86.570666c-12.373333 0-22.293333 9.792-22.293334 21.482667v62.890666zM512 661.333333a149.333333 149.333333 0 1 1 0-298.666666 149.333333 149.333333 0 0 1 0 298.666666z m0-85.333333a64 64 0 1 0 0-128 64 64 0 0 0 0 128z" fill="#1890ff" p-id="2564"></path></svg>