<?xml version="1.0" standalone="no"?><!DOCTYPE svg PUBLIC "-//W3C//DTD SVG 1.1//EN" "http://www.w3.org/Graphics/SVG/1.1/DTD/svg11.dtd"><svg t="1618998692496" class="icon" viewBox="0 0 1024 1024" version="1.1" xmlns="http://www.w3.org/2000/svg" p-id="1492" xmlns:xlink="http://www.w3.org/1999/xlink" width="200" height="200"><defs><style type="text/css"></style></defs><path d="M512 64C229.2 64 0 250.2 0 480c0 99.2 42.8 190 114 261.4C89 842.2 5.4 932 4.4 933c-4.4 4.6-5.6 11.4-3 17.4 2.6 6 8.2 9.6 14.6 9.6 132.6 0 232-63.6 281.2-102.8 65.4 24.6 138 38.8 214.8 38.8 282.8 0 512-186.2 512-416S794.8 64 512 64zM256.4 608H232c-8.8 0-16-7.2-16-16v-32c0-8.8 7.2-16 16-16h24.6c12 0 20.8-7 20.8-13.2 0-2.6-1.6-5.4-4.2-7.6l-43.8-37.6c-17-14.4-26.6-35-26.6-56.2 0-42.6 38-77.2 84.8-77.2H312c8.8 0 16 7.2 16 16v32c0 8.8-7.2 16-16 16h-24.6c-12 0-20.8 7-20.8 13.2 0 2.6 1.6 5.4 4.2 7.6l43.8 37.6c17 14.4 26.6 35 26.6 56.2 0.2 42.6-38 77.2-84.8 77.2z m383.6-16c0 8.8-7.2 16-16 16h-32c-8.8 0-16-7.2-16-16v-136.4l-49.6 111.6c-5.8 11.8-22.8 11.8-28.6 0L448 455.6V592c0 8.8-7.2 16-16 16h-32c-8.8 0-16-7.2-16-16V384c0-17.6 14.4-32 32-32h32c12.2 0 23.2 6.8 28.6 17.6l35.4 70.8 35.4-70.8c5.4-10.8 16.6-17.6 28.6-17.6h32c17.6 0 32 14.4 32 32v208z m96.6 16H712c-8.8 0-16-7.2-16-16v-32c0-8.8 7.2-16 16-16h24.6c12 0 20.8-7 20.8-13.2 0-2.6-1.6-5.4-4.2-7.6l-43.8-37.6c-17-14.4-26.6-35-26.6-56.2 0-42.6 38-77.2 84.8-77.2H792c8.8 0 16 7.2 16 16v32c0 8.8-7.2 16-16 16h-24.6c-12 0-20.8 7-20.8 13.2 0 2.6 1.6 5.4 4.2 7.6l43.8 37.6c17 14.4 26.6 35 26.6 56.2 0.2 42.6-37.8 77.2-84.6 77.2z" fill="#1890ff" p-id="1493"></path></svg>
