<?xml version="1.0" standalone="no"?><!DOCTYPE svg PUBLIC "-//W3C//DTD SVG 1.1//EN" "http://www.w3.org/Graphics/SVG/1.1/DTD/svg11.dtd"><svg t="1615702634409" class="icon" viewBox="0 0 1448 1024" version="1.1" xmlns="http://www.w3.org/2000/svg" p-id="7909" xmlns:xlink="http://www.w3.org/1999/xlink" width="282.8125" height="200"><defs><style type="text/css"></style></defs><path d="M308.775702 528.152668l47.30547-38.274426s-22.362586-45.155221-77.839-45.155221c-31.82368 0-59.346862 14.191641-80.419299 39.134525s-18.922188 58.916812-18.922188 64.937508c0 0 5.590646 19.782287 13.761592 30.963581s60.206961 65.367558 70.528154 76.118801c0 0 11.611343 30.96358-2.580298 42.144873s-27.093133 14.621691-39.994624 14.62169c0 0-34.834028-9.891144-34.834028-42.574922l-56.336514 30.53353s8.600994 63.21731 81.279398 63.21731 87.300094-35.694127 87.300094-35.694127 27.523182-27.523182 27.523182-66.657708c0 0 8.170945-32.683779-39.564574-79.129149 0 0-47.735519-36.984276-47.73552-62.78726 0 0 5.160597-27.523182 32.25373-22.362586s38.274425 30.96358 38.274425 30.963581zM479.935493 525.715146s-100.918909-6.880796-127.867545 96.905685C333.718586 694.869184 323.397393 827.037226 323.397393 827.037226h49.885768l9.461094-85.149845s72.535627 52.178793 155.734767-12.423277c37.787609-40.902889 39.110442-62.993684 45.241231-85.055234 5.735143-40.137401-12.614219-115.826152-103.78476-118.693724zM459.293106 710.923801c-32.94869 0-62.549872-26.89359-62.549873-62.897353 0-36.007203 41.642575-71.278162 74.591265-71.278161s61.354334 27.640156 61.354334 63.647359c0 36.005483-40.447037 70.528155-73.395726 70.528155zM827.41567 755.648972h-47.30547l11.181293-95.471039s6.020696-85.149845-58.486762-85.149845-75.688752 68.807956-75.688752 68.807956-2.867572 57.33939 44.152345 67.660583 70.528155-24.655611 70.528155-24.655611l-10.321193 61.354334s-64.221906 40.135681-129.014918-17.776535c0 0-26.950356-24.081064-26.950356-78.554603 0 0-2.867572-50.460314 48.165569-93.465287s97.478511-32.77839 97.478511-32.77839 62.499987-0.478215 92.316194 78.650934c2.294745 22.362586 0 39.566295 0 45.872544S827.41567 755.648972 827.41567 755.648972z" fill="#414042" p-id="7910"></path><path d="M982.806397 532.310388l-6.020696 48.16557h-32.969332s-13.763311 2.865851-17.776536 16.054616L903.964521 755.076146H854.938852l18.634915-157.685473s-1.147373-22.937132 22.362586-46.44537c0 0 16.629163-18.062088 34.691251-18.634915h52.178793zM1016.207499 492.88859l-35.264077 262.187556h55.046364l17.201989-120.271147L1137.051472 755.076146h64.077409l-104.072034-144.353931 63.647359-69.238006-9.461094-54.616315-91.170541 100.201586 15.05174-135.895713z" fill="#414042" p-id="7911"></path><path d="M1168.015052 489.018143l82.139497 22.981857-49.025668-96.52036 74.398602-91.170542-111.382879 26.663083-54.616315-90.310442-21.932536 112.673028-110.952829 37.844376 81.709448 35.264077L1002.875958 483.857546l-65.797608-27.953232s-36.124177-16.34189-36.124177-44.725171 36.984276-38.274425 36.984276-38.274426L1047.601129 338.788012l18.349362-106.652331s8.600994-42.432146 37.844375-42.432147 41.284774 33.831152 56.193738 56.193738L1190.377637 296.930413l108.947077-28.670555s89.450343-18.922188 36.124177 57.339389l-77.40895 90.597716 45.870824 89.450342s35.54963 72.8229-48.165569 63.074533l-79.12915-25.230157-8.600994-54.473538z" fill="#E16A1A" p-id="7912"></path></svg>