<?xml version="1.0" standalone="no"?><!DOCTYPE svg PUBLIC "-//W3C//DTD SVG 1.1//EN" "http://www.w3.org/Graphics/SVG/1.1/DTD/svg11.dtd"><svg t="1619083522059" class="icon" viewBox="0 0 1024 1024" version="1.1" xmlns="http://www.w3.org/2000/svg" p-id="1818" xmlns:xlink="http://www.w3.org/1999/xlink" width="200" height="200"><defs><style type="text/css"></style></defs><path d="M512 1024l-10.808889-4.209778C153.941333 884.849778 113.777778 708.456296 113.777778 587.510519V125.610667l30.985481 1.024c241.398519 8.305778 344.177778-101.262222 345.125926-102.324148L512.037926 0l22.072889 24.310519c0.796444 0.910222 98.228148 102.779259 319.374222 102.779259h0.037926c8.419556 0 16.990815-0.113778 25.713778-0.455111L910.222222 125.610667v461.899852c0 120.945778-40.163556 297.339259-387.413333 432.279703L512 1024zM173.700741 187.354074v400.156445c0 65.042963 0.037926 236.73363 338.299259 371.825777 338.299259-135.092148 338.299259-306.782815 338.299259-371.825777V187.354074c-187.354074-0.720593-295.10163-67.735704-338.299259-102.362074-43.235556 34.588444-150.983111 101.56563-338.299259 102.362074z" fill="#1890ff" p-id="1819"></path><path d="M791.74163 606.814815h-134.674963V377.325037h48.886518v189.477926h85.788445V606.814815z m-196.645926-13.349926c-15.587556 11.567407-37.774222 17.332148-66.484148 17.332148-26.282667 0-47.786667-4.209778-64.625778-12.705185v-49.038222a96.218074 96.218074 0 0 0 62.994963 22.945185c13.312 0 23.36237-2.313481 30.075259-6.902519 6.712889-4.589037 10.05037-10.467556 10.05037-17.673481 0-6.219852-2.654815-12.09837-8.00237-17.635556-5.30963-5.537185-19.418074-13.046519-42.211556-22.528-35.84-15.208296-53.778963-37.319111-53.778963-66.37037 0-21.31437 8.154074-37.925926 24.386371-49.720889 16.232296-11.794963 37.774222-17.673481 64.512-17.673481 22.452148 0 41.263407 2.88237 56.433778 8.722962v45.928297c-15.397926-10.467556-33.412741-15.701333-54.082371-15.701334-12.022519 0-21.655704 2.199704-28.899555 6.599112-7.168 4.399407-10.808889 10.277926-10.808889 17.711407 0 5.916444 2.503111 11.377778 7.433481 16.346074 4.968296 5.006222 17.142519 11.719111 36.560593 20.214519 22.831407 9.784889 38.532741 20.100741 47.066074 30.985481 8.533333 10.846815 12.818963 23.779556 12.818963 38.798222 0 22.034963-7.774815 38.836148-23.438222 50.36563z m-182.499556 0c-15.587556 11.567407-37.774222 17.332148-66.522074 17.332148-26.244741 0-47.824593-4.209778-64.587852-12.705185v-49.038222c18.469926 15.284148 39.442963 22.945185 62.957037 22.945185 13.349926 0 23.36237-2.313481 30.07526-6.902519 6.712889-4.589037 10.088296-10.467556 10.088296-17.673481 0-6.219852-2.692741-12.09837-8.002371-17.635556-5.347556-5.537185-19.418074-13.046519-42.249481-22.528-35.84-15.208296-53.778963-37.319111-53.778963-66.37037 0-21.31437 8.116148-37.925926 24.38637-49.720889 16.270222-11.794963 37.736296-17.673481 64.512-17.673481 22.414222 0 41.225481 2.88237 56.433778 8.722962v45.928297c-15.397926-10.467556-33.412741-15.701333-54.044444-15.701334-12.060444 0-21.69363 2.199704-28.899556 6.599112-7.205926 4.399407-10.808889 10.277926-10.808889 17.711407 0 5.916444 2.465185 11.377778 7.395556 16.346074 4.93037 5.006222 17.142519 11.719111 36.598518 20.214519 22.831407 9.784889 38.494815 20.100741 47.028148 30.985481a60.681481 60.681481 0 0 1 12.818963 38.798222c0 22.034963-7.812741 38.836148-23.400296 50.36563zM986.074074 265.481481a2396.16 2396.16 0 0 1-474.074074 47.748741A2396.16 2396.16 0 0 1 37.925926 265.481481c39.025778 105.66163 58.55763 187.847111 58.55763 246.518519 0 58.671407-19.531852 140.856889-58.55763 246.518519 209.464889-36.522667 367.502222-54.765037 474.074074-54.765038 106.571852 0 264.609185 18.24237 474.074074 54.765038-51.124148-106.989037-76.648296-189.174519-76.648296-246.518519 0-57.344 25.524148-139.529481 76.648296-246.518519z" fill="#1890ff" p-id="1820"></path></svg>
