<?xml version="1.0" standalone="no"?><!DOCTYPE svg PUBLIC "-//W3C//DTD SVG 1.1//EN" "http://www.w3.org/Graphics/SVG/1.1/DTD/svg11.dtd"><svg t="1615699771787" class="icon" viewBox="0 0 1109 1024" version="1.1" xmlns="http://www.w3.org/2000/svg" p-id="2604" xmlns:xlink="http://www.w3.org/1999/xlink" width="216.6015625" height="200"><defs><style type="text/css"></style></defs><path d="M251.136 160.725333a92.458667 92.458667 0 1 1 0-73.984h262.613333l184.874667 184.917334h85.589333a92.458667 92.458667 0 1 1 0 73.941333h-116.224l-184.917333-184.874667zM425.258667 364.074667a92.458667 92.458667 0 1 1-84.736 129.450666H214.144a92.458667 92.458667 0 1 1 0-73.984h126.378667a92.458667 92.458667 0 0 1 84.736-55.466666z" fill="#1890ff" p-id="2605"></path><path d="M758.058667 900.266667m-92.458667 0a92.458667 92.458667 0 1 0 184.917333 0 92.458667 92.458667 0 1 0-184.917333 0Z" fill="#1890ff" p-id="2606"></path><path d="M979.925333 438.058667A92.458667 92.458667 0 1 1 895.146667 567.466667h-215.893334L383.573333 863.274667h-169.386666a92.458667 92.458667 0 1 1 0-73.941334h138.666666l295.893334-295.808h246.485333a92.458667 92.458667 0 0 1 84.736-55.466666z" fill="#1890ff" p-id="2607"></path></svg>
