<?xml version="1.0" standalone="no"?><!DOCTYPE svg PUBLIC "-//W3C//DTD SVG 1.1//EN" "http://www.w3.org/Graphics/SVG/1.1/DTD/svg11.dtd"><svg t="1658113332145" class="icon" viewBox="0 0 1024 1024" version="1.1" xmlns="http://www.w3.org/2000/svg" p-id="34238" xmlns:xlink="http://www.w3.org/1999/xlink" width="200" height="200"><defs><style type="text/css">@font-face { font-family: feedback-iconfont; src: url("//at.alicdn.com/t/font_1031158_u69w8yhxdu.woff2?t=1630033759944") format("woff2"), url("//at.alicdn.com/t/font_1031158_u69w8yhxdu.woff?t=1630033759944") format("woff"), url("//at.alicdn.com/t/font_1031158_u69w8yhxdu.ttf?t=1630033759944") format("truetype"); }
</style></defs><path d="M544 288c0-17.6-14.4-32-32-32s-32 14.4-32 32v256c0 17.6 14.4 32 32 32s32-14.4 32-32V288z" fill="#FFB243" p-id="34239"></path><path d="M512 672m-32 0a32 32 0 1 0 64 0 32 32 0 1 0-64 0Z" fill="#FFB243" p-id="34240"></path><path d="M896 832H204.8l41.6-41.6c6.4-6.4 9.6-14.4 9.6-22.4V384c0-140.8 115.2-256 256-256s256 115.2 256 256v352c0 17.6 14.4 32 32 32s32-14.4 32-32V384c0-166.4-126.4-302.4-288-318.4V32c0-17.6-14.4-32-32-32s-32 14.4-32 32v33.6c-161.6 16-288 152-288 318.4v371.2l-86.4 86.4c-9.6 9.6-12.8 22.4-6.4 35.2 4.8 11.2 16 19.2 28.8 19.2h227.2c14.4 73.6 80 128 156.8 128s142.4-54.4 156.8-128H896c17.6 0 32-14.4 32-32s-14.4-32-32-32z m-384 128c-41.6 0-76.8-27.2-89.6-64h180.8c-14.4 36.8-49.6 64-91.2 64z" fill="#211B13" p-id="34241"></path></svg>