<?xml version="1.0" standalone="no"?><!DOCTYPE svg PUBLIC "-//W3C//DTD SVG 1.1//EN" "http://www.w3.org/Graphics/SVG/1.1/DTD/svg11.dtd"><svg t="1618898953312" class="icon" viewBox="0 0 1024 1024" version="1.1" xmlns="http://www.w3.org/2000/svg" p-id="1134" xmlns:xlink="http://www.w3.org/1999/xlink" width="200" height="200"><defs><style type="text/css"></style></defs><path d="M395.904 128a32 32 0 0 1 32 32v64h567.616c15.744 0 28.48 12.8 28.48 28.48v7.04c0 15.744-12.8 28.48-28.48 28.48H427.904v64a32 32 0 0 1-32 32h-192a32 32 0 0 1-32-32v-64H28.544A28.48 28.48 0 0 1 0 259.52v-7.04C0 236.8 12.8 224 28.48 224h143.424v-64a32 32 0 0 1 32-32h192z m-44.8 64h-102.4a12.8 12.8 0 0 0-12.8 12.8v102.4c0 7.04 5.76 12.8 12.8 12.8h102.4a12.8 12.8 0 0 0 12.8-12.8V204.8a12.8 12.8 0 0 0-12.8-12.8zM395.904 638.208a32 32 0 0 1 32 32v64h567.616c15.744 0 28.48 12.8 28.48 28.544v6.976c0 15.744-12.8 28.48-28.48 28.48H427.904v64a32 32 0 0 1-32 32h-192a32 32 0 0 1-32-32v-64H28.544A28.48 28.48 0 0 1 0 769.728v-7.04c0-15.68 12.8-28.48 28.48-28.48h143.424v-64a32 32 0 0 1 32-32h192z m-44.8 64h-102.4a12.8 12.8 0 0 0-12.8 12.8v102.4c0 7.04 5.76 12.8 12.8 12.8h102.4a12.8 12.8 0 0 0 12.8-12.8v-102.4a12.8 12.8 0 0 0-12.8-12.8zM821.376 383.104a32 32 0 0 1 32 32v64h142.08c15.808 0 28.544 12.8 28.544 28.544v6.976c0 15.744-12.8 28.48-28.48 28.48h-142.144v64a32 32 0 0 1-32 32h-192a32 32 0 0 1-32-32v-64H28.48A28.48 28.48 0 0 1 0 514.624v-7.04c0-15.68 12.8-28.48 28.48-28.48h568.896v-64a32 32 0 0 1 32-32h192z m-42.944 64h-102.4a12.8 12.8 0 0 0-12.8 12.8v102.4c0 7.04 5.76 12.8 12.8 12.8h102.4a12.8 12.8 0 0 0 12.8-12.8v-102.4a12.8 12.8 0 0 0-12.8-12.8z" fill="#1890ff" p-id="1135"></path></svg>