<?xml version="1.0" standalone="no"?><!DOCTYPE svg PUBLIC "-//W3C//DTD SVG 1.1//EN" "http://www.w3.org/Graphics/SVG/1.1/DTD/svg11.dtd"><svg t="1620567349845" class="icon" viewBox="0 0 1024 1024" version="1.1" xmlns="http://www.w3.org/2000/svg" p-id="5581" xmlns:xlink="http://www.w3.org/1999/xlink" width="200" height="200"><defs><style type="text/css"></style></defs><path d="M662.63 545.37l-128-128a32 32 0 0 0-45.25 0l-128 128a32 32 0 1 0 45.25 45.25L480 517.25V872a32 32 0 0 0 64 0V517.25l73.37 73.37a32 32 0 1 0 45.25-45.25z" fill="#148AFF" p-id="5582"></path><path d="M752 760H640a32 32 0 0 1 0-64h112c79.4 0 144-64.6 144-144a144 144 0 0 0-132.45-143.54 32 32 0 0 1-29.24-28C720.6 268.46 625 184 512 184s-208.6 84.46-222.31 196.45a32 32 0 0 1-29.24 28A144 144 0 0 0 128 552c0 79.4 64.6 144 144 144h112a32 32 0 0 1 0 64H272c-114.69 0-208-93.31-208-208a208.08 208.08 0 0 1 166.23-203.79C258 216.5 375 120 512 120s254 96.5 281.77 228.21A208.08 208.08 0 0 1 960 552c0 114.69-93.31 208-208 208z" fill="#148AFF" p-id="5583"></path></svg>