<?xml version="1.0" standalone="no"?><!DOCTYPE svg PUBLIC "-//W3C//DTD SVG 1.1//EN" "http://www.w3.org/Graphics/SVG/1.1/DTD/svg11.dtd"><svg t="1618998703919" class="icon" viewBox="0 0 1024 1024" version="1.1" xmlns="http://www.w3.org/2000/svg" p-id="1636" xmlns:xlink="http://www.w3.org/1999/xlink" width="200" height="200"><defs><style type="text/css"></style></defs><path d="M384.042667 625.109333a30.421333 30.421333 0 0 1-14.08 3.456 31.146667 31.146667 0 0 1-27.306667-16.469333l-2.048-4.650667L255.189333 414.293333a17.066667 17.066667 0 0 1-1.493333-6.826666c0-8.874667 6.997333-16.085333 15.616-16.085334 3.541333 0 6.784 1.194667 9.386667 3.2l100.821333 73.941334a45.653333 45.653333 0 0 0 41.685333 4.949333L895.36 256C810.368 152.789333 670.421333 85.333333 512 85.333333 252.8 85.333333 42.666667 265.728 42.666667 488.32c0 121.429333 63.232 230.741333 162.133333 304.64a32.512 32.512 0 0 1 11.52 36.522667l-21.162667 81.28c-0.981333 3.84-2.517333 7.808-2.517333 11.776 0 8.917333 6.997333 16.128 15.658667 16.128 3.413333 0 6.144-1.28 9.045333-2.986667l102.741333-61.141333c7.722667-4.608 15.914667-7.424 24.917334-7.424 4.778667 0 9.429333 0.725333 13.781333 2.133333a540.16 540.16 0 0 0 153.216 22.101333c259.2 0 469.333333-180.48 469.333333-403.029333 0-67.413333-19.370667-130.901333-53.461333-186.752L387.456 623.061333l-3.413333 2.048z" fill="#09BB07" p-id="1637"></path></svg>