<?xml version="1.0" standalone="no"?><!DOCTYPE svg PUBLIC "-//W3C//DTD SVG 1.1//EN" "http://www.w3.org/Graphics/SVG/1.1/DTD/svg11.dtd"><svg t="1656160248627" class="icon" viewBox="0 0 1024 1024" version="1.1" xmlns="http://www.w3.org/2000/svg" p-id="704" xmlns:xlink="http://www.w3.org/1999/xlink" width="200" height="200"><defs><style type="text/css">@font-face { font-family: feedback-iconfont; src: url("//at.alicdn.com/t/font_1031158_u69w8yhxdu.woff2?t=1630033759944") format("woff2"), url("//at.alicdn.com/t/font_1031158_u69w8yhxdu.woff?t=1630033759944") format("woff"), url("//at.alicdn.com/t/font_1031158_u69w8yhxdu.ttf?t=1630033759944") format("truetype"); }
</style></defs><path d="M512 2c281.7 0 510 228.3 510 510s-228.3 510-510 510S2 793.7 2 512 230.3 2 512 2z m159.8 680.3c-4 3.9-4 10.2-0.2 14.1 0.4 0.5 0.9 0.9 1.5 1.2 22.1 20.4 36.4 47.9 40.4 77.7 6.2 22.4 29.7 35.7 52.4 29.5 22.5-5.9 35.9-28.9 30-51.3 0-0.1-0.1-0.2-0.1-0.4-4.7-16.8-19.3-29.1-36.7-30.8-28-5.1-53.5-19.2-72.8-40.1-4.1-3.8-10.5-3.8-14.5 0.1z m-225.7-483c-76.4 8.3-145.8 40.6-195.6 91-19.4 19.4-35.5 41.8-47.8 66.3-37.7 74.9-31.4 164.4 16.5 233.2 13.5 20.2 35.8 45.4 56.1 63.3l-9.2 71.3-1 3c-0.3 0.9-0.3 1.9-0.4 2.8l-0.2 2.3 0.2 2.3c1.2 12.7 12.5 22 25.2 20.9 3.5-0.3 6.8-1.4 9.8-3.1h0.4l1.4-1 22-10.8 65.5-32.5c31.1 8.8 63.4 13.2 95.8 13 40 0.1 79.8-6.7 117.5-20.2-18.8-6-30.9-24.3-29-44-39 12.4-80.2 16.4-120.8 11.9l-6.5-0.9c-14.7-1.9-29.2-4.9-43.4-8.9-7.8-2.4-16.1-1.5-23.3 2.4l-1.8 0.9-53.9 31.3-2.3 1.4c-1.3 0.7-1.9 1-2.6 1-2-0.1-3.5-1.8-3.4-3.8l2-8.2 2.4-8.9 3.9-14.7 4.5-16.4c3-9.2-0.3-19.2-8.2-24.8-21.1-15.5-39.5-34.4-54.4-56-37.9-54.2-43-124.8-13.3-183.8 9.9-19.5 22.9-37.4 38.4-52.9 40.9-41.6 98.3-68.1 161.9-74.9 22-2.4 44.2-2.4 66.2 0 63.2 7.2 120.4 34 161.1 75.4 15.4 15.7 28.2 33.6 37.9 53.2 12.5 24.8 19 52.3 19.1 80.1 0 2.9-0.3 5.8-0.4 8.6 16.8-10.2 38.4-7.7 52.4 6.1l1.9 2.3c3.3-41.2-4.8-82.5-23.3-119.5-12.1-24.5-28.1-46.8-47.3-66.3-52.5-52-121.4-84.3-194.9-91.7-26.4-3.4-52.9-3.5-79.1-0.7z m418.2 405.4c-7.2 1.9-13.8 5.7-19.2 11h-0.1c-6.9 6.8-11.2 15.7-12.2 25.3-5.2 27.8-19.5 53.1-40.5 72-4 3.8-4.1 10.1-0.3 14.1l0.1 0.1c4 4 10.5 4.1 14.6 0.1 0.5-0.5 0.9-0.9 1.2-1.5 20.9-21.9 48.7-36 78.7-39.8 22.8-6.1 36.2-29.2 30.1-51.6-6.2-22.5-29.6-35.8-52.4-29.7z m-160.4-42l-0.7 0.7c-20.9 22.7-49.2 37.3-79.9 41.2-22.6 5.9-36.2 28.7-30.2 51.1 1.9 7.3 5.9 14 11.3 19.3 16.7 16.4 43.7 16.4 60.4-0.1 6.8-6.8 11.1-15.7 12.2-25.2 5.3-27.8 19.6-53.1 40.7-72 4.1-3.7 4.5-10 0.9-14.1l-0.1-0.1c-4-4.2-10.4-4.5-14.6-0.8z m39.6-76.6c-7.1 1.9-13.6 5.7-18.7 10.8-16.4 16.2-16.6 42.6-0.4 59l0.5 0.5c6.9 6.8 15.9 11 25.5 12.1 28 5.1 53.6 19.1 72.9 39.9 4 4 10.4 4 14.4 0.1 4-3.8 4.1-10.1 0.3-14.1-0.5-0.5-1.1-1-1.7-1.4-22.1-20.4-36.4-47.8-40.4-77.6-6.1-22.4-29.6-35.5-52.4-29.3z" fill="#1890ff" p-id="705"></path></svg>
