<svg width="46" height="60" viewBox="0 0 46 60" fill="none" xmlns="http://www.w3.org/2000/svg">
<path d="M21.3392 59.9998H20.3602V17.8319L15.9545 13.9861V9.93011H16.9335V13.5661L21.3392 17.4124V59.9998Z" fill="white"/>
<path d="M16.9337 59.9996H15.9547V20.0695L11.549 16.1535V7.69171H12.528V15.7339L16.9337 19.5797V59.9996Z" fill="white"/>
<path d="M26.5838 60.0001H25.1151V16.2238L28.9613 12.3775V9.37079H30.4296V12.9371L26.5838 16.8531V60.0001Z" fill="white"/>
<path d="M30.71 60.0001H29.731V19.0909L33.5772 15.2446V8.25159H34.5562V15.5944L30.71 19.4407V60.0001Z" fill="white"/>
<path d="M16.3044 22.9368L16.6541 23.2861L16.3044 22.9368Z" fill="white"/>
<path d="M30.0104 20.4891L30.4299 20.2096L30.0104 20.4891Z" fill="white"/>
<path d="M25.6049 43.0771L26.0244 42.7975L25.6049 43.0771Z" fill="white"/>
<path d="M15.2554 0H17.7032V10.4895H15.2554V0Z" fill="white"/>
<path d="M10.8497 0H13.2975V10.4895H10.8497V0Z" fill="white"/>
<path d="M28.4721 0H30.9199V10.4895H28.4721V0Z" fill="white"/>
<path d="M32.8778 0H35.3256V10.4895H32.8778V0Z" fill="white"/>
<path d="M3.22717 18.2512H7.77239V22.7964H3.22717V18.2512Z" fill="white"/>
<path d="M0.5 42.2377H5.04521V46.7829H0.5V42.2377Z" fill="white"/>
<path d="M38.4722 19.2309H43.0174V23.7761H38.4722V19.2309Z" fill="white"/>
<path d="M36.0944 46.3635H40.6396V50.9087H36.0944V46.3635Z" fill="white"/>
<path d="M11.3391 36.1534H12.7376V37.5519H11.3391V36.1534Z" fill="white"/>
<path d="M8.05255 39.1611H9.45103V40.5596H8.05255V39.1611Z" fill="white"/>
<path d="M0.98938 25.4546H2.38786V26.8531H0.98938V25.4546Z" fill="white"/>
<path d="M33.3672 31.2584H34.7657V32.6568H33.3672V31.2584Z" fill="white"/>
<path d="M42.668 26.0139H44.0665V27.4124H42.668V26.0139Z" fill="white"/>
<path d="M31.9686 45.3848H33.367V46.7832H31.9686V45.3848Z" fill="white"/>
<path d="M7.98254 28.0413H10.9196V30.9784H7.98254V28.0413Z" fill="white"/>
<path d="M7.14331 48.3214H10.0804V51.2585H7.14331V48.3214Z" fill="white"/>
<path d="M33.0175 22.6574H35.9546V25.5945H33.0175V22.6574Z" fill="white"/>
<path d="M39.4511 31.6083H42.3882V34.5453H39.4511V31.6083Z" fill="white"/>
<path d="M35.3951 37.832H38.3321V40.769H35.3951V37.832Z" fill="white"/>
<path d="M42.8779 41.7478H45.815V44.6849H42.8779V41.7478Z" fill="white"/>
<path d="M3.01752 34.1955H5.95459V37.1326H3.01752V34.1955Z" fill="white"/>
<path d="M11.3391 40.4897H14.2762V43.4268H11.3391V40.4897Z" fill="white"/>
</svg>
