<svg width="101" height="100" viewBox="0 0 101 100" fill="none" xmlns="http://www.w3.org/2000/svg">
<circle cx="50.5" cy="50" r="48.5" fill="#29557A" stroke="#CEEEF7" stroke-width="3"/>
<path d="M48.3392 79.9998H47.3602V37.8319L42.9545 33.9861V29.9301H43.9335V33.5661L48.3392 37.4124V79.9998Z" fill="white"/>
<path d="M43.9337 79.9997H42.9547V40.0695L38.549 36.1535V27.6917H39.528V35.734L43.9337 39.5798V79.9997Z" fill="white"/>
<path d="M53.5838 80.0001H52.1151V36.2238L55.9613 32.3775V29.3708H57.4296V32.9371L53.5838 36.853V80.0001Z" fill="white"/>
<path d="M57.71 80.0001H56.731V39.0909L60.5772 35.2446V28.2516H61.5562V35.5944L57.71 39.4407V80.0001Z" fill="white"/>
<path d="M43.3044 42.9368L43.6541 43.2861Z" fill="white"/>
<path d="M57.0104 40.4891L57.4299 40.2096Z" fill="white"/>
<path d="M52.6049 63.077L53.0244 62.7975Z" fill="white"/>
<path d="M42.2554 20H44.7032V30.4895H42.2554V20Z" fill="white"/>
<path d="M37.8497 20H40.2975V30.4895H37.8497V20Z" fill="white"/>
<path d="M55.4721 20H57.9199V30.4895H55.4721V20Z" fill="white"/>
<path d="M59.8778 20H62.3256V30.4895H59.8778V20Z" fill="white"/>
<path d="M30.2272 38.2512H34.7724V42.7964H30.2272V38.2512Z" fill="white"/>
<path d="M27.5 62.2377H32.0452V66.7829H27.5V62.2377Z" fill="white"/>
<path d="M65.4722 39.2309H70.0174V43.7761H65.4722V39.2309Z" fill="white"/>
<path d="M63.0944 66.3635H67.6396V70.9087H63.0944V66.3635Z" fill="white"/>
<path d="M38.3391 56.1534H39.7376V57.5519H38.3391V56.1534Z" fill="white"/>
<path d="M35.0526 59.1611H36.451V60.5596H35.0526V59.1611Z" fill="white"/>
<path d="M27.9894 45.4546H29.3879V46.853H27.9894V45.4546Z" fill="white"/>
<path d="M60.3672 51.2584H61.7657V52.6568H60.3672V51.2584Z" fill="white"/>
<path d="M69.668 46.0139H71.0665V47.4124H69.668V46.0139Z" fill="white"/>
<path d="M58.9686 65.3848H60.367V66.7832H58.9686V65.3848Z" fill="white"/>
<path d="M34.9825 48.0413H37.9196V50.9784H34.9825V48.0413Z" fill="white"/>
<path d="M34.1433 68.3214H37.0804V71.2584H34.1433V68.3214Z" fill="white"/>
<path d="M60.0175 42.6574H62.9546V45.5944H60.0175V42.6574Z" fill="white"/>
<path d="M66.4511 51.6083H69.3882V54.5453H66.4511V51.6083Z" fill="white"/>
<path d="M62.3951 57.832H65.3321V60.769H62.3951V57.832Z" fill="white"/>
<path d="M69.8779 61.7478H72.815V64.6849H69.8779V61.7478Z" fill="white"/>
<path d="M30.0175 54.1955H32.9546V57.1326H30.0175V54.1955Z" fill="white"/>
<path d="M38.3391 60.4897H41.2762V63.4268H38.3391V60.4897Z" fill="white"/>
</svg>
