<svg width="53" height="58" viewBox="0 0 53 58" fill="none" xmlns="http://www.w3.org/2000/svg">
<path d="M26.5 50.9458C26.9076 50.9728 27.2829 51.1771 27.5269 51.5049C27.8977 52.0099 28.0978 52.6202 28.0978 53.2468C28.0978 53.8734 27.8977 54.4837 27.5269 54.9887C27.3026 55.339 26.9158 55.5506 26.5 55.5506C26.0841 55.5506 25.6974 55.339 25.4731 54.9887C25.1023 54.4836 24.9021 53.8734 24.9021 53.2468C24.9021 52.6202 25.1023 52.0099 25.4731 51.5049C25.717 51.1771 26.0923 50.9728 26.5 50.9458ZM26.5 49.4605C24.7949 49.4605 23.4198 51.1566 23.4198 53.2468C23.4198 55.337 24.7949 57.0331 26.5 57.0331C28.205 57.0331 29.5802 55.337 29.5802 53.2468C29.5802 51.1566 28.205 49.479 26.5 49.479V49.4605Z" fill="white"/>
<path d="M33.7055 44.6107V38.5229H30.8176V40.0083H31.8903V44.6107H30.5336V46.0955H35.0627V44.6107H33.7055Z" fill="white"/>
<path d="M20.9992 40.0083C21.4068 40.0349 21.7821 40.2395 22.0261 40.5673C22.3969 41.0724 22.597 41.6827 22.597 42.3092C22.597 42.9358 22.3969 43.5461 22.0261 44.0511C21.8018 44.4011 21.415 44.6131 20.9992 44.6131C20.5834 44.6131 20.1966 44.4011 19.9723 44.0511C19.6015 43.5461 19.4014 42.9358 19.4014 42.3092C19.4014 41.6827 19.6015 41.0724 19.9723 40.5673C20.2162 40.2395 20.5915 40.0349 20.9992 40.0083ZM20.9992 38.5229C19.2942 38.5229 17.919 40.2191 17.919 42.3092C17.919 44.3994 19.2942 46.0955 20.9992 46.0955C22.7042 46.0955 24.0794 44.3994 24.0794 42.3092C24.0794 40.2191 22.7042 38.5229 20.9992 38.5229Z" fill="white"/>
<path d="M16.0853 56.4001V50.3124H13.1881V51.7977H14.2608V56.4001H12.913V57.8854H17.4422V56.4001H16.0853Z" fill="white"/>
<path d="M38.7389 56.3172V50.2299H35.8421V51.7152H36.9143V56.3172H35.5576V57.8025H40.0868V56.3172H38.7389Z" fill="white"/>
<path d="M27.4074 31.4637V25.376H24.5101V26.8613H25.5919V31.4637H24.2351V32.949H28.7643V31.4637H27.4074Z" fill="white"/>
<path d="M49.4197 49.6527C49.8274 49.6793 50.2027 49.884 50.4466 50.2118C50.8174 50.7169 51.0176 51.3272 51.0176 51.9537C51.0176 52.5803 50.8174 53.1906 50.4466 53.6956C50.2223 54.0456 49.8356 54.2572 49.4197 54.2572C49.0039 54.2572 48.6171 54.0456 48.3928 53.6956C48.022 53.1906 47.8219 52.5803 47.8219 51.9537C47.8219 51.3272 48.022 50.7168 48.3928 50.2118C48.6368 49.884 49.0121 49.6793 49.4197 49.6527ZM49.4197 48.1949C47.7147 48.1949 46.3395 49.891 46.3395 51.9812C46.3395 54.0714 47.7147 55.7675 49.4197 55.7675C51.1247 55.7675 52.4999 54.0714 52.4999 51.9812C52.4999 49.891 51.1526 48.1949 49.4197 48.1949Z" fill="white"/>
<path d="M3.58021 49.6527C3.98785 49.6793 4.36317 49.884 4.6071 50.2118C4.97791 50.7169 5.17805 51.3272 5.17805 51.9537C5.17805 52.5803 4.9779 53.1906 4.6071 53.6956C4.36317 54.0235 3.98785 54.2281 3.58021 54.2547C3.16274 54.2359 2.77556 54.0308 2.52595 53.6956C2.15514 53.1906 1.95501 52.5803 1.95501 51.9537C1.95501 51.3272 2.15515 50.7168 2.52595 50.2118C2.77561 49.8766 3.16279 49.6716 3.58021 49.6527ZM3.58021 48.1949C1.87519 48.1949 0.5 49.891 0.5 51.9812C0.5 54.0714 1.84732 55.74 3.58021 55.74C5.3131 55.74 6.66042 54.0439 6.66042 51.9537C6.66042 49.8636 5.25778 48.1949 3.58021 48.1949Z" fill="white"/>
<path d="M8.78757 42.291V36.2037H5.89972V37.6796H6.97242V42.291H5.61568V43.7763H10.1444V42.291H8.78757Z" fill="white"/>
<path d="M46.0282 42.291V36.2037H43.1313V37.6796H44.2131V42.291H42.8563V43.7763H47.385V42.291H46.0282Z" fill="white"/>
<path d="M38.2539 28.4198C38.6615 28.4468 39.0368 28.6511 39.2808 28.9793C39.6516 29.4844 39.8513 30.0946 39.8513 30.7212C39.8513 31.3478 39.6516 31.9581 39.2808 32.4631C39.0565 32.813 38.6693 33.0246 38.2539 33.0246C37.838 33.0246 37.4513 32.813 37.227 32.4631C36.8562 31.9581 36.656 31.3478 36.656 30.7212C36.656 30.0946 36.8562 29.4843 37.227 28.9793C37.4709 28.6511 37.8462 28.4468 38.2539 28.4198ZM38.2539 26.9345C36.5488 26.9345 35.1737 28.6306 35.1737 30.7208C35.1737 32.811 36.5488 34.5071 38.2539 34.5071C39.9589 34.5071 41.3341 32.811 41.3341 30.7208C41.3341 28.6306 39.9589 26.9345 38.2539 26.9345Z" fill="white"/>
<path d="M14.7463 28.4201C15.1478 28.4381 15.5222 28.6284 15.7731 28.9428C16.144 29.4478 16.3441 30.0581 16.3441 30.6847C16.3441 31.3112 16.1439 31.9215 15.7731 32.4266C15.5292 32.7544 15.1539 32.959 14.7463 32.9856C14.3386 32.959 13.9633 32.7544 13.7194 32.4266C13.3486 31.9215 13.1488 31.3112 13.1488 30.6847C13.1488 30.0581 13.3486 29.4478 13.7194 28.9428C13.9633 28.6149 14.3386 28.4103 14.7463 28.3837V28.4201ZM14.7463 26.8984C13.0412 26.8984 11.666 28.5945 11.666 30.6847C11.666 32.7749 13.0412 34.471 14.7463 34.471C16.4513 34.471 17.8265 32.7749 17.8265 30.6847C17.8265 28.5945 16.4513 26.8984 14.7463 26.8984Z" fill="white"/>
<path d="M50.1259 18.4002C49.6549 17.584 49.0327 16.8654 48.2924 16.2825C48.2842 14.2009 47.5966 12.1786 46.334 10.5239C45.0713 8.86876 43.3028 7.67159 41.2974 7.1146C40.241 4.97162 38.6043 3.16873 36.573 1.911C34.5422 0.652846 32.1986 -0.00891995 29.8096 9.08057e-05H29.7638C27.4555 -0.000318555 25.1893 0.622199 23.205 1.80172C21.2205 2.98129 19.5907 4.67405 18.4873 6.7021H17.7538C15.3341 6.70333 12.9848 7.51738 11.0829 9.01367C9.18146 10.51 7.83697 12.6014 7.26594 14.9532C4.74922 15.6441 2.78959 17.6201 2.11923 20.1421C1.44924 22.664 2.16957 25.3523 4.01138 27.2013C5.28138 28.5446 7.00117 29.3734 8.84293 29.5302H9.20964V26.4131H8.88877C7.8631 26.2764 6.91845 25.7832 6.22064 25.0195C5.46224 24.2566 5.01896 23.2362 4.97852 22.1615C4.938 21.0867 5.3039 20.0357 6.00295 19.2183C6.70201 18.4006 7.68303 17.8763 8.75123 17.7494L9.94306 17.6119L10.108 16.429C10.3683 14.5901 11.2826 12.9068 12.6836 11.6875C14.0846 10.4682 15.8784 9.79535 17.7358 9.79127C18.1971 9.79372 18.6571 9.8367 19.111 9.91979L20.3213 10.14L20.8071 9.00295C21.5565 7.25162 22.804 5.75898 24.3948 4.7108C25.9856 3.66262 27.8496 3.10521 29.7548 3.10804C31.6628 3.11336 33.5271 3.68062 35.1151 4.73856C36.7031 5.79701 37.9445 7.29908 38.6844 9.05775L39.0053 9.82802L39.8214 9.98396H39.821C41.3177 10.2553 42.6696 11.0497 43.6351 12.2248C44.6005 13.4003 45.1171 14.8807 45.0925 16.4015V16.9884L45.0282 17.9416L45.8902 18.4369C46.5377 18.8134 47.0775 19.35 47.4577 19.9954C47.8445 20.654 48.0471 21.4041 48.0447 22.1678C48.0369 23.2435 47.6272 24.2773 46.8962 25.066C46.1648 25.855 45.165 26.3417 44.0934 26.4309H43.8V29.548H44.1119H44.1114C46.7026 29.4276 49.0404 27.9579 50.272 25.6753C51.5035 23.3924 51.4479 20.6313 50.1259 18.3999L50.1259 18.4002Z" fill="white"/>
</svg>
