<svg width="101" height="100" viewBox="0 0 101 100" fill="none" xmlns="http://www.w3.org/2000/svg">
<circle cx="50.5" cy="50" r="48.5" fill="#29557A" stroke="#CEEEF7" stroke-width="3"/>
<path d="M38.655 49.8832H36.048C36.374 51.4104 37.2142 52.7798 38.4281 53.7618C39.642 54.7443 41.1564 55.2801 42.7182 55.2801H53.39V52.779H42.7182C41.8241 52.7771 40.9533 52.4972 40.2252 51.9784C39.4975 51.4596 38.9489 50.7276 38.655 49.8832V49.8832Z" fill="white"/>
<path d="M66.6914 26H42.7185C40.9149 26.0047 39.1868 26.7239 37.9124 27.9998C36.6384 29.2761 35.9219 31.0053 35.9208 32.8089V44.3254H38.4219V32.8089C38.4234 31.6687 38.8759 30.5757 39.6812 29.7685C40.4866 28.9613 41.5783 28.5057 42.7186 28.5014H66.6915C67.8333 28.5026 68.9282 28.957 69.7358 29.7646C70.5434 30.5722 70.9974 31.6667 70.999 32.8089V48.4941C70.9975 49.6363 70.5435 50.7308 69.7358 51.5384C68.9282 52.346 67.8333 52.8004 66.6915 52.8019H58.9598V55.2806H66.6915C68.4927 55.2794 70.2205 54.5645 71.4964 53.2928C72.7723 52.0212 73.4927 50.2959 73.5001 48.4941V32.8089C73.499 31.0034 72.7809 29.2726 71.5046 27.9959C70.2279 26.7196 68.4967 26.0015 66.6916 26H66.6914Z" fill="white"/>
<path d="M42.5071 36.4554H47.2984H47.298C48.0657 36.4554 48.6876 35.8335 48.6876 35.0658C48.6876 34.2985 48.0657 33.6763 47.298 33.6763H42.507C41.7393 33.6763 41.1174 34.2985 41.1174 35.0658C41.1174 35.8335 41.7393 36.4554 42.507 36.4554H42.5071Z" fill="white"/>
<path d="M62.1226 36.4554H66.9139H66.9135C67.6812 36.4554 68.3031 35.8335 68.3031 35.0658C68.3031 34.2985 67.6812 33.6763 66.9135 33.6763H62.1225C61.3549 33.6763 60.733 34.2985 60.733 35.0658C60.733 35.8335 61.3549 36.4554 62.1225 36.4554H62.1226Z" fill="white"/>
<path d="M57.1034 33.6763H52.3179C51.5502 33.6763 50.9283 34.2985 50.9283 35.0658C50.9283 35.8335 51.5502 36.4554 52.3179 36.4554H57.1092C57.8765 36.4554 58.4988 35.8335 58.4988 35.0658C58.4988 34.2985 57.8765 33.6763 57.1092 33.6763H57.1034Z" fill="white"/>
<path d="M42.5071 42.3132H47.2984H47.298C48.0657 42.3132 48.6876 41.6909 48.6876 40.9236C48.6876 40.1559 48.0657 39.5341 47.298 39.5341H42.507C41.7393 39.5341 41.1174 40.1559 41.1174 40.9236C41.1174 41.6909 41.7393 42.3132 42.507 42.3132H42.5071Z" fill="white"/>
<path d="M62.1226 42.3132H66.9139H66.9135C67.6812 42.3132 68.3031 41.6909 68.3031 40.9236C68.3031 40.1559 67.6812 39.5341 66.9135 39.5341H62.1225C61.3549 39.5341 60.733 40.1559 60.733 40.9236C60.733 41.6909 61.3549 42.3132 62.1225 42.3132H62.1226Z" fill="white"/>
<path d="M57.1034 39.5341H52.3179C51.5502 39.5341 50.9283 40.1559 50.9283 40.9236C50.9283 41.6909 51.5502 42.3132 52.3179 42.3132H57.1092C57.8765 42.3132 58.4988 41.6909 58.4988 40.9236C58.4988 40.1559 57.8765 39.5341 57.1092 39.5341H57.1034Z" fill="white"/>
<path d="M50.622 45.832H34.3086C32.4995 45.8336 30.7649 46.5543 29.4878 47.8358C28.2107 49.1171 27.4954 50.8541 27.5 52.6632V67.7479C27.5012 69.5534 28.2192 71.2842 29.4955 72.5609C30.7722 73.8372 32.5034 74.5553 34.3086 74.5568H50.622C52.4275 74.5553 54.1587 73.8372 55.435 72.5609C56.7117 71.2842 57.4294 69.5534 57.4309 67.7479V52.6632C57.4352 50.8541 56.7203 49.1171 55.4428 47.8358C54.1657 46.5544 52.4314 45.8336 50.622 45.832ZM54.9465 55.2809V67.7314C54.945 68.8736 54.4905 69.9681 53.683 70.7757C52.8758 71.5833 51.7809 72.0377 50.6387 72.0389H34.3084C33.1665 72.0378 32.0717 71.5834 31.264 70.7757C30.4564 69.9681 30.0024 68.8736 30.0008 67.7314V52.6626C30.0024 51.5208 30.4564 50.4259 31.264 49.6183C32.0716 48.8107 33.1665 48.3567 34.3084 48.3551H50.6218C51.7667 48.352 52.8658 48.8044 53.6769 49.6124C54.488 50.4204 54.9447 51.5176 54.9463 52.6625L54.9465 55.2809Z" fill="white"/>
<path d="M45.1423 60.5222C45.1423 62.0021 43.9427 63.2013 42.4633 63.2013C40.9838 63.2013 39.7842 62.0021 39.7842 60.5222C39.7842 59.0428 40.9838 57.8432 42.4633 57.8432C43.9427 57.8432 45.1423 59.0428 45.1423 60.5222Z" fill="white"/>
<path d="M40.6064 66.3697C40.6064 67.8492 39.4068 69.0488 37.9273 69.0488C36.4478 69.0488 35.2482 67.8492 35.2482 66.3697C35.2482 64.8899 36.4478 63.6907 37.9273 63.6907C39.4068 63.6907 40.6064 64.8899 40.6064 66.3697Z" fill="white"/>
<path d="M49.683 66.3697C49.683 67.8492 48.4834 69.0488 47.004 69.0488C45.5241 69.0488 44.3249 67.8492 44.3249 66.3697C44.3249 64.8899 45.5241 63.6907 47.004 63.6907C48.4834 63.6907 49.683 64.8899 49.683 66.3697Z" fill="white"/>
</svg>
