<svg width="47" height="49" viewBox="0 0 47 49" fill="none" xmlns="http://www.w3.org/2000/svg">
<path d="M11.655 23.8832H9.04797C9.37404 25.4104 10.2142 26.7798 11.4281 27.7618C12.642 28.7443 14.1564 29.2801 15.7182 29.2801H26.39V26.779H15.7182C14.8241 26.7771 13.9533 26.4972 13.2252 25.9784C12.4975 25.4596 11.9489 24.7276 11.655 23.8832V23.8832Z" fill="white"/>
<path d="M39.6914 0H15.7185C13.9149 0.00465254 12.1868 0.723862 10.9124 1.99977C9.63838 3.27609 8.92187 5.00529 8.92078 6.80894V18.3254H11.4219V6.80894C11.4234 5.66871 11.8759 4.57572 12.6812 3.76849C13.4866 2.96125 14.5783 2.50567 15.7186 2.50141H39.6915C40.8333 2.50257 41.9282 2.95696 42.7358 3.76461C43.5434 4.57222 43.9974 5.66672 43.999 6.80894V22.4941C43.9975 23.6363 43.5435 24.7308 42.7358 25.5384C41.9282 26.346 40.8333 26.8004 39.6915 26.8019H31.9598V29.2806H39.6915C41.4927 29.2794 43.2205 28.5645 44.4964 27.2928C45.7723 26.0212 46.4927 24.2959 46.5001 22.4941V6.80894C46.499 5.00341 45.7809 3.27261 44.5046 1.9959C43.2279 0.719593 41.4967 0.00148881 39.6916 0H39.6914Z" fill="white"/>
<path d="M15.5071 10.4554H20.2984H20.298C21.0657 10.4554 21.6876 9.8335 21.6876 9.06583C21.6876 8.29854 21.0657 7.67627 20.298 7.67627H15.507C14.7393 7.67627 14.1174 8.29854 14.1174 9.06583C14.1174 9.8335 14.7393 10.4554 15.507 10.4554H15.5071Z" fill="white"/>
<path d="M35.1226 10.4554H39.9139H39.9135C40.6812 10.4554 41.3031 9.8335 41.3031 9.06583C41.3031 8.29854 40.6812 7.67627 39.9135 7.67627H35.1225C34.3549 7.67627 33.733 8.29854 33.733 9.06583C33.733 9.8335 34.3549 10.4554 35.1225 10.4554H35.1226Z" fill="white"/>
<path d="M30.1034 7.67627H25.3179C24.5502 7.67627 23.9283 8.29854 23.9283 9.06583C23.9283 9.8335 24.5502 10.4554 25.3179 10.4554H30.1092C30.8765 10.4554 31.4988 9.8335 31.4988 9.06583C31.4988 8.29854 30.8765 7.67627 30.1092 7.67627H30.1034Z" fill="white"/>
<path d="M15.5071 16.3132H20.2984H20.298C21.0657 16.3132 21.6876 15.6909 21.6876 14.9236C21.6876 14.1559 21.0657 13.5341 20.298 13.5341H15.507C14.7393 13.5341 14.1174 14.1559 14.1174 14.9236C14.1174 15.6909 14.7393 16.3132 15.507 16.3132H15.5071Z" fill="white"/>
<path d="M35.1226 16.3132H39.9139H39.9135C40.6812 16.3132 41.3031 15.6909 41.3031 14.9236C41.3031 14.1559 40.6812 13.5341 39.9135 13.5341H35.1225C34.3549 13.5341 33.733 14.1559 33.733 14.9236C33.733 15.6909 34.3549 16.3132 35.1225 16.3132H35.1226Z" fill="white"/>
<path d="M30.1034 13.5341H25.3179C24.5502 13.5341 23.9283 14.1559 23.9283 14.9236C23.9283 15.6909 24.5502 16.3132 25.3179 16.3132H30.1092C30.8765 16.3132 31.4988 15.6909 31.4988 14.9236C31.4988 14.1559 30.8765 13.5341 30.1092 13.5341H30.1034Z" fill="white"/>
<path d="M23.622 19.832H7.30857C5.49946 19.8336 3.76489 20.5543 2.48779 21.8358C1.21068 23.1171 0.495358 24.8541 0.500023 26.6632V41.7479C0.501186 43.5534 1.21923 45.2842 2.49553 46.5609C3.77224 47.8372 5.50343 48.5553 7.30857 48.5568H23.622C25.4275 48.5553 27.1587 47.8372 28.435 46.5609C29.7117 45.2842 30.4294 43.5534 30.4309 41.7479V26.6632C30.4352 24.8541 29.7203 23.1171 28.4428 21.8358C27.1657 20.5544 25.4314 19.8336 23.622 19.832ZM27.9465 29.2809V41.7314C27.945 42.8736 27.4905 43.9681 26.683 44.7757C25.8758 45.5833 24.7809 46.0377 23.6387 46.0389H7.30837C6.16655 46.0378 5.07167 45.5834 4.26404 44.7757C3.45641 43.9681 3.00242 42.8736 3.00083 41.7314V26.6626C3.00238 25.5208 3.45639 24.4259 4.26404 23.6183C5.07164 22.8107 6.16655 22.3567 7.30837 22.3551H23.6218C24.7667 22.352 25.8658 22.8044 26.6769 23.6124C27.488 24.4204 27.9447 25.5176 27.9463 26.6625L27.9465 29.2809Z" fill="white"/>
<path d="M18.1423 34.5223C18.1423 36.0022 16.9427 37.2013 15.4633 37.2013C13.9838 37.2013 12.7842 36.0022 12.7842 34.5223C12.7842 33.0428 13.9838 31.8432 15.4633 31.8432C16.9427 31.8432 18.1423 33.0428 18.1423 34.5223Z" fill="white"/>
<path d="M13.6064 40.3697C13.6064 41.8492 12.4068 43.0488 10.9273 43.0488C9.44782 43.0488 8.24823 41.8492 8.24823 40.3697C8.24823 38.8899 9.44782 37.6907 10.9273 37.6907C12.4068 37.6907 13.6064 38.8899 13.6064 40.3697Z" fill="white"/>
<path d="M22.683 40.3697C22.683 41.8492 21.4834 43.0488 20.004 43.0488C18.5241 43.0488 17.3249 41.8492 17.3249 40.3697C17.3249 38.8899 18.5241 37.6907 20.004 37.6907C21.4834 37.6907 22.683 38.8899 22.683 40.3697Z" fill="white"/>
</svg>
