<svg width="72" height="42" viewBox="0 0 72 42" fill="none" xmlns="http://www.w3.org/2000/svg">
<path fill-rule="evenodd" clip-rule="evenodd" d="M35.938 18.6533C25.9218 18.6533 17.7713 26.8035 17.7713 36.8199C17.7713 38.2704 17.9429 39.6834 18.2665 41.0369L18.266 41.0374C18.3377 41.3588 18.5355 41.6386 18.8153 41.8132C19.0947 41.9879 19.4328 42.0432 19.7534 41.9664C20.0739 41.89 20.3503 41.6879 20.5206 41.4055C20.691 41.1232 20.7412 40.7846 20.6593 40.4649C20.3799 39.2964 20.2319 38.0765 20.2319 36.8199C20.2319 28.1346 27.2522 21.114 35.9378 21.114C44.6233 21.114 51.6437 28.1344 51.6437 36.8199C51.6437 38.0765 51.4952 39.2964 51.2159 40.4649C51.1344 40.7846 51.1841 41.1232 51.3545 41.4055C51.5249 41.6879 51.8012 41.89 52.1218 41.9664C52.4428 42.0432 52.7805 41.9879 53.0603 41.8132C53.3396 41.6386 53.5374 41.3588 53.6091 41.0374C53.9327 39.6835 54.1043 38.2708 54.1043 36.8204C54.1043 26.8043 45.9541 18.6537 35.9376 18.6537L35.938 18.6533Z" fill="white"/>
<path fill-rule="evenodd" clip-rule="evenodd" d="M35.9377 0C31.3238 0 27.5527 3.76384 27.5527 8.37895C27.5527 12.9942 31.3225 16.7639 35.9377 16.7639C40.5529 16.7639 44.3227 12.9942 44.3227 8.37895C44.3227 3.76373 40.5516 0 35.9377 0Z" fill="white"/>
<path fill-rule="evenodd" clip-rule="evenodd" d="M56.3786 18.9356C54.0571 18.9356 51.8476 19.4656 49.8762 20.4178C49.578 20.5568 49.3475 20.81 49.2373 21.1198C49.1265 21.43 49.145 21.7716 49.2883 22.0682C49.4316 22.3647 49.6874 22.5912 49.9989 22.6977C50.3109 22.8037 50.6521 22.7809 50.9464 22.6337C52.5921 21.839 54.4309 21.3966 56.3787 21.3966C63.3055 21.3966 68.8977 26.9829 68.8977 33.9156C68.8977 34.9137 68.7797 35.8878 68.5565 36.8139C68.475 37.1327 68.5252 37.4713 68.6947 37.7532C68.8647 38.0352 69.1406 38.2373 69.4607 38.3145C69.7808 38.3918 70.1181 38.3373 70.3979 38.1635C70.6777 37.9901 70.8759 37.7116 70.9489 37.3906C71.2179 36.2741 71.3583 35.1069 71.3583 33.9152C71.3583 25.6529 64.6348 18.9354 56.3785 18.9354L56.3786 18.9356Z" fill="white"/>
<path fill-rule="evenodd" clip-rule="evenodd" d="M56.3742 4.32495C52.8048 4.32495 49.8765 7.24731 49.8765 10.8226C49.8765 14.3938 52.8036 17.3203 56.3742 17.3203C59.9501 17.3203 62.8723 14.3916 62.8723 10.8226C62.8723 7.24852 59.9483 4.32495 56.3742 4.32495ZM56.3742 6.78548C58.6198 6.78548 60.4114 8.5771 60.4114 10.8226C60.4114 13.0609 58.6181 14.8598 56.3742 14.8598C54.1381 14.8598 52.3371 13.0587 52.3371 10.8226C52.3371 8.57875 54.1359 6.78548 56.3742 6.78548Z" fill="white"/>
<path fill-rule="evenodd" clip-rule="evenodd" d="M15.4796 18.9356C17.8012 18.9356 20.0107 19.4656 21.9821 20.4178C22.2803 20.5568 22.5107 20.81 22.621 21.1198C22.7317 21.43 22.7133 21.7716 22.57 22.0682C22.4266 22.3647 22.1709 22.5912 21.8593 22.6977C21.5474 22.8037 21.2062 22.7809 20.9118 22.6337C19.2662 21.839 17.4273 21.3966 15.4796 21.3966C8.55273 21.3966 2.96057 26.9829 2.96057 33.9156C2.96057 34.9137 3.07858 35.8878 3.30173 36.8139C3.38326 37.1327 3.33305 37.4713 3.16355 37.7532C2.99362 38.0352 2.7177 38.2373 2.39757 38.3145C2.07744 38.3918 1.74015 38.3373 1.46037 38.1635C1.18059 37.9901 0.982328 37.7116 0.909384 37.3906C0.640327 36.2741 0.500004 35.1069 0.500004 33.9152C0.500004 25.6529 7.22344 18.9354 15.4798 18.9354L15.4796 18.9356Z" fill="white"/>
<path fill-rule="evenodd" clip-rule="evenodd" d="M15.4841 4.32495C19.0535 4.32495 21.9818 7.24731 21.9818 10.8226C21.9818 14.3938 19.0547 17.3203 15.4841 17.3203C11.9082 17.3203 8.98593 14.3916 8.98593 10.8226C8.98593 7.24852 11.9099 4.32495 15.4841 4.32495ZM15.4841 6.78548C13.2385 6.78548 11.4469 8.5771 11.4469 10.8226C11.4469 13.0609 13.2402 14.8598 15.4841 14.8598C17.7202 14.8598 19.5212 13.0587 19.5212 10.8226C19.5212 8.57875 17.7224 6.78548 15.4841 6.78548Z" fill="white"/>
</svg>
