<svg width="101" height="100" viewBox="0 0 101 100" fill="none" xmlns="http://www.w3.org/2000/svg">
<circle cx="50.5" cy="50" r="48.5" fill="#29557A" stroke="#CEEEF7" stroke-width="3"/>
<path fill-rule="evenodd" clip-rule="evenodd" d="M50.938 47.6533C40.9218 47.6533 32.7713 55.8035 32.7713 65.8199C32.7713 67.2704 32.9429 68.6834 33.2665 70.0369L33.266 70.0374C33.3377 70.3588 33.5355 70.6386 33.8153 70.8132C34.0947 70.9879 34.4328 71.0432 34.7534 70.9664C35.0739 70.89 35.3503 70.6879 35.5206 70.4055C35.691 70.1232 35.7412 69.7846 35.6593 69.4649C35.3799 68.2964 35.2319 67.0765 35.2319 65.8199C35.2319 57.1346 42.2522 50.114 50.9378 50.114C59.6233 50.114 66.6437 57.1344 66.6437 65.8199C66.6437 67.0765 66.4952 68.2964 66.2159 69.4649C66.1344 69.7846 66.1841 70.1232 66.3545 70.4055C66.5249 70.6879 66.8012 70.89 67.1218 70.9664C67.4428 71.0432 67.7805 70.9879 68.0603 70.8132C68.3396 70.6386 68.5374 70.3588 68.6091 70.0374C68.9327 68.6835 69.1043 67.2708 69.1043 65.8204C69.1043 55.8043 60.9541 47.6537 50.9376 47.6537L50.938 47.6533Z" fill="white"/>
<path fill-rule="evenodd" clip-rule="evenodd" d="M50.9377 29C46.3238 29 42.5527 32.7638 42.5527 37.379C42.5527 41.9942 46.3225 45.7639 50.9377 45.7639C55.5529 45.7639 59.3227 41.9942 59.3227 37.379C59.3227 32.7637 55.5516 29 50.9377 29Z" fill="white"/>
<path fill-rule="evenodd" clip-rule="evenodd" d="M71.3786 47.9356C69.0571 47.9356 66.8476 48.4656 64.8762 49.4178C64.578 49.5568 64.3475 49.81 64.2373 50.1198C64.1265 50.43 64.145 50.7716 64.2883 51.0682C64.4316 51.3647 64.6874 51.5912 64.9989 51.6977C65.3109 51.8037 65.6521 51.7809 65.9464 51.6337C67.5921 50.839 69.4309 50.3966 71.3787 50.3966C78.3055 50.3966 83.8977 55.9829 83.8977 62.9156C83.8977 63.9137 83.7797 64.8878 83.5565 65.8139C83.475 66.1327 83.5252 66.4713 83.6947 66.7532C83.8647 67.0352 84.1406 67.2373 84.4607 67.3145C84.7808 67.3918 85.1181 67.3373 85.3979 67.1635C85.6777 66.9901 85.8759 66.7116 85.9489 66.3906C86.2179 65.2741 86.3583 64.1069 86.3583 62.9152C86.3583 54.6529 79.6348 47.9354 71.3785 47.9354L71.3786 47.9356Z" fill="white"/>
<path fill-rule="evenodd" clip-rule="evenodd" d="M71.3742 33.325C67.8048 33.325 64.8765 36.2473 64.8765 39.8226C64.8765 43.3938 67.8036 46.3203 71.3742 46.3203C74.9501 46.3203 77.8723 43.3916 77.8723 39.8226C77.8723 36.2485 74.9483 33.325 71.3742 33.325ZM71.3742 35.7855C73.6198 35.7855 75.4114 37.5771 75.4114 39.8226C75.4114 42.0609 73.6181 43.8598 71.3742 43.8598C69.1381 43.8598 67.3371 42.0587 67.3371 39.8226C67.3371 37.5787 69.1359 35.7855 71.3742 35.7855Z" fill="white"/>
<path fill-rule="evenodd" clip-rule="evenodd" d="M30.4796 47.9356C32.8012 47.9356 35.0107 48.4656 36.9821 49.4178C37.2803 49.5568 37.5107 49.81 37.621 50.1198C37.7317 50.43 37.7133 50.7716 37.57 51.0682C37.4266 51.3647 37.1709 51.5912 36.8593 51.6977C36.5474 51.8037 36.2062 51.7809 35.9118 51.6337C34.2662 50.839 32.4273 50.3966 30.4796 50.3966C23.5527 50.3966 17.9606 55.9829 17.9606 62.9156C17.9606 63.9137 18.0786 64.8878 18.3017 65.8139C18.3833 66.1327 18.3331 66.4713 18.1636 66.7532C17.9936 67.0352 17.7177 67.2373 17.3976 67.3145C17.0774 67.3918 16.7402 67.3373 16.4604 67.1635C16.1806 66.9901 15.9823 66.7116 15.9094 66.3906C15.6403 65.2741 15.5 64.1069 15.5 62.9152C15.5 54.6529 22.2234 47.9354 30.4798 47.9354L30.4796 47.9356Z" fill="white"/>
<path fill-rule="evenodd" clip-rule="evenodd" d="M30.4841 33.325C34.0535 33.325 36.9818 36.2473 36.9818 39.8226C36.9818 43.3938 34.0547 46.3203 30.4841 46.3203C26.9082 46.3203 23.9859 43.3916 23.9859 39.8226C23.9859 36.2485 26.9099 33.325 30.4841 33.325ZM30.4841 35.7855C28.2385 35.7855 26.4469 37.5771 26.4469 39.8226C26.4469 42.0609 28.2402 43.8598 30.4841 43.8598C32.7202 43.8598 34.5212 42.0587 34.5212 39.8226C34.5212 37.5787 32.7224 35.7855 30.4841 35.7855Z" fill="white"/>
</svg>
