<svg width="101" height="100" viewBox="0 0 101 100" fill="none" xmlns="http://www.w3.org/2000/svg">
<circle cx="50.5" cy="50" r="48.5" fill="#29557A" stroke="#CEEEF7" stroke-width="3"/>
<path d="M75.3108 47.7962H79.67V49.9758H75.3108V47.7962Z" fill="white"/>
<path d="M23 47.7962H27.3592V49.9758H23V47.7962Z" fill="white"/>
<path d="M50.2453 26H52.425V30.3592H50.2453V26Z" fill="white"/>
<path d="M25.0466 29.589L26.5879 28.0477L29.6705 31.1303L28.1292 32.6716L25.0466 29.589Z" fill="white"/>
<path d="M72.9991 31.1294L76.0817 28.0468L77.623 29.5881L74.5404 32.6707L72.9991 31.1294Z" fill="white"/>
<path d="M48.8602 61.4966L50.69 62.8413C51.0812 63.1274 51.6139 63.1206 51.9978 62.8253L54.28 61.0597H54.2795C56.7554 59.2279 58.8324 56.912 60.385 54.2528C61.9375 51.5935 62.9334 48.6461 63.3109 45.5897V45.5747C63.3727 45.0015 62.9771 44.4795 62.4089 44.3837L61.4105 44.2158C57.8779 43.6296 54.6206 41.9438 52.1024 39.3987C51.6694 38.9876 50.9902 38.9876 50.5573 39.3987C48.0385 41.9438 44.7813 43.6296 41.2492 44.2158L40.2508 44.3837C39.6792 44.4795 39.2827 45.0064 39.3483 45.5825C39.722 48.7556 40.7626 51.8143 42.4023 54.5569C44.0414 57.2998 46.2424 59.6649 48.8604 61.4966L48.8602 61.4966ZM51.3352 41.672C54.0451 44.1242 57.3996 45.75 61.0028 46.3582C60.0745 51.5543 57.1934 56.1976 52.9505 59.3375L51.3157 60.6006L50.1495 59.7428C47.9217 58.1821 46.0248 56.1957 44.5682 53.8987C43.1121 51.6014 42.1244 49.0384 41.6632 46.3576C45.2683 45.7509 48.6244 44.1254 51.3353 41.6724L51.3352 41.672Z" fill="white"/>
<path d="M30.6287 35.8083V66.3229C30.6287 66.9009 30.8583 67.4556 31.267 67.8642C31.6757 68.2729 32.2303 68.5026 32.8083 68.5026H69.8618C70.4398 68.5026 70.9944 68.2729 71.4031 67.8642C71.8118 67.4556 72.0414 66.9009 72.0414 66.3229V35.8083C72.0414 35.2304 71.8118 34.6757 71.4031 34.267C70.9944 33.8584 70.4398 33.6287 69.8618 33.6287H32.8083C32.2303 33.6287 31.6757 33.8584 31.267 34.267C30.8583 34.6757 30.6287 35.2304 30.6287 35.8083ZM69.8618 66.3229H32.8083V35.8083H69.8618V66.3229Z" fill="white"/>
<path d="M49.7942 54.6924C50.0832 54.6924 50.36 54.5776 50.5644 54.3728L55.9588 48.9792L54.418 47.4384L49.7941 52.0613L48.2519 50.5205L46.7111 52.0613L49.0234 54.3728C49.2278 54.5776 49.5051 54.6924 49.7941 54.6924H49.7942Z" fill="white"/>
</svg>
