<svg width="18" height="20" viewBox="0 0 18 20" fill="none" xmlns="http://www.w3.org/2000/svg">
<path d="M1.4934 6.36789H17.1246C17.2188 6.36791 17.312 6.34868 17.3986 6.31139C17.4851 6.2741 17.5631 6.21953 17.6277 6.15103C17.6924 6.08253 17.7424 6.00154 17.7747 5.91303C17.807 5.82452 17.8208 5.73035 17.8154 5.6363L17.8067 5.45677C17.6943 3.64007 16.1758 2.217 14.3491 2.217H13.4601V1.52519C13.4601 1.34171 13.3872 1.16574 13.2574 1.036C13.1277 0.906261 12.9517 0.833374 12.7683 0.833374C12.5848 0.833374 12.4088 0.906261 12.2791 1.036C12.1493 1.16574 12.0764 1.34171 12.0764 1.52519V2.217H6.54192V1.52519C6.54192 1.34171 6.46903 1.16574 6.33929 1.036C6.20955 0.906261 6.03359 0.833374 5.85011 0.833374C5.66663 0.833374 5.49066 0.906261 5.36092 1.036C5.23118 1.16574 5.15829 1.34171 5.15829 1.52519V2.217H4.26931C2.44257 2.217 0.923692 3.64041 0.811272 5.45816L0.802624 5.63665C0.797103 5.73071 0.810884 5.8249 0.843119 5.91344C0.875353 6.00198 0.92536 6.08298 0.990063 6.15148C1.05477 6.21997 1.1328 6.2745 1.21936 6.31172C1.30592 6.34894 1.39918 6.36806 1.4934 6.36789ZM17.9237 8.42604C17.9192 8.24561 17.8444 8.07405 17.7152 7.94802C17.586 7.82199 17.4127 7.75147 17.2322 7.75152H1.38617C1.20567 7.75155 1.03233 7.82209 0.903093 7.9481C0.773858 8.0741 0.698955 8.24561 0.694355 8.42604C0.631859 10.874 0.675484 13.3234 0.825108 15.7676C0.933031 17.504 2.32392 18.8946 4.05969 19.0025C7.5557 19.2216 11.062 19.2214 14.558 19.0022C16.2944 18.8942 17.685 17.5033 17.7933 15.7672C17.942 13.3742 17.9859 10.9041 17.9237 8.42604ZM12.7683 11.9024C12.493 11.9024 12.2291 11.7931 12.0345 11.5985C11.8399 11.4039 11.7305 11.1399 11.7305 10.8647C11.7305 10.5895 11.8399 10.3255 12.0345 10.1309C12.2291 9.9363 12.493 9.82697 12.7683 9.82697C13.0435 9.82697 13.3074 9.9363 13.502 10.1309C13.6966 10.3255 13.806 10.5895 13.806 10.8647C13.806 11.1399 13.6966 11.4039 13.502 11.5985C13.3074 11.7931 13.0435 11.9024 12.7683 11.9024ZM13.806 14.3238C13.806 14.599 13.6966 14.8629 13.502 15.0575C13.3074 15.2522 13.0435 15.3615 12.7683 15.3615C12.493 15.3615 12.2291 15.2522 12.0345 15.0575C11.8399 14.8629 11.7305 14.599 11.7305 14.3238C11.7305 14.0485 11.8399 13.7846 12.0345 13.59C12.2291 13.3954 12.493 13.286 12.7683 13.286C13.0435 13.286 13.3074 13.3954 13.502 13.59C13.6966 13.7846 13.806 14.0485 13.806 14.3238ZM5.85011 13.286C6.12533 13.286 6.38928 13.3954 6.58389 13.59C6.7785 13.7846 6.88783 14.0485 6.88783 14.3238C6.88783 14.599 6.7785 14.8629 6.58389 15.0575C6.38928 15.2522 6.12533 15.3615 5.85011 15.3615C5.57488 15.3615 5.31094 15.2522 5.11633 15.0575C4.92171 14.8629 4.81238 14.599 4.81238 14.3238C4.81238 14.0485 4.92171 13.7846 5.11633 13.59C5.31094 13.3954 5.57488 13.286 5.85011 13.286ZM4.81238 10.8647C4.81238 10.7284 4.83922 10.5935 4.89138 10.4676C4.94353 10.3417 5.01996 10.2273 5.11633 10.1309C5.21269 10.0345 5.32708 9.95811 5.45299 9.90596C5.57889 9.85381 5.71383 9.82697 5.85011 9.82697C5.98638 9.82697 6.12132 9.85381 6.24723 9.90596C6.37313 9.95811 6.48752 10.0345 6.58389 10.1309C6.68025 10.2273 6.75669 10.3417 6.80884 10.4676C6.86099 10.5935 6.88783 10.7284 6.88783 10.8647C6.88783 11.1399 6.7785 11.4039 6.58389 11.5985C6.38928 11.7931 6.12533 11.9024 5.85011 11.9024C5.57488 11.9024 5.31094 11.7931 5.11633 11.5985C4.92171 11.4039 4.81238 11.1399 4.81238 10.8647ZM8.27146 14.3238C8.27146 14.0485 8.38079 13.7846 8.5754 13.59C8.77001 13.3954 9.03396 13.286 9.30918 13.286C9.5844 13.286 9.84835 13.3954 10.043 13.59C10.2376 13.7846 10.3469 14.0485 10.3469 14.3238C10.3469 14.599 10.2376 14.8629 10.043 15.0575C9.84835 15.2522 9.5844 15.3615 9.30918 15.3615C9.03396 15.3615 8.77001 15.2522 8.5754 15.0575C8.38079 14.8629 8.27146 14.599 8.27146 14.3238ZM9.30918 11.9024C9.03396 11.9024 8.77001 11.7931 8.5754 11.5985C8.38079 11.4039 8.27146 11.1399 8.27146 10.8647C8.27146 10.5895 8.38079 10.3255 8.5754 10.1309C8.77001 9.9363 9.03396 9.82697 9.30918 9.82697C9.5844 9.82697 9.84835 9.9363 10.043 10.1309C10.2376 10.3255 10.3469 10.5895 10.3469 10.8647C10.3469 11.1399 10.2376 11.4039 10.043 11.5985C9.84835 11.7931 9.5844 11.9024 9.30918 11.9024Z" fill="white"/>
</svg>
