<svg width="13" height="20" viewBox="0 0 13 20" fill="none" xmlns="http://www.w3.org/2000/svg">
<path d="M6.60603 14.2571V19.2857H10.0667C10.1615 19.2857 10.2523 19.3233 10.3193 19.3903C10.3863 19.4573 10.4239 19.5481 10.4239 19.6429C10.4239 19.7376 10.3863 19.8284 10.3193 19.8954C10.2523 19.9624 10.1615 20 10.0667 20H2.43103C2.33631 20 2.24547 19.9624 2.1785 19.8954C2.11152 19.8284 2.07389 19.7376 2.07389 19.6429C2.07389 19.5481 2.11152 19.4573 2.1785 19.3903C2.24547 19.3233 2.33631 19.2857 2.43103 19.2857H5.89175V14.2571C4.34498 14.1646 2.89168 13.4858 1.82797 12.3591C0.764252 11.2323 0.170164 9.74239 0.166748 8.19286C0.166748 8.09814 0.204376 8.0073 0.271353 7.94032C0.33833 7.87334 0.429171 7.83571 0.523891 7.83571C0.618611 7.83571 0.709452 7.87334 0.776429 7.94032C0.843406 8.0073 0.881033 8.09814 0.881033 8.19286C0.881033 8.89777 1.01988 9.59579 1.28964 10.247C1.5594 10.8983 1.95479 11.4901 2.45324 11.9885C2.95169 12.487 3.54344 12.8824 4.1947 13.1521C4.84596 13.4219 5.54397 13.5607 6.24889 13.5607C6.95381 13.5607 7.65182 13.4219 8.30308 13.1521C8.95434 12.8824 9.54609 12.487 10.0445 11.9885C10.543 11.4901 10.9384 10.8983 11.2081 10.247C11.4779 9.59579 11.6167 8.89777 11.6167 8.19286C11.6167 8.09814 11.6544 8.0073 11.7214 7.94032C11.7883 7.87334 11.8792 7.83571 11.9739 7.83571C12.0686 7.83571 12.1595 7.87334 12.2264 7.94032C12.2934 8.0073 12.331 8.09814 12.331 8.19286C12.3276 9.74239 11.7335 11.2323 10.6698 12.3591C9.6061 13.4858 8.1528 14.1646 6.60603 14.2571ZM2.07389 9.35714V3.21429C2.07455 2.36201 2.41341 1.54483 3.01606 0.942174C3.61872 0.339522 4.4359 0.000662111 5.28818 0H7.20961C8.06188 0.000662111 8.87907 0.339522 9.48172 0.942174C10.0844 1.54483 10.4232 2.36201 10.4239 3.21429V9.35714C10.4226 10.2092 10.0835 11.026 9.48099 11.6285C8.87848 12.231 8.06168 12.5701 7.20961 12.5714H5.28818C4.4361 12.5701 3.6193 12.231 3.01679 11.6285C2.41428 11.026 2.07521 10.2092 2.07389 9.35714ZM4.97746 2.46786C4.97775 2.56249 5.01546 2.65317 5.08238 2.72008C5.1493 2.787 5.23997 2.82472 5.33461 2.825H7.30246C7.39718 2.825 7.48802 2.78737 7.555 2.7204C7.62198 2.65342 7.65961 2.56258 7.65961 2.46786C7.65961 2.37314 7.62198 2.2823 7.555 2.21532C7.48802 2.14834 7.39718 2.11071 7.30246 2.11071H5.33461C5.23997 2.111 5.1493 2.14872 5.08238 2.21563C5.01546 2.28255 4.97775 2.37322 4.97746 2.46786ZM3.98461 4.375C3.98413 4.42203 3.99304 4.46869 4.01082 4.51224C4.0286 4.55578 4.05489 4.59534 4.08815 4.6286C4.12141 4.66186 4.16097 4.68815 4.20451 4.70593C4.24806 4.72371 4.29471 4.73262 4.34175 4.73214H8.15603C8.25075 4.73214 8.3416 4.69452 8.40857 4.62754C8.47555 4.56056 8.51318 4.46972 8.51318 4.375C8.51318 4.28028 8.47555 4.18944 8.40857 4.12246C8.3416 4.05548 8.25075 4.01786 8.15603 4.01786H4.34175C4.29481 4.01772 4.2483 4.02686 4.20491 4.04475C4.16151 4.06265 4.12209 4.08895 4.08889 4.12215C4.0557 4.15534 4.0294 4.19477 4.0115 4.23816C3.99361 4.28155 3.98446 4.32806 3.98461 4.375ZM3.98461 6.28571C3.98446 6.33265 3.99361 6.37916 4.0115 6.42255C4.0294 6.46595 4.0557 6.50538 4.08889 6.53857C4.12209 6.57176 4.16151 6.59806 4.20491 6.61596C4.2483 6.63386 4.29481 6.643 4.34175 6.64286H8.15603C8.25075 6.64286 8.3416 6.60523 8.40857 6.53825C8.47555 6.47127 8.51318 6.38043 8.51318 6.28571C8.51318 6.19099 8.47555 6.10015 8.40857 6.03318C8.3416 5.9662 8.25075 5.92857 8.15603 5.92857H4.34175C4.29471 5.92809 4.24806 5.93701 4.20451 5.95478C4.16097 5.97256 4.12141 5.99885 4.08815 6.03211C4.05489 6.06537 4.0286 6.10493 4.01082 6.14848C3.99304 6.19203 3.98413 6.23868 3.98461 6.28571ZM3.98461 8.19286C3.98446 8.2398 3.99361 8.2863 4.0115 8.3297C4.0294 8.37309 4.0557 8.41252 4.08889 8.44571C4.12209 8.4789 4.16151 8.50521 4.20491 8.5231C4.2483 8.541 4.29481 8.55014 4.34175 8.55H8.15603C8.25075 8.55 8.3416 8.51237 8.40857 8.4454C8.47555 8.37842 8.51318 8.28758 8.51318 8.19286C8.51318 8.09814 8.47555 8.0073 8.40857 7.94032C8.3416 7.87334 8.25075 7.83571 8.15603 7.83571H4.34175C4.29481 7.83557 4.2483 7.84471 4.20491 7.86261C4.16151 7.88051 4.12209 7.90681 4.08889 7.94C4.0557 7.9732 4.0294 8.01262 4.0115 8.05602C3.99361 8.09941 3.98446 8.14592 3.98461 8.19286ZM3.98461 10.1C3.98446 10.1469 3.99361 10.1934 4.0115 10.2368C4.0294 10.2802 4.0557 10.3197 4.08889 10.3529C4.12209 10.386 4.16151 10.4123 4.20491 10.4302C4.2483 10.4481 4.29481 10.4573 4.34175 10.4571H8.15603C8.25075 10.4571 8.3416 10.4195 8.40857 10.3525C8.47555 10.2856 8.51318 10.1947 8.51318 10.1C8.51318 10.0053 8.47555 9.91444 8.40857 9.84746C8.3416 9.78049 8.25075 9.74286 8.15603 9.74286H4.34175C4.29481 9.74272 4.2483 9.75186 4.20491 9.76976C4.16151 9.78765 4.12209 9.81395 4.08889 9.84715C4.0557 9.88034 4.0294 9.91977 4.0115 9.96316C3.99361 10.0066 3.98446 10.0531 3.98461 10.1Z" fill="white"/>
</svg>
