<?xml version="1.0" standalone="no"?><!DOCTYPE svg PUBLIC "-//W3C//DTD SVG 1.1//EN" "http://www.w3.org/Graphics/SVG/1.1/DTD/svg11.dtd"><svg t="1662541760862" class="icon" viewBox="0 0 1024 1024" version="1.1" xmlns="http://www.w3.org/2000/svg" p-id="3981" xmlns:xlink="http://www.w3.org/1999/xlink" width="24" height="24"><path d="M512 512m-448 0a448 448 0 1 0 896 0 448 448 0 1 0-896 0Z" fill="#E0E0E0" p-id="3982"></path><path d="M676.5 701c-9 0-16.6-6.3-18.1-15-1.1-6-2.5-11.6-4.2-16.7l-0.1-0.2-0.1-0.2c-9.1-31.5-29.1-59-56.6-78-26.2 13.2-55.6 20.1-85.3 20.1-29.8 0-59.2-7-85.5-20.2-27.6 19-47.7 46.5-56.8 78.1-0.2 0.7-2.1 7.9-4.8 18.5-2 8.1-9.3 13.7-17.8 13.7h-10.7c-4.8 0-9.4-2-12.5-5.6-3.1-3.5-4.6-8.2-4-12.8 8.1-60.2 46.2-113.1 101.7-141.5l5.4-2.8 5.1 3.4c23.5 15.9 51.1 24.3 79.8 24.3 28.7 0 56.2-8.4 79.7-24.2l5.1-3.4 5.4 2.8c55.4 28.4 93.4 81.3 101.5 141.4 0.6 4.6-0.8 9.3-4 12.8s-7.7 5.6-12.5 5.6h-10.7zM512.2 526.3c-74.5 0-135-60-135-133.6S437.7 259 512.2 259s135 60 135 133.6c0 73.7-60.5 133.7-135 133.7z m0-222.4c-49.6 0-89.9 39.8-89.9 88.8s40.3 88.8 89.9 88.8c49.6 0 89.9-39.8 89.9-88.8s-40.3-88.8-89.9-88.8z" fill="#FFFFFF" p-id="3983"></path></svg>