<svg width="54" height="50" viewBox="0 0 54 50" fill="none" xmlns="http://www.w3.org/2000/svg">
<path d="M35.9017 6.94539C35.4403 6.94539 35.0627 6.57164 35.0627 6.10677V1.67763H18.9367V6.10677C18.9367 6.57164 18.5591 6.94539 18.0977 6.94539C17.6362 6.94539 17.259 6.57164 17.259 6.10677V0.838626C17.259 0.37419 17.6328 0 18.0977 0H35.9019C36.3633 0 36.7405 0.374179 36.7405 0.838626V6.10677C36.7405 6.56824 36.3667 6.94539 35.9019 6.94539H35.9017Z" fill="#1C1E21"/>
<path d="M18.1008 13.783C17.6398 13.783 17.2622 13.4059 17.2622 12.9444V7.76054C17.2622 7.29906 17.6364 6.92191 18.1008 6.92191C18.5657 6.92191 18.9399 7.29567 18.9399 7.76054V12.9444C18.9399 13.4059 18.5623 13.783 18.1008 13.783Z" fill="#1C1E21"/>
<path d="M18.1008 20.9169C17.6398 20.9169 17.2622 20.5432 17.2622 20.0783V14.5681C17.2622 14.1033 17.6364 13.7295 18.1008 13.7295C18.5657 13.7295 18.9399 14.1033 18.9399 14.5681V20.0783C18.9399 20.5398 18.5623 20.9169 18.1008 20.9169Z" fill="#1C1E21"/>
<path d="M35.9018 22.4389H18.0976C17.6361 22.4389 17.2585 22.0648 17.2585 21.5999C17.2585 21.1384 17.6327 20.7613 18.0976 20.7613H35.9018C36.3632 20.7613 36.7408 21.1354 36.7408 21.5999C36.7408 22.0648 36.3666 22.4389 35.9018 22.4389Z" fill="#1C1E21"/>
<path d="M35.9029 21.1089C35.4414 21.1089 35.0643 20.7352 35.0643 20.2703V14.6826C35.0643 14.2177 35.4414 13.844 35.9029 13.844C36.3644 13.844 36.7419 14.2177 36.7419 14.6826V20.2703C36.7419 20.7352 36.3678 21.1089 35.9029 21.1089Z" fill="#1C1E21"/>
<path d="M35.9029 13.7592C35.4414 13.7592 35.0643 13.3855 35.0643 12.9206V7.75369C35.0643 7.29221 35.4414 6.91506 35.9029 6.91506C36.3644 6.91506 36.7419 7.28882 36.7419 7.75369V12.9206C36.7419 13.3855 36.3678 13.7592 35.9029 13.7592Z" fill="#1C1E21"/>
<path d="M35.9006 8.59969H18.4262C17.9648 8.59969 17.5872 8.22594 17.5872 7.76107C17.5872 7.29959 17.9614 6.92244 18.4262 6.92244H35.9006C36.3621 6.92244 36.7393 7.2962 36.7393 7.76107C36.7393 8.22254 36.3655 8.59969 35.9006 8.59969Z" fill="#1C1E21"/>
<path d="M35.9006 15.5209H18.4262C17.9648 15.5209 17.5872 15.1472 17.5872 14.6823C17.5872 14.2174 17.9614 13.8437 18.4262 13.8437H35.9006C36.3621 13.8437 36.7393 14.2174 36.7393 14.6823C36.7393 15.1438 36.3655 15.5209 35.9006 15.5209Z" fill="#1C1E21"/>
<path d="M33.5531 4.02828H33.2031C32.7416 4.02828 32.364 3.65452 32.364 3.18965C32.364 2.72478 32.7416 2.35103 33.2031 2.35103H33.5531C34.0146 2.35103 34.3921 2.72478 34.3921 3.18965C34.3921 3.65113 34.0146 4.02828 33.5531 4.02828Z" fill="#1C1E21"/>
<path d="M31.3151 4.02828H30.9651C30.5036 4.02828 30.1269 3.65452 30.1269 3.18965C30.1269 2.72478 30.5002 2.35103 30.9651 2.35103H31.3151C31.7766 2.35103 32.1542 2.72478 32.1542 3.18965C32.1542 3.65113 31.7766 4.02828 31.3151 4.02828Z" fill="#1C1E21"/>
<path d="M33.5531 11.0917H33.2031C32.7416 11.0917 32.364 10.7179 32.364 10.253C32.364 9.78815 32.7416 9.4144 33.2031 9.4144H33.5531C34.0146 9.4144 34.3921 9.78815 34.3921 10.253C34.3921 10.7145 34.0146 11.0917 33.5531 11.0917Z" fill="#1C1E21"/>
<path d="M31.3151 11.0917H30.9651C30.5036 11.0917 30.1269 10.7179 30.1269 10.253C30.1269 9.78815 30.5002 9.4144 30.9651 9.4144H31.3151C31.7766 9.4144 32.1542 9.78815 32.1542 10.253C32.1542 10.7145 31.7766 11.0917 31.3151 11.0917Z" fill="#1C1E21"/>
<path d="M33.5531 18.1549H33.2031C32.7416 18.1549 32.364 17.7812 32.364 17.3163C32.364 16.8548 32.7416 16.4772 33.2031 16.4772H33.5531C34.0146 16.4772 34.3921 16.8514 34.3921 17.3163C34.3921 17.7778 34.0146 18.1549 33.5531 18.1549Z" fill="#1C1E21"/>
<path d="M31.3151 18.1549H30.9651C30.5036 18.1549 30.1269 17.7812 30.1269 17.3163C30.1269 16.8548 30.5002 16.4772 30.9651 16.4772H31.3151C31.7766 16.4772 32.1542 16.8514 32.1542 17.3163C32.1542 17.7778 31.7766 18.1549 31.3151 18.1549Z" fill="#1C1E21"/>
<path d="M12.3643 49.3849H0.839049C0.377574 49.3849 0 49.0112 0 48.5463V37.0232C0 36.5618 0.377574 36.1846 0.839049 36.1846H12.3643C12.8257 36.1846 13.2033 36.5584 13.2033 37.0232V48.5463C13.2033 49.0112 12.8291 49.3849 12.3643 49.3849ZM1.68088 47.7077H11.5299V37.859H1.68088V47.7077Z" fill="#0DB1F9"/>
<path d="M53.1614 49.3849H41.6351C41.1741 49.3849 40.7965 49.0112 40.7965 48.5463V37.0232C40.7965 36.5618 41.1741 36.1846 41.6351 36.1846H53.1614C53.6229 36.1846 54 36.5584 54 37.0232V48.5463C54 49.0112 53.6229 49.3849 53.1614 49.3849ZM42.4737 47.7077H52.3227V37.859H42.4737V47.7077Z" fill="#0DB1F9"/>
<path d="M32.7612 49.3849H21.2349C20.7734 49.3849 20.3958 49.0112 20.3958 48.5463V37.0232C20.3958 36.5618 20.77 36.1846 21.2349 36.1846H32.7612C33.2226 36.1846 33.5998 36.5584 33.5998 37.0232V48.5463C33.5998 49.0112 33.226 49.3849 32.7612 49.3849ZM22.0734 47.7077H31.9225V37.859H22.0734V47.7077Z" fill="#0DB1F9"/>
<path d="M26.9975 34.986C26.536 34.986 26.1597 34.6118 26.1597 34.1469V26.3091C26.1597 25.8442 26.5326 25.4704 26.9975 25.4704C27.4623 25.4704 27.8365 25.8442 27.8365 26.3091V34.1469C27.8365 34.6118 27.4623 34.986 26.9975 34.986Z" fill="#1C1E21"/>
<path d="M10.8531 35.0696C10.6378 35.0696 10.4255 34.9887 10.2602 34.8234C9.9335 34.4967 9.9335 33.9644 10.2602 33.6377L18.1795 25.7193C18.5062 25.3926 19.0384 25.3926 19.3652 25.7193C19.6919 26.046 19.6919 26.5783 19.3652 26.905L11.4459 34.8234C11.2811 34.9853 11.0654 35.0696 10.8531 35.0696H10.8531Z" fill="#1C1E21"/>
<path d="M43.1495 35.0696C42.9342 35.0696 42.7219 34.9887 42.5567 34.8234L34.6379 26.905C34.3112 26.5783 34.3112 26.0461 34.6379 25.7193C34.9646 25.3926 35.4968 25.3926 35.8236 25.7193L43.7424 33.6377C44.0691 33.9644 44.0691 34.4966 43.7424 34.8234C43.5776 34.9853 43.3652 35.0696 43.1496 35.0696H43.1495Z" fill="#1C1E21"/>
</svg>
