<svg width="50" height="49" viewBox="0 0 50 49" fill="none" xmlns="http://www.w3.org/2000/svg">
<path d="M40.3508 35.9654H39.7454C40.8811 32.7543 40.3923 29.1926 38.4347 26.4056C36.4771 23.6185 33.2918 21.9511 29.8861 21.9303H29.8246C27.5936 21.9393 25.4226 22.6532 23.6216 23.9706C21.821 25.2876 20.4828 27.1403 19.7983 29.2636C19.0652 29.0544 18.3063 28.9479 17.5439 28.9479C15.5742 28.8962 13.6592 29.5996 12.1914 30.9141C10.7236 32.2287 9.81395 34.0548 9.64914 36.0179C7.9527 36.2317 6.393 37.0572 5.26237 38.3397C4.13185 39.6222 3.50839 41.2732 3.50879 42.9829C3.50879 44.379 4.0633 45.7175 5.05014 46.7047C6.03738 47.6916 7.37586 48.2461 8.77195 48.2461H42.1053C43.5014 48.2461 44.8398 47.6916 45.8271 46.7047C46.8139 45.7175 47.3685 44.379 47.3685 42.9829C47.3685 41.1217 46.6291 39.3367 45.3129 38.0209C43.9971 36.7047 42.2121 35.9654 40.3508 35.9654ZM42.1052 46.4917H8.77189C7.84144 46.4917 6.94893 46.1221 6.29068 45.4642C5.63279 44.8059 5.26311 43.9134 5.26311 42.983C5.26311 41.5869 5.81762 40.2484 6.80447 39.2612C7.79171 38.2743 9.13018 37.7198 10.5263 37.7198L11.4649 37.6407L11.4035 36.6934V36.404C11.4653 34.8349 12.1459 33.3542 13.2965 32.2855C14.4474 31.2168 15.9743 30.6478 17.5438 30.7023C18.4085 30.7023 19.2645 30.8754 20.0614 31.211L21.0526 31.5795L21.2805 30.5531C21.7128 28.608 22.7948 26.8685 24.3475 25.6201C25.9002 24.3716 27.8321 23.689 29.8245 23.6847H29.877C32.1393 23.7164 34.3033 24.6132 35.9249 26.1906C37.5466 27.7683 38.5025 29.9069 38.5964 32.1672C38.6458 33.6502 38.3137 35.1211 37.6315 36.4392L36.9736 37.7197H40.3508C41.7469 37.7197 43.0854 38.2742 44.0727 39.2611C45.0595 40.2483 45.614 41.5868 45.614 42.9829C45.614 43.9133 45.2443 44.8058 44.5864 45.4641C43.9282 46.122 43.0357 46.4917 42.1052 46.4917Z" fill="#1C1E21"/>
<path d="M3.50877 34.211H4.38597V35.0882H3.50877V34.211ZM4.38597 33.3338H3.50877V32.4566H4.38597V33.3338ZM4.38597 31.5795H3.50877V30.7023H4.38597V31.5795ZM4.38597 29.8251H3.50877V28.9479H4.38597V29.8251ZM4.38597 28.0707H3.50877V27.1935H4.38597V28.0707ZM4.38597 26.3163H3.50877V25.4391H4.38597V26.3163ZM4.38597 24.5619H3.50877V23.6847H4.38597V24.5619ZM4.38597 22.8075H3.50877V21.9303H4.38597V22.8075ZM5.70176 14.0356H2.19298V13.1584H5.70176V14.0356ZM5.70176 15.79H2.19298V14.9128H5.70176V15.79ZM7.89474 21.0531V11.404H0V17.983L3.07018 21.0531H7.89474ZM0.877193 12.2812H7.01755V20.1759H3.94737V17.1058H0.877193V12.2812ZM1.23668 17.983H3.07017V19.8074L1.23668 17.983ZM5.26315 35.0877V34.2105H6.14034V35.0877H5.26315ZM7.01754 35.0877V34.2105H7.89473V35.0877H7.01754ZM15.7895 26.3158H16.6667V27.193H15.7895V26.3158ZM16.6667 25.4386H15.7895V24.5614H16.6667V25.4386ZM16.6667 23.6842H15.7895V22.807H16.6667V23.6842ZM16.6667 21.9298H15.7895V21.0526H16.6667V21.9298ZM16.6667 20.1754H15.7895V19.2983H16.6667V20.1754ZM16.6667 18.4211H15.7895V17.5439H16.6667V18.4211ZM16.6667 16.6667H15.7895V15.7895H16.6667V16.6667ZM16.6667 14.9123H15.7895V14.0351H16.6667V14.9123ZM16.6667 13.1579H15.7895V12.2807H16.6667V13.1579ZM16.6667 11.4035H15.7895V10.5263H16.6667V11.4035ZM16.6667 9.64913H15.7895V8.77193H16.6667V9.64913ZM21.0526 1.75439H15.7895V0.877193C15.7895 0.644581 15.697 0.421364 15.5326 0.256892C15.3681 0.0924211 15.1449 0 14.9123 0H12.2807C11.7963 0 11.4035 0.392782 11.4035 0.877193V7.89474H21.0526V1.75439ZM12.2807 0.877193H14.9123V1.75439H12.2807V0.877193ZM20.1754 7.01755H12.2807V2.63158H20.1754V7.01755ZM28.9474 20.1754H28.0702V19.2983H28.9474V20.1754ZM28.9474 18.4211H28.0702V17.5439H28.9474V18.4211ZM28.9474 16.6667H28.0702V15.7895H28.9474V16.6667ZM28.9474 14.9123H28.0702V14.0351H28.9474V14.9123ZM28.9474 13.1579H28.0702V12.2807H28.9474V13.1579ZM28.9474 11.4035H28.0702V10.5263H28.9474V11.4035ZM28.9474 9.64913H28.0702V8.77193H28.9474V9.64913ZM28.9474 7.89474H28.0702V7.01755H28.9474V7.89474ZM28.9474 6.14035H28.0702V5.26316H28.9474V6.14035ZM28.9474 4.38597H28.0702V3.50877H28.9474V4.38597ZM30.7018 4.38597H29.8246V3.50877H30.7018V4.38597ZM32.4561 4.38597H31.5789V3.50877H32.4561V4.38597ZM35.0877 5.65795L33.237 3.94747L35.0877 2.23699C35.2686 2.09171 35.5318 2.11246 35.6877 2.28477C35.8431 2.45668 35.838 2.72024 35.6755 2.88627L34.5438 3.94753L35.7018 5.00878C35.8643 5.17481 35.8698 5.43837 35.7139 5.61028C35.5581 5.78259 35.2949 5.80335 35.114 5.65806L35.0877 5.65795ZM38.8334 5.00866L40.0175 3.94741L38.8596 2.88616C38.6802 2.71659 38.6724 2.43386 38.8419 2.2545C39.0115 2.07514 39.2942 2.06731 39.4736 2.23687L41.3243 3.94735L39.4736 5.65783C39.2927 5.80311 39.0295 5.78236 38.8736 5.61005C38.7182 5.43814 38.7233 5.17458 38.8858 5.00855L38.8334 5.00866ZM35.9649 6.43884L37.7193 1.17568C37.7565 1.06485 37.836 0.974005 37.9406 0.921925C38.0451 0.870234 38.1657 0.862009 38.2762 0.899212C38.5064 0.97675 38.6302 1.2262 38.5526 1.45607L36.7982 6.71923C36.7383 6.89663 36.5731 7.01607 36.3859 7.01764H36.2457C36.129 6.982 36.0323 6.89937 35.979 6.78934C35.9258 6.67968 35.9207 6.5524 35.9649 6.43884ZM45.614 33.3331H46.4912V34.2103H45.614V33.3331ZM45.614 31.5787H46.4912V32.4559H45.614V31.5787ZM45.614 29.8243H46.4912V30.7015H45.614V29.8243ZM45.614 28.0699H46.4912V28.9471H45.614V28.0699ZM45.614 26.3155H46.4912V27.1927H45.614V26.3155ZM45.614 24.5611H46.4912V25.4383H45.614V24.5611ZM45.614 22.8068H46.4912V23.684H45.614V22.8068ZM46.4912 21.9296H45.614V21.0524H46.4912V21.9296ZM44.7368 33.3331V34.2103H43.8596V33.3331H44.7368ZM42.9825 34.2103H42.1053V33.3331H42.9825V34.2103ZM46.4912 11.4033H46.0526C45.0059 11.4033 44.0018 11.8191 43.2613 12.5592C42.5211 13.2998 42.1053 14.3038 42.1053 15.3506C42.1053 16.3974 42.5211 17.4014 43.2613 18.142C44.0018 18.8821 45.0058 19.298 46.0526 19.298C47.0994 19.298 48.1035 18.8821 48.844 18.142C49.5841 17.4015 50 16.3974 50 15.3506V14.912H46.4912V11.4033ZM49.1228 15.7892C49.0053 16.5391 48.6137 17.2194 48.0244 17.6975C47.4346 18.176 46.6886 18.4188 45.9304 18.3797C45.1723 18.3401 44.4556 18.0213 43.9188 17.4845C43.3819 16.9476 43.0631 16.2309 43.0236 15.4728C42.9844 14.7147 43.2272 13.9687 43.7058 13.3789C44.1839 12.7895 44.8642 12.3979 45.614 12.2804V15.7892H49.1228ZM50 14.4734H46.9298V11.4033C47.744 11.4033 48.5248 11.7267 49.1009 12.3024C49.6765 12.8784 50 13.6593 50 14.4734Z" fill="#0DB1F9"/>
</svg>
