<svg width="52" height="52" viewBox="0 0 52 52" fill="none" xmlns="http://www.w3.org/2000/svg">
<path d="M23.2802 23.68C23.7601 23.68 24.0802 23.36 24.0802 22.8801C24.0802 22.4002 23.7601 22.0801 23.2802 22.0801C22.8003 22.0801 22.4803 22.4002 22.4803 22.8801C22.4803 23.3603 22.8802 23.68 23.2802 23.68Z" fill="#0DB1F9"/>
<path d="M23.2802 29.6794C23.7601 29.6794 24.0802 29.3594 24.0802 28.8795C24.0802 28.3996 23.7601 28.0795 23.2802 28.0795C22.8003 28.0795 22.4803 28.3996 22.4803 28.8795C22.4803 29.2794 22.8802 29.6794 23.2802 29.6794Z" fill="#0DB1F9"/>
<path d="M23.2802 34.5596C22.8003 34.5596 22.4803 34.8797 22.4803 35.3596C22.4803 35.8395 22.8802 36.1595 23.2802 36.1595C23.6802 36.1595 24.0802 35.8395 24.0802 35.3596C24.0802 34.8797 23.7601 34.5596 23.2802 34.5596Z" fill="#0DB1F9"/>
<path d="M26.4001 23.68C26.88 23.68 27.2001 23.36 27.2001 22.8801C27.2001 22.4002 26.88 22.0801 26.4001 22.0801C25.9202 22.0801 25.6002 22.4002 25.6002 22.8801C25.6002 23.3603 25.9202 23.68 26.4001 23.68Z" fill="#0DB1F9"/>
<path d="M29.4399 23.68C29.9198 23.68 30.2398 23.36 30.2398 22.8801C30.2398 22.4002 29.9198 22.0801 29.4399 22.0801C28.96 22.0801 28.6399 22.4002 28.6399 22.8801C28.6399 23.3603 29.0399 23.68 29.4399 23.68Z" fill="#0DB1F9"/>
<path d="M26.4001 29.6794C26.88 29.6794 27.2001 29.3594 27.2001 28.8795C27.2001 28.3996 26.88 28.0795 26.4001 28.0795C25.9202 28.0795 25.6002 28.3996 25.6002 28.8795C25.6002 29.2794 25.9202 29.6794 26.4001 29.6794Z" fill="#0DB1F9"/>
<path d="M29.4399 29.6794C29.9198 29.6794 30.2398 29.3594 30.2398 28.8795C30.2398 28.3996 29.9198 28.0795 29.4399 28.0795C28.96 28.0795 28.6399 28.3996 28.6399 28.8795C28.6399 29.2794 29.0399 29.6794 29.4399 29.6794Z" fill="#0DB1F9"/>
<path d="M26.4001 34.5596C25.9202 34.5596 25.6002 34.8797 25.6002 35.3596C25.6002 35.8395 26.0002 36.1595 26.4001 36.1595C26.8001 36.1595 27.2001 35.8395 27.2001 35.3596C27.2001 34.8797 26.8001 34.5596 26.4001 34.5596Z" fill="#0DB1F9"/>
<path d="M29.4399 34.5596C28.96 34.5596 28.6399 34.8797 28.6399 35.3596C28.6399 35.8395 29.0399 36.1595 29.4399 36.1595C29.9198 36.1595 30.2398 35.8395 30.2398 35.3596C30.2398 34.8797 29.9198 34.5596 29.4399 34.5596Z" fill="#0DB1F9"/>
<path d="M0.800426 30.56H7.04061C7.52051 30.56 7.84057 30.24 7.84057 29.7601V27.68H17.8405V31.5998H9.44022C8.96032 31.5998 8.64026 31.9198 8.64026 32.3997V44.5597C7.04033 44.9597 5.92031 46.3198 5.92031 47.9996C5.92031 49.9196 7.52024 51.5195 9.44018 51.5195C11.3601 51.5195 12.96 49.9196 12.96 47.9996C12.96 46.3198 11.7601 44.9597 10.2401 44.5597V33.2002H17.7601V35.1202C17.7601 37.7601 22.1602 39.2002 26.3202 39.2002C30.4802 39.2002 34.8803 37.7601 34.8803 35.1202V33.2002H42.4003V44.5597C40.8004 44.9597 39.6803 46.3198 39.6803 47.9996C39.6803 49.9196 41.2803 51.5195 43.2002 51.5195C45.1201 51.5195 46.7201 49.9196 46.7201 47.9996C46.7201 46.3198 45.5201 44.9597 44.0001 44.5597V32.3997C44.0001 31.9198 43.6801 31.5998 43.2002 31.5998L34.9601 31.5994V27.6796H44.1599V29.7597C44.1599 30.2396 44.48 30.5597 44.9599 30.5597H51.2C51.6799 30.5597 52 30.2396 52 29.7597V23.9199C52 23.44 51.68 23.1199 51.2 23.1199H44.9599C44.48 23.1199 44.1599 23.44 44.1599 23.9199V26L34.9601 25.9996V19.9197H43.28C43.7599 19.9197 44.08 19.5997 44.08 19.1198V6.95977C45.6799 6.55979 46.7999 5.19965 46.7999 3.51986C46.7999 1.59993 45.2 0 43.2801 0C41.3601 0 39.7602 1.59993 39.7602 3.51986C39.7602 5.19965 40.9602 6.55981 42.4802 6.95977V18.3193H34.9601V16.3993C34.9601 13.7594 30.56 12.3193 26.4001 12.3193C22.2401 12.3193 17.84 13.7594 17.84 16.3993V18.3193H10.32V6.95977C11.9199 6.55979 13.0399 5.19965 13.0399 3.51986C13.0399 1.59993 11.44 0 9.52004 0C7.6001 0 6.00017 1.59993 6.00017 3.51986C6.00017 5.19965 7.20014 6.55981 8.72012 6.95977V19.1198C8.72012 19.5997 9.04017 19.9197 9.52008 19.9197H17.84V25.9996L7.8401 26V23.9199C7.8401 23.44 7.52005 23.1199 7.04014 23.1199H0.799955C0.320061 23.1199 0 23.44 0 23.9199V29.76C0 30.2399 0.320052 30.56 0.799955 30.56L0.800426 30.56ZM11.3604 48C11.3604 49.0401 10.4805 49.9199 9.44046 49.9199C8.4004 49.9199 7.52053 49.0401 7.52053 48C7.52053 46.96 8.4004 46.0801 9.44046 46.0801C10.4805 46.0002 11.3604 46.88 11.3604 48ZM45.2004 48C45.2004 49.0401 44.3205 49.9199 43.2804 49.9199C42.2404 49.9199 41.3605 49.0401 41.3605 48C41.3605 46.96 42.2404 46.0801 43.2804 46.0801C44.3205 46.0002 45.2004 46.88 45.2004 48ZM45.7602 24.72H50.4001L50.4004 28.9599H45.7606L45.7602 24.72ZM41.3605 3.51992C41.3605 2.47986 42.2403 1.59999 43.2804 1.59999C44.3205 1.59999 45.2003 2.47986 45.2003 3.51992C45.2003 4.55998 44.3205 5.43986 43.2804 5.43986C42.2403 5.51978 41.3605 4.6399 41.3605 3.51992ZM7.52048 3.51992C7.52048 2.47986 8.40035 1.59999 9.44041 1.59999C10.4805 1.59999 11.3603 2.47986 11.3603 3.51992C11.3603 4.55998 10.4805 5.43986 9.44041 5.43986C8.40035 5.51978 7.52048 4.6399 7.52048 3.51992ZM26.4002 20.5601C31.1203 20.5601 33.2801 18.9602 33.36 18.9602V22.7202C33.36 23.7603 30.64 25.2004 26.4002 25.2004C22.1604 25.2004 19.4404 23.7604 19.4404 22.7202V18.9602C19.4404 18.9602 21.6805 20.5601 26.4002 20.5601ZM26.4002 26.7204C28.6402 26.7204 31.5204 26.2405 33.36 25.1204V28.8804C33.36 29.9205 30.64 31.3606 26.4002 31.3606C22.1604 31.3606 19.4404 29.9206 19.4404 28.8804V25.1204C21.2002 26.32 24.1603 26.7204 26.4002 26.7204ZM33.3603 35.0403C33.3603 36.0804 30.6404 37.5205 26.4006 37.5205C22.1607 37.5205 19.4408 36.0805 19.4408 35.0403V31.2803C21.2809 32.4803 24.2409 32.8802 26.4006 32.8802C28.6406 32.8802 31.6006 32.4003 33.3603 31.2803V35.0403ZM26.4002 14.0005C30.6401 14.0005 33.36 15.4405 33.36 16.4807C33.36 17.5208 30.64 18.9609 26.4002 18.9609C22.1604 18.9609 19.4404 17.5208 19.4404 16.4807C19.4404 15.4405 22.0804 14.0005 26.4002 14.0005ZM1.6003 24.7208H6.24018L6.24055 28.9607H1.60029L1.6003 24.7208Z" fill="#1C1E21"/>
</svg>
