<svg width="40" height="50" viewBox="0 0 40 50" fill="none" xmlns="http://www.w3.org/2000/svg">
<path d="M29.756 0.244048C29.5997 0.0878 29.3876 0 29.1667 0H5.83333C4.28686 0.0018601 2.8039 0.616819 1.71057 1.71057C0.616857 2.8039 0.00190476 4.28686 0 5.83333V44.1667C0.0018601 45.7131 0.616819 47.1961 1.71057 48.2894C2.8039 49.3831 4.28686 49.9981 5.83333 50H34.1667C35.7131 49.9981 37.1961 49.3832 38.2894 48.2894C39.3831 47.1961 39.9981 45.7131 40 44.1667V10.8333C40 10.6124 39.9122 10.4003 39.756 10.244L29.756 0.244048ZM30 2.84519L37.1548 9.99995H34.1667C33.0621 9.99884 32.003 9.55948 31.2217 8.77824C30.4405 7.997 30.0011 6.93786 30 5.83329V2.84519ZM5.83333 1.66662H28.3333V5.83329C28.3352 7.37976 28.9502 8.86271 30.0439 9.95605C31.1372 11.0498 32.6202 11.6647 34.1667 11.6666H38.3333V35H1.66667V5.83329C1.66778 4.72871 2.10714 3.66957 2.88838 2.88833C3.66962 2.1071 4.72876 1.66776 5.83333 1.66662ZM34.1667 48.3333H5.83333C4.72876 48.3322 3.66962 47.8928 2.88838 47.1116C2.10714 46.3303 1.66781 45.2712 1.66667 44.1666V36.6666H38.3333V44.1666C38.3322 45.2712 37.8929 46.3303 37.1116 47.1116C36.3304 47.8928 35.2712 48.3321 34.1667 48.3333Z" fill="#1C1E21"/>
<path d="M12.4998 40H14.1665C14.6267 40 14.9998 39.6269 14.9998 39.1667C14.9998 38.7065 14.6267 38.3334 14.1665 38.3334H12.4998C11.6066 38.3334 10.7815 38.8099 10.3347 39.5834C9.88828 40.3568 9.88828 41.3099 10.3347 42.0834C10.7815 42.8568 11.6066 43.3334 12.4998 43.3334C12.96 43.3334 13.3332 43.7065 13.3332 44.1667C13.3332 44.6269 12.96 45 12.4998 45H10.8332C10.373 45 9.99985 45.3732 9.99985 45.8334C9.99985 46.2936 10.373 46.6667 10.8332 46.6667H12.4998C13.3931 46.6667 14.2182 46.1901 14.665 45.4167C15.1114 44.6433 15.1114 43.6901 14.665 42.9167C14.2182 42.1433 13.3931 41.6667 12.4998 41.6667C12.0397 41.6667 11.6665 41.2936 11.6665 40.8334C11.6665 40.3732 12.0397 40 12.4998 40Z" fill="#1C1E21"/>
<path d="M29.1664 45H26.6664V39.1667C26.6664 38.7065 26.2933 38.3334 25.8331 38.3334C25.3729 38.3334 24.9998 38.7065 24.9998 39.1667V45.8334C24.9998 46.0544 25.0876 46.2664 25.2438 46.4227C25.4001 46.5789 25.6121 46.6667 25.8331 46.6667H29.1664C29.6266 46.6667 29.9998 46.2936 29.9998 45.8334C29.9998 45.3732 29.6266 45 29.1664 45Z" fill="#1C1E21"/>
<path d="M22.7302 44.8858C23.1312 44.1551 23.3388 43.3341 23.3329 42.5003C23.3329 40.2027 21.8377 38.3337 19.9995 38.3337C18.1613 38.3337 16.6662 40.2027 16.6662 42.5003C16.6662 44.798 18.1613 46.667 19.9995 46.667C20.5832 46.6629 21.151 46.4777 21.6245 46.1369L21.9106 46.423C22.2361 46.7485 22.7636 46.7485 23.0891 46.423C23.4147 46.0974 23.4147 45.5699 23.0891 45.2444L22.7302 44.8858ZM19.9995 45.0004C19.0962 45.0004 18.3328 43.8556 18.3328 42.5004C18.3328 41.1451 19.0962 40.0004 19.9995 40.0004C20.9028 40.0004 21.6662 41.1451 21.6662 42.5004C21.6673 42.8861 21.6037 43.269 21.4779 43.6335L20.5888 42.7444C20.2633 42.4188 19.7358 42.4188 19.4102 42.7444C19.0847 43.0699 19.0847 43.5974 19.4102 43.9229L20.408 44.9207C20.2782 44.9728 20.1394 45 19.9996 45.0004L19.9995 45.0004Z" fill="#1C1E21"/>
<path d="M14.516 29.4915C15.99 29.8192 17.9375 29.9997 20 29.9997C22.0625 29.9997 24.0104 29.8192 25.484 29.4915C26.7072 29.2199 28.3333 28.7177 28.3333 27.4997V12.4997C28.3333 11.2817 26.7072 10.7795 25.484 10.5079C24.0104 10.1801 22.0625 9.99968 20 9.99968C17.9375 9.99968 15.9896 10.1801 14.516 10.5079C13.2927 10.7794 11.6667 11.2817 11.6667 12.4997V27.4997C11.6667 28.7177 13.2927 29.2199 14.516 29.4915ZM20 28.333C16.1726 28.333 13.8407 27.7024 13.3333 27.3308V24.1616C13.7202 24.2963 14.1153 24.4064 14.516 24.4916C15.99 24.8193 17.9375 24.9997 20 24.9997C22.0625 24.9997 24.0104 24.8193 25.484 24.4916C25.8847 24.4064 26.2797 24.2962 26.6667 24.1616V27.3304C26.1592 27.7025 23.8274 28.333 20 28.333ZM13.3333 19.1615C13.7202 19.2962 14.1153 19.4063 14.516 19.4915C15.99 19.8192 17.9375 19.9996 20 19.9996C22.0625 19.9996 24.0104 19.8192 25.484 19.4915C25.8847 19.4063 26.2797 19.2961 26.6667 19.1615V22.3297C26.1618 22.7009 23.8307 23.3326 20 23.3326C16.1692 23.3326 13.8382 22.7009 13.3333 22.3297V19.1615ZM13.3333 14.1615C13.7202 14.2962 14.1153 14.4063 14.516 14.4915C15.99 14.8192 17.9375 14.9996 20 14.9996C22.0625 14.9996 24.0104 14.8192 25.484 14.4915C25.8847 14.4063 26.2797 14.2961 26.6667 14.1615V17.3297C26.1618 17.7009 23.8307 18.3326 20 18.3326C16.1692 18.3326 13.8382 17.7009 13.3333 17.3297V14.1615ZM20 11.6663C23.2916 11.6663 25.4766 12.1329 26.3471 12.4997C25.4766 12.8665 23.2913 13.333 20 13.333C16.7087 13.333 14.5234 12.8665 13.6528 12.4997C14.5234 12.1329 16.7083 11.6663 20 11.6663Z" fill="#0DB1F9"/>
</svg>
