<svg width="50" height="51" viewBox="0 0 50 51" fill="none" xmlns="http://www.w3.org/2000/svg">
<path d="M49.9979 8.32975C49.9979 6.67504 48.6518 5.32893 46.9971 5.32893H24.7533C24.2022 5.32893 23.6867 5.05807 23.375 4.60313L21.0783 1.25551C20.5385 0.469115 19.6474 0 18.694 0L3.0626 0.000374121C1.37418 0.000374121 0 1.37417 0 3.06259C0.00074829 10.5711 0.0022448 28.5493 0.00336709 39.1563C0.00336709 40.862 1.37716 42.2496 3.06596 42.2496H15.0982C15.2983 42.7419 15.5329 43.2201 15.8064 43.6799L14.9451 45.0248C14.7476 45.3324 14.7914 45.7353 15.0499 45.9934L17.243 48.1865C17.5004 48.4446 17.9044 48.4888 18.2108 48.292L19.5579 47.4311C20.43 47.9497 21.3642 48.3369 22.3452 48.5879L22.6875 50.1464C22.7657 50.5026 23.0814 50.7566 23.4466 50.7566H26.5503C26.9154 50.7566 27.2312 50.503 27.3094 50.1464L27.6521 48.5879C28.6315 48.3372 29.5664 47.9496 30.4404 47.4311L31.7857 48.292C32.094 48.4888 32.4965 48.4454 32.7539 48.1865L34.9469 45.9934C35.2051 45.7353 35.2489 45.3331 35.0525 45.0256L34.1916 43.6777C34.4643 43.2179 34.6985 42.7405 34.8983 42.2497H46.9372C48.6256 42.2497 49.9998 40.8621 49.9998 39.1564C49.9998 36.0045 50.0009 50.5747 49.9976 8.3303L49.9979 8.32975ZM1.55586 3.06251C1.55586 2.23121 2.23227 1.55482 3.06394 1.55482H18.6954C19.1365 1.55482 19.5484 1.77181 19.7975 2.13471L22.0942 5.48233C22.6962 6.36002 23.6906 6.88342 24.7546 6.88342H46.9983C47.7955 6.88342 48.4443 7.53252 48.4443 8.32943V11.8409L1.55673 11.8413L1.55586 3.06251ZM32.0975 46.6449L30.8648 45.8562C30.6067 45.6916 30.2752 45.6931 30.0189 45.8622C29.0447 46.5027 27.9762 46.946 26.843 47.1791C26.5426 47.2405 26.3058 47.4736 26.2403 47.7736L25.9261 49.2016H24.0726L23.7587 47.7736C23.6929 47.4739 23.4568 47.2416 23.1564 47.1791C22.021 46.9453 20.9528 46.502 19.9827 45.8622C19.7261 45.6924 19.3946 45.6912 19.1365 45.8562L17.9014 46.6449L16.592 45.3362L17.3818 44.1027C17.5479 43.8438 17.5453 43.5113 17.3762 43.255C16.7353 42.2856 16.2912 41.2168 16.0571 40.0798C15.9953 39.7794 15.7622 39.5441 15.4626 39.4779L14.035 39.1644L14.0346 37.3099L15.4622 36.9964C15.7615 36.9302 15.9946 36.6941 16.0567 36.3937C16.2905 35.2589 16.7338 34.1901 17.3743 33.2185C17.5431 32.9619 17.5457 32.6304 17.38 32.3715L16.5917 31.1388L17.9011 29.8294L19.1361 30.618C19.395 30.7826 19.7269 30.7819 19.9824 30.612C20.9525 29.9723 22.0206 29.5289 23.1561 29.2951C23.4565 29.233 23.6926 29.0007 23.7584 28.7006L24.0723 27.2726H25.9257L26.24 28.7006C26.3059 29.0003 26.5423 29.2334 26.8427 29.2951C27.9759 29.5282 29.0444 29.9715 30.0186 30.612C30.2753 30.7819 30.6064 30.7819 30.8645 30.618L32.0972 29.8294L33.4067 31.1388L32.618 32.3745C32.4526 32.6334 32.4553 32.9652 32.6244 33.2215C33.2641 34.1886 33.7071 35.2567 33.9417 36.3944C34.0034 36.6948 34.2365 36.9302 34.5361 36.9964L35.9637 37.3099V39.1644L34.5369 39.4779C34.2376 39.5441 34.0045 39.7794 33.9424 40.0799C33.709 41.2131 33.2653 42.2812 32.6247 43.2543C32.456 43.5102 32.4534 43.8417 32.6188 44.0998L33.4074 45.3355L32.0975 46.6449ZM48.4454 39.1558C48.4454 40.0043 47.7689 40.6945 46.9373 40.6945H36.2411L36.9078 40.5478C37.2644 40.4696 37.518 40.1539 37.518 39.7887V36.6847C37.518 36.3195 37.264 36.0038 36.9078 35.9256L35.3503 35.5833C35.0985 34.6 34.7113 33.6666 34.1932 32.796L35.0537 31.4489C35.2497 31.1413 35.2063 30.7391 34.9482 30.4811L32.7551 28.288C32.497 28.0291 32.0948 27.9865 31.7869 28.1825L30.4416 29.0433C29.5676 28.5248 28.6327 28.1369 27.6533 27.8866L27.3106 26.328C27.2324 25.9711 26.9166 25.7178 26.5515 25.7178H23.4478C23.0827 25.7178 22.7669 25.9722 22.6887 26.328L22.3464 27.8866C21.3655 28.138 20.4313 28.5248 19.5591 29.0433L18.212 28.1825C17.9059 27.9868 17.5023 28.0298 17.2442 28.288L15.0511 30.4811C14.793 30.7392 14.7492 31.1421 14.946 31.4496L15.8065 32.7946C15.2879 33.6682 14.9003 34.6027 14.6493 35.5833L13.0914 35.9256C12.7349 36.0038 12.4812 36.3195 12.4812 36.6847V39.7887C12.4812 40.1539 12.7353 40.4696 13.0914 40.5478L13.7581 40.6945H3.06675C2.23508 40.6945 1.55868 40.0046 1.55868 39.1558L1.55905 13.3952H48.4457L48.4454 39.1558Z" fill="#1C1E21"/>
<path d="M6.47872 22.2688H16.6088C17.038 22.2688 17.3863 21.9213 17.3863 21.4914V17.4547C17.3863 17.0252 17.0383 16.6773 16.6088 16.6773L6.47872 16.6776C6.0496 16.6776 5.70129 17.0252 5.70129 17.4551V21.4918C5.70129 21.9213 6.04923 22.2688 6.47872 22.2688ZM7.25577 18.2321H15.8317V20.7144H7.25577V18.2321Z" fill="#0DB1F9"/>
<path d="M24.9997 32.9669C22.0935 32.9669 19.7291 35.3314 19.7291 38.2371C19.7291 41.1437 22.0936 43.5081 24.9997 43.5081C27.9058 43.5081 30.2699 41.1436 30.2699 38.2371C30.2699 35.3313 27.9058 32.9669 24.9997 32.9669ZM24.9997 41.9536C22.9505 41.9536 21.2835 40.2866 21.2835 38.2371C21.2835 36.1884 22.9505 34.5213 24.9997 34.5213C27.0484 34.5213 28.7154 36.1884 28.7154 38.2371C28.7154 40.2865 27.0484 41.9536 24.9997 41.9536Z" fill="#0DB1F9"/>
</svg>
