<svg width="48" height="50" viewBox="0 0 48 50" fill="none" xmlns="http://www.w3.org/2000/svg">
<path d="M46.7275 25.0615C46.1595 25.0615 45.6949 25.5261 45.6949 26.0941C45.6949 38.0729 35.9363 47.8832 23.9058 47.8832C11.8752 47.8832 2.11659 38.1246 2.11659 26.1457C2.11659 14.6315 11.049 5.23428 22.3568 4.45978L21.4276 5.18263C20.9629 5.54423 20.8596 6.2152 21.2212 6.6798C21.4275 6.93804 21.7377 7.09291 22.0474 7.09291C22.2538 7.09291 22.512 7.04141 22.6669 6.88654L26.1777 4.20153C26.436 3.99515 26.5909 3.68505 26.5909 3.32381C26.5909 2.9622 26.3845 2.65247 26.1262 2.4976L22.6154 0.174199C22.1508 -0.135544 21.4794 -0.0321767 21.1696 0.483942C20.8599 0.948557 20.9633 1.61987 21.4794 1.92967L22.2022 2.39428C9.81029 3.2205 0 13.547 0 26.1455C0 39.312 10.6881 50 23.8545 50C37.0209 50.0004 47.7606 39.312 47.7606 26.1455C47.7606 25.5775 47.296 25.0614 46.728 25.0614L46.7275 25.0615Z" fill="#1C1E21"/>
<path d="M47.1922 20.621C47.1922 21.3338 46.6145 21.9119 45.9014 21.9119C45.1886 21.9119 44.6105 21.3338 44.6105 20.621C44.6105 19.9079 45.1886 19.3302 45.9014 19.3302C46.6145 19.3302 47.1922 19.9079 47.1922 20.621Z" fill="#1C1E21"/>
<path d="M45.5399 15.8191C45.5399 16.5323 44.9618 17.11 44.2491 17.11C43.5363 17.11 42.9583 16.5323 42.9583 15.8191C42.9583 15.1064 43.5363 14.5283 44.2491 14.5283C44.9618 14.5283 45.5399 15.1064 45.5399 15.8191Z" fill="#1C1E21"/>
<path d="M42.4419 11.3271C42.4419 12.0398 41.8642 12.6179 41.1511 12.6179C40.4383 12.6179 39.8602 12.0398 39.8602 11.3271C39.8602 10.614 40.4383 10.0363 41.1511 10.0363C41.8642 10.0363 42.4419 10.614 42.4419 11.3271Z" fill="#1C1E21"/>
<path d="M38.1564 7.45462C38.1564 8.16738 37.5787 8.74544 36.8656 8.74544C36.1528 8.74544 35.5748 8.16738 35.5748 7.45462C35.5748 6.74149 36.1528 6.16379 36.8656 6.16379C37.5787 6.16379 38.1564 6.74149 38.1564 7.45462Z" fill="#1C1E21"/>
<path d="M33.0447 4.76962C33.0447 5.48274 32.4667 6.06045 31.7539 6.06045C31.0408 6.06045 30.4631 5.48274 30.4631 4.76962C30.4631 4.05685 31.0408 3.47879 31.7539 3.47879C32.4667 3.47879 33.0447 4.05685 33.0447 4.76962Z" fill="#1C1E21"/>
<path d="M33.0448 20.9825C33.0448 20.4145 32.5802 19.898 31.9603 19.898L17.9677 19.8984L20.343 17.523C20.7561 17.1099 20.7561 16.4386 20.343 16.0259C20.1367 15.8195 19.8784 15.7161 19.5687 15.7161C19.3104 15.7161 19.0007 15.8195 18.7943 16.0259L14.6121 20.2081C14.199 20.6212 14.199 21.2925 14.6121 21.7052L18.7943 25.9393C19.0007 26.1457 19.2589 26.2491 19.5687 26.2491C19.8784 26.2491 20.1367 26.1457 20.343 25.9393C20.5494 25.733 20.6528 25.4747 20.6528 25.165C20.6528 24.8552 20.5494 24.597 20.343 24.3906L17.9677 21.9639H31.9603C32.5279 22.0669 33.0444 21.5504 33.0444 20.9824L33.0448 20.9825Z" fill="#0DB1F9"/>
<path d="M28.0879 37.1436C28.3976 37.1436 28.6559 37.0403 28.8622 36.8339L33.0444 32.5998C33.4575 32.1867 33.4575 31.5153 33.0444 31.1026L28.8622 26.9204C28.4491 26.5073 27.7778 26.5073 27.3651 26.9204C26.952 27.3335 26.952 28.0049 27.3651 28.4176L29.7404 30.7929H15.6962C15.1282 30.7929 14.6117 31.2575 14.6117 31.8774C14.6117 32.4454 15.0763 32.9619 15.6962 32.9619H29.6887L27.3134 35.3886C27.1071 35.595 27.0037 35.8532 27.0037 36.163C27.0037 36.4727 27.1071 36.731 27.3134 36.9373C27.5198 37.0403 27.7781 37.1437 28.0878 37.1437L28.0879 37.1436Z" fill="#0DB1F9"/>
</svg>
