<svg width="60" height="59" viewBox="0 0 60 59" fill="none" xmlns="http://www.w3.org/2000/svg">
<path fill-rule="evenodd" clip-rule="evenodd" d="M30.0149 1.6608e-06C22.8881 -0.00236842 15.9932 2.53205 10.5647 7.14949C5.13606 11.7669 1.52825 18.1659 0.387168 25.2007C-0.753915 32.2355 0.646236 39.4467 4.33694 45.5434C8.02765 51.64 13.7679 56.2239 20.53 58.4744C22.0205 58.7526 22.577 57.8235 22.577 57.0335C22.577 56.3181 22.5522 53.953 22.5373 51.444C14.1902 53.2624 12.4313 47.9064 12.4313 47.9064C11.065 44.4284 9.09745 43.5142 9.09745 43.5142C6.37471 41.651 9.30612 41.6908 9.30612 41.6908C12.317 41.9044 13.902 44.7812 13.902 44.7812C16.58 49.3721 20.9225 48.0455 22.6366 47.2654C22.9049 45.3277 23.68 44.0061 24.5396 43.2558C17.8768 42.4957 10.8712 39.922 10.8712 28.4248C10.8265 25.444 11.9335 22.5609 13.9616 20.3759C13.6486 19.6157 12.6201 16.565 14.2498 12.4262C14.2498 12.4262 16.7688 11.6213 22.5025 15.5018C27.4221 14.1569 32.6126 14.1569 37.5322 15.5018C43.2559 11.6213 45.775 12.4262 45.775 12.4262C47.4046 16.56 46.3811 19.6107 46.0681 20.3759C48.0944 22.5616 49.1996 25.4447 49.1536 28.4248C49.1536 39.9518 42.138 42.4907 35.4554 43.231C36.5336 44.1601 37.4925 45.9885 37.4925 48.7858C37.4925 52.8004 37.4577 56.0349 37.4577 57.0236C37.4577 57.8185 37.9943 58.7576 39.5147 58.4595C46.2669 56.2005 51.9958 51.6139 55.6775 45.5195C59.3591 39.4251 60.7535 32.2201 59.6114 25.1921C58.4694 18.1642 54.8653 11.7714 49.4434 7.15631C44.0214 2.54125 37.135 0.00469345 30.0149 1.6608e-06Z" fill="#191717"/>
</svg>
