<svg version="1.1" xmlns="http://www.w3.org/2000/svg" width="60" height="60" viewBox="0 0 255 255">
<path d="M0 0 C74.25 0 148.5 0 225 0 C225 74.25 225 148.5 225 225 C150.75 225 76.5 225 0 225 C0 150.75 0 76.5 0 0 Z " fill="#007DBA" transform="translate(0,0)"></path>
<path d="M0 0 C9.59677016 7.63379445 14.38282654 16.03770405 16.75 28.1875 C16.91723851 30.91551857 17.00499116 33.53355059 16.97705078 36.25585938 C16.97734283 37.01780609 16.97763489 37.77975281 16.97793579 38.56478882 C16.97655557 41.05372989 16.9610569 43.54236199 16.9453125 46.03125 C16.9415777 47.76859371 16.93873294 49.50593955 16.93673706 51.24328613 C16.92913732 55.79380206 16.90952064 60.34418828 16.8873291 64.89465332 C16.8631742 70.36633627 16.85407225 75.83806282 16.84242249 81.30978394 C16.82309382 89.60244588 16.78474585 97.89482381 16.75 106.1875 C5.53 106.1875 -5.69 106.1875 -17.25 106.1875 C-17.30607422 99.30583984 -17.30607422 99.30583984 -17.36328125 92.28515625 C-17.39358779 89.36389605 -17.42475302 86.4426948 -17.45898438 83.52148438 C-17.51313508 78.893505 -17.56425097 74.26564224 -17.59643555 69.63745117 C-17.62260865 65.90249516 -17.66310746 62.16793488 -17.71318626 58.43322563 C-17.72976099 57.01446932 -17.74133339 55.59564472 -17.74761391 54.1768055 C-17.72874796 40.74866917 -17.72874796 40.74866917 -23.75 29.1875 C-29.10706681 24.90184655 -35.70337421 25.65776096 -42.25 26.1875 C-46.03306404 27.10681102 -48.30904792 28.87338684 -50.61186218 32.08944702 C-54.87773088 39.74181028 -54.98426421 47.07464994 -54.95703125 55.6015625 C-54.97017232 57.06702711 -54.98548386 58.5324737 -55.00285339 59.99789429 C-55.04243591 63.82177429 -55.05287632 67.64517764 -55.05688477 71.46923828 C-55.06792197 76.07511373 -55.11579714 80.68074113 -55.15737152 85.28642273 C-55.21620183 92.25366004 -55.22874459 99.2195912 -55.25 106.1875 C-66.14 106.1875 -77.03 106.1875 -88.25 106.1875 C-88.25 70.2175 -88.25 34.2475 -88.25 -2.8125 C-77.36 -2.8125 -66.47 -2.8125 -55.25 -2.8125 C-54.755 3.1275 -54.755 3.1275 -54.25 9.1875 C-53.1775 7.99125 -52.105 6.795 -51 5.5625 C-36.98091114 -8.53169112 -16.71594349 -9.3223531 0 0 Z " fill="#FBFCFD" transform="translate(177.25,87.8125)"></path>
<path d="M0 0 C11.22 0 22.44 0 34 0 C34 35.97 34 71.94 34 109 C22.78 109 11.56 109 0 109 C0 73.03 0 37.06 0 0 Z " fill="#FBFCFD" transform="translate(34,85)"></path>
<path d="M0 0 C5.13556954 3.37320794 7.7282493 6.49724789 9.6875 12.375 C10.428915 19.21789581 9.77803621 24.7237669 5.6875 30.375 C1.88882 34.46508559 -2.37849483 36.95836249 -7.92578125 37.74609375 C-14.7483735 37.91394334 -19.10046917 36.87237885 -24.3125 32.375 C-28.45457049 28.0149258 -30.3793326 24.05121989 -30.6875 18.0625 C-30.52339388 12.25121281 -28.63563967 7.85778671 -24.6640625 3.61328125 C-17.11666885 -3.19255626 -9.12546942 -5.14148867 0 0 Z " fill="#FBFDFD" transform="translate(61.3125,33.625)"></path>
<path d="M0 0 C0.33 0 0.66 0 1 0 C1 6.93 1 13.86 1 21 C-5.93 21 -12.86 21 -20 21 C-16 19 -16 19 -14.0703125 18.2109375 C-8.35401135 15.754535 -5.05173675 12.41080957 -2 7 C-1.07686078 4.6433321 -0.51873615 2.48993354 0 0 Z " fill="#F9FBFD" transform="translate(224,204)"></path>
<path d="M0 0 C2 4 2 4 2.7890625 5.9296875 C5.70465864 12.71457946 10.36242198 16.33277674 17 19.375 C17.99 19.684375 17.99 19.684375 19 20 C19 20.33 19 20.66 19 21 C12.73 21 6.46 21 0 21 C0 14.07 0 7.14 0 0 Z " fill="#FAFCFD" transform="translate(0,204)"></path>
<path d="M0 0 C6.93 0 13.86 0 21 0 C21 6.27 21 12.54 21 19 C18.99331125 16.99331125 18.43575127 15.80769932 17.375 13.25 C14.72866191 7.83927157 10.5256109 4.38103026 4.92578125 2.1875 C3.30455748 1.71395797 1.65346535 1.34447195 0 1 C0 0.67 0 0.34 0 0 Z " fill="#FAFCFD" transform="translate(204,0)"></path>
<path d="M0 0 C6.93 0 13.86 0 21 0 C17 2 17 2 15.0703125 2.7890625 C8.28542054 5.70465864 4.66722326 10.36242198 1.625 17 C1.41875 17.66 1.2125 18.32 1 19 C0.67 19 0.34 19 0 19 C0 12.73 0 6.46 0 0 Z " fill="#FAFCFD" transform="translate(0,0)"></path>
</svg>
