<svg width="61" height="60" viewBox="0 0 61 60" fill="none" xmlns="http://www.w3.org/2000/svg">
<path d="M50.2999 11H10.7001C6.74022 11 3.5 14.2402 3.5 18.2001V41C3.5 44.9598 6.74022 48.2001 10.7001 48.2001H50.2999C54.2598 48.2001 57.5 44.9598 57.5 41V18.2001C57.5 14.2402 54.2602 11 50.2999 11ZM49.6401 18.2361L36.7999 27.0801C34.9157 28.3822 32.708 29.0301 30.4999 29.0301C28.2918 29.0301 26.0841 28.3822 24.1999 27.0801L11.3597 18.2361C10.6757 17.7683 10.5076 16.8321 10.9759 16.1482C11.4437 15.4642 12.3799 15.2961 13.0638 15.764L25.9041 24.6139C28.6522 26.504 32.348 26.504 35.0962 24.6139L47.9365 15.764C48.6204 15.2961 49.5566 15.4702 50.0244 16.1482C50.4923 16.8322 50.3245 17.7683 49.6406 18.2361H49.6401Z" fill="#079FCA"/>
</svg>
