<svg width="61" height="60" viewBox="0 0 61 60" fill="none" xmlns="http://www.w3.org/2000/svg">
<path d="M14.2653 37.3875C14.2653 40.6253 11.6204 43.2702 8.38265 43.2702C5.14491 43.2702 2.5 40.6253 2.5 37.3875C2.5 34.1498 5.14491 31.5049 8.38265 31.5049H14.2653V37.3875Z" fill="#E01E5A"/>
<path d="M17.2298 37.3875C17.2298 34.1498 19.8747 31.5049 23.1125 31.5049C26.3502 31.5049 28.9951 34.1498 28.9951 37.3875V52.117C28.9951 55.3547 26.3502 57.9996 23.1125 57.9996C19.8747 57.9996 17.2298 55.3547 17.2298 52.117V37.3875Z" fill="#E01E5A"/>
<path d="M23.1125 13.7653C19.8747 13.7653 17.2298 11.1204 17.2298 7.88265C17.2298 4.64491 19.8747 2 23.1125 2C26.3502 2 28.9951 4.64491 28.9951 7.88265V13.7653H23.1125Z" fill="#36C5F0"/>
<path d="M23.1121 16.7288C26.3498 16.7288 28.9947 19.3737 28.9947 22.6114C28.9947 25.8492 26.3498 28.4941 23.1121 28.4941H8.38265C5.14491 28.4941 2.5 25.8492 2.5 22.6114C2.5 19.3737 5.14491 16.7288 8.38265 16.7288H23.1121Z" fill="#36C5F0"/>
<path d="M46.7356 22.6114C46.7356 19.3737 49.3805 16.7288 52.6182 16.7288C55.856 16.7288 58.5009 19.3737 58.5009 22.6114C58.5009 25.8492 55.856 28.4941 52.6182 28.4941H46.7356V22.6114Z" fill="#2EB67D"/>
<path d="M43.7711 22.6121C43.7711 25.8498 41.1262 28.4947 37.8884 28.4947C34.6507 28.4947 32.0058 25.8498 32.0058 22.6121V7.88265C32.0058 4.64491 34.6507 2 37.8884 2C41.1262 2 43.7711 4.64491 43.7711 7.88265V22.6121Z" fill="#2EB67D"/>
<path d="M37.8884 46.2346C41.1262 46.2346 43.7711 48.8795 43.7711 52.1173C43.7711 55.355 41.1262 57.9999 37.8884 57.9999C34.6507 57.9999 32.0058 55.355 32.0058 52.1173V46.2346H37.8884Z" fill="#ECB22E"/>
<path d="M37.8884 43.2702C34.6507 43.2702 32.0058 40.6253 32.0058 37.3875C32.0058 34.1498 34.6507 31.5049 37.8884 31.5049H52.6179C55.8556 31.5049 58.5005 34.1498 58.5005 37.3875C58.5005 40.6253 55.8556 43.2702 52.6179 43.2702H37.8884Z" fill="#ECB22E"/>
</svg>
