<svg width="60" height="49" viewBox="0 0 60 49" fill="none" xmlns="http://www.w3.org/2000/svg">
    <path d="M53.8574 12.0499C53.894 12.575 53.894 13.1002 53.894 13.6302C53.894 29.7789 41.5113 48.4033 18.869 48.4033V48.3936C12.1804 48.4033 5.63071 46.5012 0 42.9147C0.972578 43.0309 1.95003 43.089 2.92992 43.0914C8.47288 43.0962 13.8574 41.2498 18.2182 37.8496C12.9506 37.7504 8.33151 34.3406 6.71786 29.3627C8.56307 29.716 10.4644 29.6434 12.2754 29.1521C6.5326 28.0002 2.40098 22.9908 2.40098 17.1731C2.40098 17.1198 2.40098 17.069 2.40098 17.0182C4.11213 17.9644 6.02803 18.4895 7.98781 18.5476C2.57892 14.9587 0.911639 7.81486 4.17794 2.22947C10.4278 9.86461 19.649 14.5062 29.5478 14.9975C28.5558 10.7528 29.911 6.30477 33.1091 3.32089C38.067 -1.30617 45.8647 -1.06901 50.5253 3.85088C53.2821 3.31121 55.9244 2.30691 58.3425 0.88394C57.4235 3.71294 55.5003 6.11601 52.9311 7.64304C55.3711 7.35748 57.755 6.70891 60 5.71913C58.3474 8.17786 56.2657 10.3196 53.8574 12.0499Z" fill="#1D9BF0"/>
</svg>
