<svg width="61" height="60" viewBox="0 0 61 60" fill="none" xmlns="http://www.w3.org/2000/svg">
<g clip-path="url(#clip0_513_9830)">
<g clip-path="url(#clip1_513_9830)">
<path d="M54.8574 18.0499C54.894 18.575 54.894 19.1002 54.894 19.6302C54.894 35.7789 42.5113 54.4033 19.869 54.4033V54.3936C13.1804 54.4033 6.63071 52.5012 1 48.9147C1.97258 49.0309 2.95003 49.089 3.92992 49.0914C9.47288 49.0962 14.8574 47.2498 19.2182 43.8496C13.9506 43.7504 9.33151 40.3406 7.71785 35.3627C9.56307 35.716 11.4644 35.6434 13.2754 35.1521C7.5326 34.0002 3.40098 28.9908 3.40098 23.1731C3.40098 23.1198 3.40098 23.069 3.40098 23.0182C5.11213 23.9644 7.02803 24.4895 8.98781 24.5476C3.57892 20.9587 1.91164 13.8149 5.17794 8.22947C11.4278 15.8646 20.649 20.5062 30.5478 20.9975C29.5558 16.7528 30.911 12.3048 34.1091 9.32089C39.067 4.69383 46.8647 4.93099 51.5253 9.85088C54.2821 9.31121 56.9244 8.30691 59.3425 6.88394C58.4235 9.71294 56.5003 12.116 53.9311 13.643C56.3711 13.3575 58.755 12.7089 61 11.7191C59.3474 14.1779 57.2657 16.3196 54.8574 18.0499Z" fill="#1D9BF0"/>
</g>
</g>
<defs>
<clipPath id="clip0_513_9830">
<rect width="60" height="60" fill="white" transform="translate(0.5)"/>
</clipPath>
<clipPath id="clip1_513_9830">
<rect width="60" height="49" fill="white" transform="translate(0.5 6)"/>
</clipPath>
</defs>
</svg>
