<svg width="14" height="14" viewBox="0 0 14 14" fill="none" xmlns="http://www.w3.org/2000/svg">
<g clip-path="url(#clip0_513_8877)">
<path d="M14 6.45745C13.7954 4.76125 12.9637 3.20295 11.6683 2.08895C10.373 0.974942 8.70771 0.385833 7 0.437453C5.29229 0.385833 3.62704 0.974942 2.33168 2.08895C1.03633 3.20295 0.204589 4.76125 0 6.45745H0V7.54245C0.204589 9.23865 1.03633 10.797 2.33168 11.911C3.62704 13.025 5.29229 13.6141 7 13.5625C8.70771 13.6141 10.373 13.025 11.6683 11.911C12.9637 10.797 13.7954 9.23865 14 7.54245V6.45745ZM12.9062 6.45745H10.2812C10.2407 5.70473 10.1144 4.95909 9.905 4.23495C10.452 4.01256 10.9669 3.71831 11.4362 3.35995C12.2495 4.20254 12.7577 5.29283 12.88 6.45745H12.9062ZM4.87375 6.45745C4.91116 5.82313 5.01976 5.19502 5.1975 4.58495C5.78666 4.73477 6.39209 4.81119 7 4.81245C7.61666 4.81282 8.23097 4.73639 8.82875 4.58495C9.003 5.19582 9.11153 5.82354 9.1525 6.45745H4.87375ZM9.17875 7.54245C9.14208 8.17687 9.03347 8.80506 8.855 9.41495C7.6547 9.11161 6.3978 9.11161 5.1975 9.41495C5.01976 8.80489 4.91116 8.17678 4.87375 7.54245H9.17875ZM9.52875 3.16745C9.30657 2.67535 9.04619 2.2014 8.75 1.74995C9.37709 1.94439 9.9682 2.23994 10.5 2.62495C10.1877 2.85038 9.85351 3.04386 9.5025 3.20245L9.52875 3.16745ZM7.25375 1.53995C7.7448 2.15352 8.15095 2.83044 8.46125 3.55245C7.98178 3.66151 7.49172 3.71727 7 3.7187C6.50825 3.71777 6.01814 3.66201 5.53875 3.55245C5.84731 2.82955 6.2536 2.1524 6.74625 1.53995H7.25375V1.53995ZM4.4975 3.20245C4.14649 3.04386 3.81231 2.85038 3.5 2.62495C4.0318 2.23994 4.62291 1.94439 5.25 1.74995C4.95599 2.2105 4.70413 2.69664 4.4975 3.20245V3.20245ZM2.625 3.3512C3.09431 3.70956 3.60925 4.00381 4.15625 4.2262C3.94422 4.94974 3.81793 5.69569 3.78 6.4487H1.155C1.28454 5.28079 1.80216 4.1901 2.625 3.3512V3.3512ZM1.12 7.54245H3.745C3.78293 8.29547 3.90922 9.04141 4.12125 9.76495C3.57425 9.98734 3.05931 10.2816 2.59 10.64C1.76716 9.80106 1.24954 8.71037 1.12 7.54245V7.54245ZM4.4975 10.7975C4.70413 11.3033 4.95599 11.7894 5.25 12.25C4.62291 12.0555 4.0318 11.76 3.5 11.375C3.81231 11.1495 4.14649 10.9561 4.4975 10.7975V10.7975ZM6.74625 12.46C6.2536 11.8475 5.84731 11.1704 5.53875 10.4475C6.50029 10.2257 7.49971 10.2257 8.46125 10.4475C8.15329 11.1707 7.74695 11.8479 7.25375 12.46H6.74625V12.46ZM9.5025 10.7975C9.86864 10.9534 10.2176 11.1469 10.5438 11.375C10.0092 11.7555 9.41888 12.0507 8.79375 12.25C9.06863 11.7856 9.30565 11.2999 9.5025 10.7975V10.7975ZM11.375 10.6487C10.9057 10.2903 10.3908 9.99609 9.84375 9.7737C10.0574 9.05054 10.1837 8.3044 10.22 7.5512H12.845C12.7155 8.71912 12.1978 9.80981 11.375 10.6487V10.6487Z" fill="#1C1E21"/>
</g>
<defs>
<clipPath id="clip0_513_8877">
<rect width="14" height="14" fill="white"/>
</clipPath>
</defs>
</svg>
