<svg width="16" height="16" viewBox="0 0 16 16" fill="none" xmlns="http://www.w3.org/2000/svg">
<path fill-rule="evenodd" clip-rule="evenodd" d="M6.21814 1C7.88399 1 9.44694 1.65138 10.6185 2.82227L10.8207 3.03125C12.789 5.16769 12.9517 8.37016 11.3812 10.7021L15.3246 13.9053L15.389 13.9619C15.6931 14.2607 15.7006 14.7295 15.4388 15.0566C15.291 15.2413 15.0679 15.3496 14.8177 15.3496C14.6285 15.3494 14.4516 15.2752 14.3177 15.1748L14.3109 15.1699L10.2992 11.9258C9.15627 12.9019 7.73564 13.4502 6.21814 13.4502C4.55193 13.4501 2.98839 12.7984 1.81677 11.627C-0.605591 9.20437 -0.605591 5.24582 1.81677 2.82324C2.9884 1.65171 4.55188 1.0001 6.21814 1ZM6.21814 2.625C4.98531 2.6251 3.84852 3.09823 2.97009 3.97656L2.96912 3.97754C1.16924 5.75396 1.16734 8.67066 2.97009 10.4736C3.84851 11.3519 4.98535 11.8251 6.21814 11.8252C7.45313 11.8252 8.61308 11.3503 9.46423 10.4756L9.46716 10.4717C11.2673 8.69521 11.2692 5.77958 9.46619 3.97656C8.58769 3.09826 7.45104 2.625 6.21814 2.625Z" fill="#082C54"/>
</svg>
